font--2.ufo
<glyph name="C" format="2">
	<advance width="557"/>
	<outline>
		<contour>
			<point x="532" y="20" type="curve"/>
			<point x="532" y="146" type="line"/>
			<point x="527" y="150" type="line"/>
			<point x="473" y="137"/>
			<point x="426" y="133"/>
			<point x="352" y="133" type="curve" smooth="yes"/>
			<point x="229" y="133"/>
			<point x="200" y="157"/>
			<point x="200" y="331" type="curve" smooth="yes"/>
			<point x="200" y="496"/>
			<point x="229" y="518"/>
			<point x="352" y="518" type="curve" smooth="yes"/>
			<point x="428" y="518"/>
			<point x="473" y="512"/>
			<point x="529" y="499" type="curve"/>
			<point x="532" y="501" type="line"/>
			<point x="532" y="631" type="line"/>
			<point x="468" y="645"/>
			<point x="413" y="651"/>
			<point x="329" y="651" type="curve" smooth="yes"/>
			<point x="113" y="651"/>
			<point x="40" y="593"/>
			<point x="40" y="331" type="curve" smooth="yes"/>
			<point x="40" y="59"/>
			<point x="113" y="0"/>
			<point x="329" y="0" type="curve" smooth="yes"/>
			<point x="413" y="0"/>
			<point x="468" y="6"/>
		</contour>
	</outline>
</glyph>
<glyph name="D" format="2">
	<advance width="670"/>
	<outline>
		<contour>
			<point x="220" y="9" type="line"/>
			<point x="220" y="642" type="line"/>
			<point x="60" y="642" type="line"/>
			<point x="60" y="9" type="line"/>
		</contour>
		<contour>
			<point x="337" y="642" type="curve"/>
			<point x="64" y="642" type="line"/>
			<point x="64" y="507" type="line"/>
			<point x="314" y="507" type="line"/>
			<point x="429" y="507"/>
			<point x="468" y="485"/>
			<point x="468" y="331" type="curve" smooth="yes"/>
			<point x="468" y="168"/>
			<point x="429" y="144"/>
			<point x="314" y="144" type="curve"/>
			<point x="64" y="144" type="line"/>
			<point x="64" y="9" type="line"/>
			<point x="337" y="9" type="line"/>
			<point x="557" y="9"/>
			<point x="630" y="68"/>
			<point x="630" y="331" type="curve" smooth="yes"/>
			<point x="630" y="584"/>
			<point x="557" y="642"/>
		</contour>
	</outline>
</glyph>
<glyph name="Eth" format="2">
	<advance width="680"/>
	<outline>
		<contour>
			<point x="10" y="262" type="line"/>
			<point x="339" y="262" type="line"/>
			<point x="339" y="392" type="line"/>
			<point x="10" y="392" type="line"/>
		</contour>
		<contour>
			<point x="230" y="9" type="line"/>
			<point x="230" y="642" type="line"/>
			<point x="70" y="642" type="line"/>
			<point x="70" y="9" type="line"/>
		</contour>
		<contour>
			<point x="347" y="642" type="curve"/>
			<point x="74" y="642" type="line"/>
			<point x="74" y="507" type="line"/>
			<point x="324" y="507" type="line"/>
			<point x="439" y="507"/>
			<point x="478" y="485"/>
			<point x="478" y="331" type="curve" smooth="yes"/>
			<point x="478" y="168"/>
			<point x="439" y="144"/>
			<point x="324" y="144" type="curve"/>
			<point x="74" y="144" type="line"/>
			<point x="74" y="9" type="line"/>
			<point x="347" y="9" type="line"/>
			<point x="567" y="9"/>
			<point x="640" y="68"/>
			<point x="640" y="331" type="curve" smooth="yes"/>
			<point x="640" y="584"/>
			<point x="567" y="642"/>
		</contour>
	</outline>
</glyph>
<glyph name="Euro" format="2">
	<advance width="620"/>
	<outline>
		<contour>
			<point x="30" y="454" type="line"/>
			<point x="30" y="344" type="line"/>
			<point x="461" y="344" type="line"/>
			<point x="461" y="454" type="line"/>
		</contour>
		<contour>
			<point x="30" y="304" type="line"/>
			<point x="30" y="194" type="line"/>
			<point x="461" y="194" type="line"/>
			<point x="461" y="304" type="line"/>
		</contour>
		<contour>
			<point x="595" y="20" type="curve"/>
			<point x="595" y="146" type="line"/>
			<point x="590" y="150" type="line"/>
			<point x="536" y="137"/>
			<point x="489" y="133"/>
			<point x="415" y="133" type="curve" smooth="yes"/>
			<point x="292" y="133"/>
			<point x="263" y="157"/>
			<point x="263" y="331" type="curve" smooth="yes"/>
			<point x="263" y="496"/>
			<point x="292" y="518"/>
			<point x="415" y="518" type="curve" smooth="yes"/>
			<point x="491" y="518"/>
			<point x="536" y="512"/>
			<point x="592" y="499" type="curve"/>
			<point x="595" y="501" type="line"/>
			<point x="595" y="631" type="line"/>
			<point x="531" y="645"/>
			<point x="476" y="651"/>
			<point x="392" y="651" type="curve" smooth="yes"/>
			<point x="176" y="651"/>
			<point x="103" y="593"/>
			<point x="103" y="331" type="curve" smooth="yes"/>
			<point x="103" y="59"/>
			<point x="176" y="0"/>
			<point x="392" y="0" type="curve" smooth="yes"/>
			<point x="476" y="0"/>
			<point x="531" y="6"/>
		</contour>
	</outline>
</glyph>
<glyph name="G" format="2">
	<advance width="655"/>
	<outline>
		<contour>
			<point x="465" y="139" type="curve"/>
			<point x="465" y="196" type="line"/>
			<point x="465" y="219"/>
			<point x="466" y="238"/>
			<point x="468" y="256" type="curve"/>
			<point x="466" y="259" type="line"/>
			<point x="429" y="253"/>
			<point x="381" y="251"/>
			<point x="344" y="253" type="curve"/>
			<point x="344" y="383" type="line"/>
			<point x="605" y="384" type="line"/>
			<point x="605" y="44" type="line"/>
			<point x="544" y="16"/>
			<point x="472" y="0"/>
			<point x="352" y="0" type="curve" smooth="yes"/>
			<point x="111" y="0"/>
			<point x="40" y="89"/>
			<point x="40" y="331" type="curve" smooth="yes"/>
			<point x="40" y="593"/>
			<point x="163" y="651"/>
			<point x="379" y="651" type="curve" smooth="yes"/>
			<point x="443" y="651"/>
			<point x="508" y="646"/>
			<point x="572" y="632" type="curve"/>
			<point x="572" y="500" type="line"/>
			<point x="569" y="498" type="line"/>
			<point x="513" y="511"/>
			<point x="458" y="516"/>
			<point x="402" y="516" type="curve" smooth="yes"/>
			<point x="279" y="516"/>
			<point x="200" y="494"/>
			<point x="200" y="331" type="curve" smooth="yes"/>
			<point x="200" y="168"/>
			<point x="231" y="134"/>
			<point x="372" y="134" type="curve" smooth="yes"/>
			<point x="390" y="134"/>
			<point x="449" y="135"/>
		</contour>
	</outline>
</glyph>
<glyph name="H" format="2">
	<advance width="680"/>
	<outline>
		<contour>
			<point x="220" y="9" type="line"/>
			<point x="220" y="642" type="line"/>
			<point x="60" y="642" type="line"/>
			<point x="60" y="9" type="line"/>
		</contour>
		<contour>
			<point x="620" y="9" type="line"/>
			<point x="620" y="642" type="line"/>
			<point x="460" y="642" type="line"/>
			<point x="460" y="9" type="line"/>
		</contour>
		<contour>
			<point x="160" y="270" type="line"/>
			<point x="500" y="270" type="line"/>
			<point x="500" y="400" type="line"/>
			<point x="160" y="400" type="line"/>
		</contour>
	</outline>
</glyph>
<glyph name="I" format="2">
	<advance width="280"/>
	<outline>
		<contour>
			<point x="220" y="9" type="line"/>
			<point x="220" y="642" type="line"/>
			<point x="60" y="642" type="line"/>
			<point x="60" y="9" type="line"/>
		</contour>
	</outline>
</glyph>
<glyph name="Itilde" format="2">
	<advance width="254"/>
	<outline>
		<contour>
			<point x="220" y="9" type="line"/>
			<point x="220" y="642" type="line"/>
			<point x="60" y="642" type="line"/>
			<point x="60" y="9" type="line"/>
		</contour>
		<contour>
			<point x="241" y="682" type="curve" smooth="yes"/>
			<point x="296" y="682"/>
			<point x="331" y="707"/>
			<point x="331" y="766" type="curve" smooth="yes"/>
			<point x="331" y="784"/>
			<point x="328" y="810"/>
			<point x="328" y="810" type="curve" smooth="yes"/>
			<point x="242" y="810" type="line"/>
			<point x="243" y="806"/>
			<point x="243" y="802"/>
			<point x="243" y="799" type="curve" smooth="yes"/>
			<point x="243" y="779"/>
			<point x="232" y="772"/>
			<point x="217" y="772" type="curve" smooth="yes"/>
			<point x="173" y="772"/>
			<point x="102" y="819"/>
			<point x="52" y="819" type="curve" smooth="yes"/>
			<point x="-2" y="819"/>
			<point x="-37" y="794"/>
			<point x="-37" y="735" type="curve" smooth="yes"/>
			<point x="-37" y="718"/>
			<point x="-34" y="691"/>
			<point x="-34" y="691" type="curve"/>
			<point x="51" y="691" type="line"/>
			<point x="51" y="695"/>
			<point x="50" y="699"/>
			<point x="50" y="702" type="curve" smooth="yes"/>
			<point x="50" y="721"/>
			<point x="61" y="729"/>
			<point x="77" y="729" type="curve" smooth="yes"/>
			<point x="120" y="729"/>
			<point x="192" y="682"/>
		</contour>
	</outline>
</glyph>
<glyph name="K" format="2">
	<advance width="606"/>
	<outline>
		<contour>
			<point x="220" y="9" type="line"/>
			<point x="220" y="642" type="line"/>
			<point x="60" y="642" type="line"/>
			<point x="60" y="9" type="line"/>
		</contour>
		<contour>
			<point x="361" y="322" type="curve"/>
			<point x="361" y="325" type="line"/>
			<point x="389" y="334"/>
			<point x="435" y="405"/>
			<point x="465" y="455" type="curve"/>
			<point x="579" y="639" type="line"/>
			<point x="579" y="642" type="line"/>
			<point x="405" y="642" type="line"/>
			<point x="228" y="355" type="line"/>
			<point x="186" y="355" type="line"/>
			<point x="207" y="301" type="line"/>
			<point x="228" y="301" type="line"/>
			<point x="418" y="9" type="line"/>
			<point x="602" y="9" type="line"/>
			<point x="602" y="12" type="line"/>
			<point x="469" y="201" type="line"/>
			<point x="433" y="251"/>
			<point x="389" y="310"/>
		</contour>
		<contour>
			<point x="214" y="321" type="curve"/>
			<point x="214" y="267" type="line"/>
			<point x="215" y="267" type="line"/>
			<point x="217" y="272"/>
			<point x="219" y="271"/>
			<point x="225" y="271" type="curve" smooth="yes"/>
			<point x="244" y="271"/>
			<point x="281" y="219"/>
			<point x="293" y="200" type="curve"/>
			<point x="290" y="321" type="line"/>
			<point x="265" y="321"/>
			<point x="239" y="321"/>
		</contour>
		<contour>
			<point x="208" y="381" type="curve"/>
			<point x="207" y="381" type="line"/>
			<point x="207" y="327" type="line"/>
			<point x="232" y="327"/>
			<point x="258" y="327"/>
			<point x="283" y="327" type="curve"/>
			<point x="286" y="448" type="line"/>
			<point x="274" y="429"/>
			<point x="242" y="377"/>
			<point x="223" y="377" type="curve" smooth="yes"/>
			<point x="217" y="377"/>
			<point x="210" y="376"/>
		</contour>
	</outline>
</glyph>
<glyph name="N" format="2">
	<advance width="690"/>
	<outline>
		<contour>
			<point x="470" y="388" type="curve" smooth="yes"/>
			<point x="470" y="642" type="line"/>
			<point x="630" y="642" type="line"/>
			<point x="630" y="9" type="line"/>
			<point x="471" y="9" type="line"/>
			<point x="291" y="277" type="line" smooth="yes"/>
			<point x="249" y="340"/>
			<point x="233" y="367"/>
			<point x="203" y="427" type="curve"/>
			<point x="200" y="423" type="line"/>
			<point x="218" y="359"/>
			<point x="220" y="305"/>
			<point x="220" y="253" type="curve" smooth="yes"/>
			<point x="220" y="9" type="line"/>
			<point x="60" y="9" type="line"/>
			<point x="60" y="642" type="line"/>
			<point x="219" y="642" type="line"/>
			<point x="399" y="374" type="line" smooth="yes"/>
			<point x="441" y="311"/>
			<point x="457" y="284"/>
			<point x="487" y="224" type="curve"/>
			<point x="490" y="228" type="line"/>
			<point x="477" y="284"/>
			<point x="470" y="336"/>
		</contour>
	</outline>
</glyph>
<glyph name="Q" format="2">
	<advance width="701"/>
	<outline>
		<contour>
			<point x="596" y="-127" type="line"/>
			<point x="596" y="-124" type="line"/>
			<point x="572" y="-82"/>
			<point x="539" y="-33"/>
			<point x="499" y="11" type="curve"/>
			<point x="499" y="20" type="line"/>
			<point x="331" y="21" type="line"/>
			<point x="414" y="-127" type="line"/>
		</contour>
		<contour>
			<point x="40" y="326" type="curve" smooth="yes"/>
			<point x="40" y="83"/>
			<point x="109" y="0"/>
			<point x="351" y="0" type="curve" smooth="yes"/>
			<point x="593" y="0"/>
			<point x="661" y="83"/>
			<point x="661" y="326" type="curve" smooth="yes"/>
			<point x="661" y="567"/>
			<point x="593" y="651"/>
			<point x="351" y="651" type="curve" smooth="yes"/>
			<point x="109" y="651"/>
			<point x="40" y="567"/>
		</contour>
		<contour>
			<point x="351" y="140" type="curve" smooth="yes"/>
			<point x="224" y="140"/>
			<point x="200" y="179"/>
			<point x="200" y="326" type="curve" smooth="yes"/>
			<point x="200" y="469"/>
			<point x="224" y="511"/>
			<point x="351" y="511" type="curve" smooth="yes"/>
			<point x="479" y="511"/>
			<point x="501" y="469"/>
			<point x="501" y="326" type="curve" smooth="yes"/>
			<point x="501" y="179"/>
			<point x="479" y="140"/>
		</contour>
	</outline>
</glyph>
<glyph name="Tbar" format="2">
	<advance width="540"/>
	<outline>
		<contour>
			<point x="530" y="297" type="line"/>
			<point x="530" y="432" type="line"/>
			<point x="10" y="432" type="line"/>
			<point x="10" y="297" type="line"/>
		</contour>
		<component base="T"/>
	</outline>
</glyph>
<glyph name="Thorn" format="2">
	<advance width="626"/>
	<outline>
		<contour>
			<point x="220" y="9" type="line"/>
			<point x="220" y="691" type="line"/>
			<point x="60" y="691" type="line"/>
			<point x="60" y="9" type="line"/>
		</contour>
		<contour>
			<point x="342" y="631" type="curve"/>
			<point x="60" y="631" type="line"/>
			<point x="60" y="500" type="line"/>
			<point x="316" y="500" type="line" smooth="yes"/>
			<point x="410" y="500"/>
			<point x="435" y="468"/>
			<point x="435" y="402" type="curve" smooth="yes"/>
			<point x="435" y="332"/>
			<point x="410" y="304"/>
			<point x="316" y="304" type="curve" smooth="yes"/>
			<point x="219" y="304" type="line"/>
			<point x="214" y="303" type="line"/>
			<point x="212" y="173" type="line"/>
			<point x="342" y="173" type="line" smooth="yes"/>
			<point x="532" y="173"/>
			<point x="601" y="244"/>
			<point x="601" y="402" type="curve" smooth="yes"/>
			<point x="601" y="569"/>
			<point x="532" y="631"/>
		</contour>
	</outline>
</glyph>
<glyph name="U" format="2">
	<advance width="668"/>
	<outline>
		<contour>
			<point x="608" y="269" type="curve"/>
			<point x="608" y="642" type="line"/>
			<point x="448" y="642" type="line"/>
			<point x="448" y="272" type="line"/>
			<point x="448" y="169"/>
			<point x="426" y="140"/>
			<point x="339" y="140" type="curve" smooth="yes"/>
			<point x="244" y="140"/>
			<point x="220" y="169"/>
			<point x="220" y="272" type="curve"/>
			<point x="220" y="642" type="line"/>
			<point x="60" y="642" type="line"/>
			<point x="60" y="269" type="line"/>
			<point x="60" y="73"/>
			<point x="119" y="0"/>
			<point x="339" y="0" type="curve" smooth="yes"/>
			<point x="550" y="0"/>
			<point x="608" y="73"/>
		</contour>
	</outline>
</glyph>
<glyph name=".notdef" format="2">
	<advance width="660"/>
	<outline>
		<contour>
			<point x="80" y="674" type="line"/>
			<point x="80" y="0" type="line"/>
			<point x="580" y="0" type="line"/>
			<point x="580" y="674" type="line"/>
		</contour>
		<contour>
			<point x="180" y="100" type="line"/>
			<point x="180" y="574" type="line"/>
			<point x="480" y="574" type="line"/>
			<point x="480" y="100" type="line"/>
		</contour>
	</outline>
</glyph>
<glyph name="approxequal" format="2">
	<advance width="607"/>
	<outline>
		<contour>
			<point x="432" y="324" type="curve" smooth="yes"/>
			<point x="499" y="324"/>
			<point x="551" y="361"/>
			<point x="551" y="447" type="curve" smooth="yes"/>
			<point x="551" y="476"/>
			<point x="546" y="498"/>
			<point x="546" y="498" type="curve" smooth="yes"/>
			<point x="434" y="498" type="line"/>
			<point x="435" y="492"/>
			<point x="436" y="486"/>
			<point x="436" y="481" type="curve" smooth="yes"/>
			<point x="436" y="453"/>
			<point x="420" y="442"/>
			<point x="397" y="442" type="curve" smooth="yes"/>
			<point x="332" y="442"/>
			<point x="226" y="511"/>
			<point x="153" y="511" type="curve" smooth="yes"/>
			<point x="87" y="511"/>
			<point x="35" y="474"/>
			<point x="35" y="388" type="curve" smooth="yes"/>
			<point x="35" y="361"/>
			<point x="39" y="337"/>
			<point x="39" y="337" type="curve"/>
			<point x="151" y="337" type="line"/>
			<point x="150" y="343"/>
			<point x="149" y="349"/>
			<point x="149" y="354" type="curve" smooth="yes"/>
			<point x="149" y="381"/>
			<point x="165" y="393"/>
			<point x="189" y="393" type="curve" smooth="yes"/>
			<point x="253" y="393"/>
			<point x="360" y="324"/>
		</contour>
		<contour>
			<point x="453" y="114" type="curve" smooth="yes"/>
			<point x="520" y="114"/>
			<point x="572" y="151"/>
			<point x="572" y="237" type="curve" smooth="yes"/>
			<point x="572" y="266"/>
			<point x="567" y="288"/>
			<point x="567" y="288" type="curve" smooth="yes"/>
			<point x="455" y="288" type="line"/>
			<point x="456" y="282"/>
			<point x="457" y="276"/>
			<point x="457" y="271" type="curve" smooth="yes"/>
			<point x="457" y="243"/>
			<point x="441" y="232"/>
			<point x="418" y="232" type="curve" smooth="yes"/>
			<point x="353" y="232"/>
			<point x="247" y="301"/>
			<point x="174" y="301" type="curve" smooth="yes"/>
			<point x="108" y="301"/>
			<point x="56" y="264"/>
			<point x="56" y="178" type="curve" smooth="yes"/>
			<point x="56" y="151"/>
			<point x="60" y="127"/>
			<point x="60" y="127" type="curve"/>
			<point x="172" y="127" type="line"/>
			<point x="171" y="133"/>
			<point x="170" y="139"/>
			<point x="170" y="144" type="curve" smooth="yes"/>
			<point x="170" y="171"/>
			<point x="186" y="183"/>
			<point x="210" y="183" type="curve" smooth="yes"/>
			<point x="274" y="183"/>
			<point x="381" y="114"/>
		</contour>
	</outline>
	<note>
		approxequal
	</note>
</glyph>
<glyph name="bar" format="2">
	<advance width="280"/>
	<outline>
		<contour>
			<point x="60" y="682" type="line"/>
			<point x="60" y="-301" type="line"/>
			<point x="220" y="-301" type="line"/>
			<point x="220" y="682" type="line"/>
		</contour>
	</outline>
</glyph>
<glyph name="bracketleft" format="2">
	<advance width="343"/>
	<outline>
		<contour>
			<point x="313" y="797" type="line"/>
			<point x="60" y="797" type="line"/>
			<point x="60" y="-259" type="line"/>
			<point x="313" y="-259" type="line"/>
			<point x="313" y="-134" type="line"/>
			<point x="208" y="-134" type="line"/>
			<point x="208" y="672" type="line"/>
			<point x="313" y="672" type="line"/>
		</contour>
	</outline>
	<note>
		bracketleft
	</note>
</glyph>
<glyph name="bracketright" format="2">
	<advance width="343"/>
	<outline>
		<contour>
			<point x="30" y="797" type="line"/>
			<point x="30" y="672" type="line"/>
			<point x="135" y="672" type="line"/>
			<point x="135" y="-134" type="line"/>
			<point x="30" y="-134" type="line"/>
			<point x="30" y="-259" type="line"/>
			<point x="283" y="-259" type="line"/>
			<point x="283" y="797" type="line"/>
		</contour>
	</outline>
	<note>
		bracketright
	</note>
</glyph>
<glyph name="commaaccent" format="2">
	<outline>
		<contour>
			<point x="-141" y="-218" type="curve"/>
			<point x="-142" y="-219" type="line"/>
			<point x="-142" y="-273" type="line"/>
			<point x="-134" y="-274"/>
			<point x="-128" y="-275"/>
			<point x="-121" y="-275" type="curve" smooth="yes"/>
			<point x="-48" y="-275"/>
			<point x="-6" y="-244"/>
			<point x="-6" y="-146" type="curve" smooth="yes"/>
			<point x="-6" y="-71"/>
			<point x="-34" y="-30"/>
			<point x="-104" y="-30" type="curve" smooth="yes"/>
			<point x="-172" y="-30"/>
			<point x="-195" y="-57"/>
			<point x="-195" y="-107" type="curve" smooth="yes"/>
			<point x="-195" y="-155"/>
			<point x="-168" y="-181"/>
			<point x="-117" y="-181" type="curve" smooth="yes"/>
			<point x="-95" y="-181"/>
			<point x="-78" y="-177"/>
			<point x="-68" y="-171" type="curve"/>
			<point x="-67" y="-172" type="line"/>
			<point x="-67" y="-207"/>
			<point x="-87" y="-219"/>
			<point x="-127" y="-219" type="curve" smooth="yes"/>
			<point x="-132" y="-219"/>
			<point x="-135" y="-219"/>
		</contour>
	</outline>
</glyph>
<glyph name="currency" format="2">
	<advance width="632"/>
	<outline>
		<contour>
			<point x="316" y="72" type="curve" smooth="yes"/>
			<point x="498" y="72"/>
			<point x="566" y="145"/>
			<point x="566" y="321" type="curve" smooth="yes"/>
			<point x="566" y="499"/>
			<point x="498" y="573"/>
			<point x="316" y="573" type="curve" smooth="yes"/>
			<point x="135" y="573"/>
			<point x="66" y="499"/>
			<point x="66" y="321" type="curve" smooth="yes"/>
			<point x="66" y="145"/>
			<point x="135" y="72"/>
		</contour>
		<contour>
			<point x="10" y="28" type="line"/>
			<point x="185" y="28" type="line"/>
			<point x="237" y="123" type="line"/>
			<point x="135" y="232" type="line"/>
		</contour>
		<contour>
			<point x="452" y="28" type="line"/>
			<point x="622" y="28" type="line"/>
			<point x="508" y="220" type="line"/>
			<point x="393" y="135" type="line"/>
		</contour>
		<contour>
			<point x="316" y="208" type="curve" smooth="yes"/>
			<point x="241" y="208"/>
			<point x="217" y="237"/>
			<point x="217" y="323" type="curve" smooth="yes"/>
			<point x="217" y="404"/>
			<point x="241" y="437"/>
			<point x="316" y="437" type="curve" smooth="yes"/>
			<point x="393" y="437"/>
			<point x="415" y="404"/>
			<point x="415" y="323" type="curve" smooth="yes"/>
			<point x="415" y="237"/>
			<point x="393" y="208"/>
		</contour>
		<contour>
			<point x="10" y="621" type="line"/>
			<point x="135" y="417" type="line"/>
			<point x="237" y="526" type="line"/>
			<point x="185" y="621" type="line"/>
		</contour>
		<contour>
			<point x="452" y="621" type="line"/>
			<point x="393" y="514" type="line"/>
			<point x="508" y="429" type="line"/>
			<point x="622" y="621" type="line"/>
		</contour>
	</outline>
</glyph>
<glyph name="d" format="2">
	<advance width="576"/>
	<outline>
		<contour>
			<point x="364" y="9" type="line"/>
			<point x="516" y="9" type="line"/>
			<point x="516" y="682" type="line"/>
			<point x="356" y="682" type="line"/>
			<point x="356" y="98" type="line"/>
		</contour>
		<contour>
			<point x="266" y="136" type="curve" smooth="yes"/>
			<point x="196" y="136"/>
			<point x="181" y="173"/>
			<point x="181" y="251" type="curve" smooth="yes"/>
			<point x="181" y="342"/>
			<point x="206" y="364"/>
			<point x="269" y="364" type="curve" smooth="yes"/>
			<point x="305" y="364"/>
			<point x="332" y="359"/>
			<point x="357" y="349" type="curve"/>
			<point x="361" y="352" type="line"/>
			<point x="357" y="479" type="line"/>
			<point x="354" y="477" type="line"/>
			<point x="328" y="491"/>
			<point x="286" y="501"/>
			<point x="235" y="501" type="curve" smooth="yes"/>
			<point x="89" y="501"/>
			<point x="22" y="430"/>
			<point x="25" y="227" type="curve" smooth="yes"/>
			<point x="27" y="75"/>
			<point x="85" y="0"/>
			<point x="214" y="0" type="curve" smooth="yes"/>
			<point x="294" y="0"/>
			<point x="331" y="26"/>
			<point x="354" y="80" type="curve"/>
			<point x="359" y="80" type="line"/>
			<point x="356" y="244" type="line"/>
			<point x="356" y="166"/>
			<point x="319" y="136"/>
		</contour>
	</outline>
</glyph>
<glyph name="dagger" format="2">
	<advance width="465"/>
	<outline>
		<contour>
			<point x="312" y="379" type="curve" smooth="yes"/>
			<point x="312" y="-177" type="line"/>
			<point x="153" y="-177" type="line"/>
			<point x="153" y="379" type="line" smooth="yes"/>
			<point x="153" y="392"/>
			<point x="154" y="416"/>
			<point x="160" y="428" type="curve"/>
			<point x="159" y="429" type="line"/>
			<point x="146" y="422"/>
			<point x="133" y="421"/>
			<point x="110" y="421" type="curve" smooth="yes"/>
			<point x="20" y="421" type="line"/>
			<point x="20" y="551" type="line"/>
			<point x="110" y="551" type="line"/>
			<point x="133" y="551"/>
			<point x="146" y="550"/>
			<point x="159" y="543" type="curve"/>
			<point x="160" y="544" type="line"/>
			<point x="154" y="556"/>
			<point x="153" y="580"/>
			<point x="153" y="593" type="curve"/>
			<point x="153" y="682" type="line"/>
			<point x="313" y="682" type="line"/>
			<point x="313" y="593" type="line" smooth="yes"/>
			<point x="313" y="580"/>
			<point x="312" y="556"/>
			<point x="306" y="544" type="curve"/>
			<point x="307" y="543" type="line"/>
			<point x="320" y="550"/>
			<point x="333" y="551"/>
			<point x="356" y="551" type="curve" smooth="yes"/>
			<point x="445" y="551" type="line"/>
			<point x="445" y="421" type="line"/>
			<point x="355" y="421" type="line" smooth="yes"/>
			<point x="332" y="421"/>
			<point x="319" y="422"/>
			<point x="306" y="429" type="curve"/>
			<point x="305" y="428" type="line"/>
			<point x="311" y="416"/>
			<point x="312" y="392"/>
		</contour>
	</outline>
</glyph>
<glyph name="dollar" format="2">
	<advance width="607"/>
	<outline>
		<contour>
			<point x="373" y="766" type="line"/>
			<point x="213" y="766" type="line"/>
			<point x="213" y="570" type="line"/>
			<point x="373" y="570" type="line"/>
		</contour>
		<contour>
			<point x="373" y="96" type="line"/>
			<point x="213" y="96" type="line"/>
			<point x="213" y="-110" type="line"/>
			<point x="373" y="-110" type="line"/>
		</contour>
		<component base="S"/>
	</outline>
</glyph>
<glyph name="dotaccent" format="2">
	<advance width="154"/>
	<outline>
		<contour>
			<point x="149" y="749" type="curve"/>
			<point x="124" y="754"/>
			<point x="101" y="756"/>
			<point x="78" y="756" type="curve" smooth="yes"/>
			<point x="54" y="756"/>
			<point x="31" y="754"/>
			<point x="6" y="749" type="curve"/>
			<point x="4" y="729"/>
			<point x="3" y="713"/>
			<point x="3" y="699" type="curve" smooth="yes"/>
			<point x="3" y="685"/>
			<point x="4" y="667"/>
			<point x="6" y="648" type="curve"/>
			<point x="31" y="643"/>
			<point x="54" y="641"/>
			<point x="76" y="641" type="curve" smooth="yes"/>
			<point x="100" y="641"/>
			<point x="123" y="643"/>
			<point x="149" y="648" type="curve"/>
			<point x="150" y="668"/>
			<point x="151" y="684"/>
			<point x="151" y="699" type="curve" smooth="yes"/>
			<point x="151" y="713"/>
			<point x="150" y="729"/>
		</contour>
	</outline>
</glyph>
<glyph name="dotlessi" format="2">
	<advance width="262"/>
	<outline>
		<contour>
			<point x="211" y="9" type="line"/>
			<point x="211" y="496" type="line"/>
			<point x="51" y="496" type="line"/>
			<point x="51" y="9" type="line"/>
		</contour>
	</outline>
</glyph>
<glyph name="doubledanda" format="2">
	<advance width="600"/>
	<outline>
		<contour>
			<point x="112" y="667" type="line"/>
			<point x="112" y="-59" type="line"/>
			<point x="260" y="-59" type="line"/>
			<point x="260" y="667" type="line"/>
		</contour>
		<contour>
			<point x="356" y="667" type="line"/>
			<point x="356" y="-59" type="line"/>
			<point x="504" y="-59" type="line"/>
			<point x="504" y="667" type="line"/>
		</contour>
	</outline>
</glyph>
<glyph name="dvAnusvara.matrai" format="2">
	<outline>
		<contour>
			<point x="176" y="717" type="curve"/>
			<point x="178" y="694"/>
			<point x="178" y="679"/>
			<point x="178" y="663" type="curve" smooth="yes"/>
			<point x="178" y="647"/>
			<point x="178" y="631"/>
			<point x="176" y="610" type="curve"/>
			<point x="150" y="605"/>
			<point x="125" y="601"/>
			<point x="99" y="601" type="curve" smooth="yes"/>
			<point x="75" y="601"/>
			<point x="50" y="605"/>
			<point x="25" y="610" type="curve"/>
			<point x="23" y="630"/>
			<point x="22" y="646"/>
			<point x="22" y="662" type="curve" smooth="yes"/>
			<point x="22" y="677"/>
			<point x="23" y="694"/>
			<point x="25" y="717" type="curve"/>
			<point x="50" y="722"/>
			<point x="76" y="724"/>
			<point x="101" y="724" type="curve" smooth="yes"/>
			<point x="125" y="724"/>
			<point x="151" y="722"/>
		</contour>
	</outline>
	<anchor name="_abvm.i" x="0" y="608"/>
</glyph>
<glyph name="dvBH_NA" format="2">
	<advance width="978"/>
	<outline>
		<contour>
			<point x="769" y="9" type="line"/>
			<point x="769" y="501" type="line"/>
			<point x="918" y="501" type="line"/>
			<point x="918" y="9" type="line"/>
		</contour>
		<contour>
			<point x="352" y="500" type="line"/>
			<point x="352" y="607" type="line"/>
			<point x="1018" y="607" type="line"/>
			<point x="1018" y="500" type="line"/>
		</contour>
		<contour>
			<point x="529" y="228" type="line"/>
			<point x="529" y="340" type="line"/>
			<point x="887" y="341" type="line"/>
			<point x="887" y="229" type="line"/>
		</contour>
		<contour>
			<point x="517" y="340" type="curve"/>
			<point x="617" y="340" type="line"/>
			<point x="617" y="241" type="line" smooth="yes"/>
			<point x="617" y="144"/>
			<point x="597" y="134"/>
			<point x="514" y="134" type="curve" smooth="yes"/>
			<point x="434" y="134"/>
			<point x="414" y="151"/>
			<point x="414" y="237" type="curve" smooth="yes"/>
			<point x="414" y="329"/>
			<point x="435" y="340"/>
		</contour>
		<contour>
			<point x="139" y="178" type="line"/>
			<point x="139" y="290" type="line"/>
			<point x="512" y="290" type="line"/>
			<point x="512" y="178" type="line"/>
		</contour>
		<contour>
			<point x="53" y="500" type="curve" smooth="yes"/>
			<point x="-70" y="500" type="line"/>
			<point x="-70" y="607" type="line"/>
			<point x="90" y="607" type="line" smooth="yes"/>
			<point x="215" y="607"/>
			<point x="252" y="558"/>
			<point x="252" y="422" type="curve" smooth="yes"/>
			<point x="252" y="196" type="line" smooth="yes"/>
			<point x="252" y="109"/>
			<point x="235" y="94"/>
			<point x="143" y="94" type="curve" smooth="yes"/>
			<point x="46" y="94"/>
			<point x="23" y="113"/>
			<point x="23" y="187" type="curve" smooth="yes"/>
			<point x="23" y="262"/>
			<point x="44" y="280"/>
			<point x="104" y="280" type="curve"/>
			<point x="104" y="433" type="line" smooth="yes"/>
			<point x="104" y="482"/>
			<point x="96" y="500"/>
		</contour>
	</outline>
	<anchor name="blwm" x="851" y="0"/>
</glyph>
<glyph name="dvBH_YA" format="2">
	<advance width="1070"/>
	<outline>
		<contour>
			<point x="862" y="9" type="line"/>
			<point x="862" y="501" type="line"/>
			<point x="1010" y="501" type="line"/>
			<point x="1010" y="9" type="line"/>
		</contour>
		<contour>
			<point x="352" y="500" type="line"/>
			<point x="352" y="607" type="line"/>
			<point x="1110" y="607" type="line"/>
			<point x="1110" y="500" type="line"/>
		</contour>
		<contour>
			<point x="713" y="520" type="line"/>
			<point x="713" y="422" type="line" smooth="yes"/>
			<point x="713" y="320"/>
			<point x="670" y="277"/>
			<point x="549" y="270" type="curve"/>
			<point x="550" y="227"/>
			<point x="596" y="200"/>
			<point x="706" y="200" type="curve" smooth="yes"/>
			<point x="794" y="200"/>
			<point x="857" y="216"/>
			<point x="911" y="257" type="curve"/>
			<point x="942" y="146" type="line"/>
			<point x="917" y="125"/>
			<point x="895" y="110"/>
			<point x="862" y="98" type="curve"/>
			<point x="858" y="100" type="line"/>
			<point x="811" y="84"/>
			<point x="759" y="76"/>
			<point x="692" y="76" type="curve" smooth="yes"/>
			<point x="511" y="76"/>
			<point x="415" y="156"/>
			<point x="415" y="312" type="curve" smooth="yes"/>
			<point x="415" y="367" type="line"/>
			<point x="463" y="367" type="line" smooth="yes"/>
			<point x="556" y="367"/>
			<point x="571" y="379"/>
			<point x="571" y="464" type="curve" smooth="yes"/>
			<point x="571" y="520" type="line"/>
		</contour>
		<contour>
			<point x="139" y="168" type="line"/>
			<point x="139" y="280" type="line"/>
			<point x="512" y="280" type="line"/>
			<point x="512" y="168" type="line"/>
		</contour>
		<contour>
			<point x="53" y="500" type="curve" smooth="yes"/>
			<point x="-70" y="500" type="line"/>
			<point x="-70" y="607" type="line"/>
			<point x="90" y="607" type="line" smooth="yes"/>
			<point x="215" y="607"/>
			<point x="252" y="558"/>
			<point x="252" y="422" type="curve" smooth="yes"/>
			<point x="252" y="196" type="line" smooth="yes"/>
			<point x="252" y="109"/>
			<point x="235" y="94"/>
			<point x="143" y="94" type="curve" smooth="yes"/>
			<point x="46" y="94"/>
			<point x="23" y="113"/>
			<point x="23" y="187" type="curve" smooth="yes"/>
			<point x="23" y="262"/>
			<point x="44" y="280"/>
			<point x="104" y="280" type="curve"/>
			<point x="104" y="433" type="line" smooth="yes"/>
			<point x="104" y="482"/>
			<point x="96" y="500"/>
		</contour>
	</outline>
</glyph>
<glyph name="dvB_JxA" format="2">
	<advance width="1084"/>
	<outline>
		<contour>
			<point x="579" y="-50" type="curve"/>
			<point x="581" y="-70"/>
			<point x="582" y="-83"/>
			<point x="582" y="-98" type="curve" smooth="yes"/>
			<point x="582" y="-112"/>
			<point x="581" y="-127"/>
			<point x="579" y="-146" type="curve"/>
			<point x="555" y="-151"/>
			<point x="533" y="-153"/>
			<point x="510" y="-153" type="curve" smooth="yes"/>
			<point x="488" y="-153"/>
			<point x="466" y="-151"/>
			<point x="444" y="-146" type="curve"/>
			<point x="441" y="-128"/>
			<point x="440" y="-113"/>
			<point x="440" y="-99" type="curve" smooth="yes"/>
			<point x="440" y="-85"/>
			<point x="441" y="-70"/>
			<point x="444" y="-50" type="curve"/>
			<point x="466" y="-45"/>
			<point x="489" y="-43"/>
			<point x="512" y="-43" type="curve" smooth="yes"/>
			<point x="534" y="-43"/>
			<point x="556" y="-45"/>
		</contour>
		<component base="dvB_JA"/>
	</outline>
</glyph>
<glyph name="dvB_NA" format="2">
	<advance width="1007"/>
	<outline>
		<contour>
			<point x="798" y="9" type="line"/>
			<point x="798" y="501" type="line"/>
			<point x="947" y="501" type="line"/>
			<point x="947" y="9" type="line"/>
		</contour>
		<contour>
			<point x="361" y="500" type="line"/>
			<point x="361" y="607" type="line"/>
			<point x="1047" y="607" type="line"/>
			<point x="1047" y="500" type="line"/>
		</contour>
		<contour>
			<point x="558" y="208" type="line"/>
			<point x="558" y="320" type="line"/>
			<point x="916" y="321" type="line"/>
			<point x="916" y="209" type="line"/>
		</contour>
		<contour>
			<point x="546" y="320" type="curve"/>
			<point x="646" y="320" type="line"/>
			<point x="646" y="231" type="line" smooth="yes"/>
			<point x="646" y="144"/>
			<point x="626" y="134"/>
			<point x="543" y="134" type="curve" smooth="yes"/>
			<point x="463" y="134"/>
			<point x="443" y="151"/>
			<point x="443" y="227" type="curve" smooth="yes"/>
			<point x="443" y="309"/>
			<point x="464" y="320"/>
		</contour>
		<contour>
			<point x="265" y="74" type="curve" smooth="yes"/>
			<point x="100" y="74"/>
			<point x="31" y="123"/>
			<point x="31" y="262" type="curve" smooth="yes"/>
			<point x="31" y="402"/>
			<point x="95" y="449"/>
			<point x="217" y="449" type="curve" smooth="yes"/>
			<point x="264" y="449"/>
			<point x="335" y="443"/>
			<point x="372" y="432" type="curve"/>
			<point x="372" y="329" type="line"/>
			<point x="368" y="328" type="line"/>
			<point x="346" y="334"/>
			<point x="294" y="342"/>
			<point x="259" y="342" type="curve" smooth="yes"/>
			<point x="183" y="342"/>
			<point x="163" y="325"/>
			<point x="163" y="264" type="curve" smooth="yes"/>
			<point x="163" y="200"/>
			<point x="197" y="183"/>
			<point x="291" y="183" type="curve" smooth="yes"/>
			<point x="363" y="183"/>
			<point x="453" y="201"/>
			<point x="511" y="229" type="curve"/>
			<point x="564" y="136" type="line"/>
			<point x="484" y="97"/>
			<point x="391" y="74"/>
		</contour>
		<contour>
			<point x="412" y="137" type="line"/>
			<point x="345" y="186" type="line"/>
			<point x="345" y="187" type="line"/>
			<point x="171" y="307" type="line"/>
			<point x="167" y="307" type="line"/>
			<point x="206" y="360" type="line"/>
			<point x="233" y="341" type="line"/>
			<point x="233" y="340" type="line"/>
			<point x="452" y="188" type="line"/>
		</contour>
		<contour>
			<point x="-50" y="500" type="line"/>
			<point x="-50" y="607" type="line"/>
			<point x="476" y="607" type="line"/>
			<point x="476" y="500" type="line"/>
		</contour>
	</outline>
	<anchor name="blwm" x="880" y="0"/>
</glyph>
<glyph name="dvCH_VA" format="2">
	<advance width="682"/>
	<outline>
		<contour>
			<point x="446" y="-285" type="line"/>
			<point x="584" y="-285" type="line"/>
			<point x="584" y="97" type="line"/>
			<point x="446" y="97" type="line"/>
		</contour>
		<contour>
			<point x="-60" y="500" type="line"/>
			<point x="727" y="500" type="line"/>
			<point x="727" y="607" type="line"/>
			<point x="-60" y="607" type="line"/>
		</contour>
		<contour>
			<point x="429" y="538" type="line"/>
			<point x="429" y="397" type="line"/>
			<point x="567" y="397" type="line"/>
			<point x="567" y="538" type="line"/>
		</contour>
		<contour>
			<point x="26" y="410" type="curve" smooth="yes"/>
			<point x="26" y="349"/>
			<point x="66" y="306"/>
			<point x="142" y="303" type="curve"/>
			<point x="142" y="299" type="line"/>
			<point x="66" y="289"/>
			<point x="34" y="246"/>
			<point x="34" y="173" type="curve" smooth="yes"/>
			<point x="34" y="103"/>
			<point x="76" y="54"/>
			<point x="137" y="41" type="curve"/>
			<point x="137" y="39" type="line"/>
			<point x="105" y="18"/>
			<point x="86" y="-21"/>
			<point x="86" y="-74" type="curve" smooth="yes"/>
			<point x="86" y="-184"/>
			<point x="136" y="-238"/>
			<point x="292" y="-238" type="curve" smooth="yes"/>
			<point x="345" y="-238"/>
			<point x="406" y="-231"/>
			<point x="442" y="-219" type="curve"/>
			<point x="446" y="-222" type="line"/>
			<point x="479" y="-209" type="line"/>
			<point x="453" y="-101" type="line"/>
			<point x="423" y="-115"/>
			<point x="383" y="-122"/>
			<point x="330" y="-122" type="curve" smooth="yes"/>
			<point x="250" y="-122"/>
			<point x="221" y="-107"/>
			<point x="221" y="-58" type="curve" smooth="yes"/>
			<point x="221" y="-15"/>
			<point x="237" y="2"/>
			<point x="291" y="2" type="curve" smooth="yes"/>
			<point x="308" y="2"/>
			<point x="327" y="1"/>
			<point x="347" y="1" type="curve" smooth="yes"/>
			<point x="614" y="1"/>
			<point x="656" y="111"/>
			<point x="656" y="280" type="curve" smooth="yes"/>
			<point x="656" y="421"/>
			<point x="607" y="452"/>
			<point x="488" y="452" type="curve" smooth="yes"/>
			<point x="394" y="452"/>
			<point x="333" y="432"/>
			<point x="333" y="315" type="curve" smooth="yes"/>
			<point x="333" y="291"/>
			<point x="336" y="263"/>
			<point x="343" y="238" type="curve"/>
			<point x="453" y="238" type="line"/>
			<point x="453" y="240" type="line"/>
			<point x="449" y="257"/>
			<point x="446" y="277"/>
			<point x="446" y="295" type="curve" smooth="yes"/>
			<point x="446" y="341"/>
			<point x="454" y="356"/>
			<point x="487" y="356" type="curve" smooth="yes"/>
			<point x="520" y="356"/>
			<point x="530" y="341"/>
			<point x="530" y="295" type="curve" smooth="yes"/>
			<point x="530" y="252"/>
			<point x="529" y="203"/>
			<point x="513" y="176" type="curve" smooth="yes"/>
			<point x="492" y="140"/>
			<point x="439" y="122"/>
			<point x="344" y="122" type="curve" smooth="yes"/>
			<point x="219" y="122"/>
			<point x="182" y="142"/>
			<point x="182" y="187" type="curve" smooth="yes"/>
			<point x="182" y="230"/>
			<point x="207" y="243"/>
			<point x="279" y="243" type="curve" smooth="yes"/>
			<point x="285" y="243" type="line"/>
			<point x="285" y="359" type="line"/>
			<point x="279" y="359" type="line" smooth="yes"/>
			<point x="199" y="359"/>
			<point x="174" y="378"/>
			<point x="174" y="429" type="curve" smooth="yes"/>
			<point x="174" y="480"/>
			<point x="199" y="500"/>
			<point x="259" y="500" type="curve"/>
			<point x="259" y="606" type="line"/>
			<point x="74" y="502" type="line"/>
			<point x="74" y="498" type="line"/>
			<point x="49" y="488"/>
			<point x="26" y="453"/>
		</contour>
	</outline>
	<anchor name="blwm.virama" x="447" y="-341"/>
	<anchor name="abvm.bindu" x="575" y="607"/>
	<anchor name="blwm.u" x="489" y="-375"/>
	<anchor name="abvm.e" x="576" y="607"/>
</glyph>
<glyph name="dvC_CH_VA" format="2">
	<advance width="1109"/>
	<outline>
		<contour>
			<point x="873" y="-285" type="line"/>
			<point x="1011" y="-285" type="line"/>
			<point x="1011" y="97" type="line"/>
			<point x="873" y="97" type="line"/>
		</contour>
		<contour>
			<point x="367" y="500" type="line"/>
			<point x="1154" y="500" type="line"/>
			<point x="1154" y="607" type="line"/>
			<point x="367" y="607" type="line"/>
		</contour>
		<contour>
			<point x="856" y="538" type="line"/>
			<point x="856" y="397" type="line"/>
			<point x="994" y="397" type="line"/>
			<point x="994" y="538" type="line"/>
		</contour>
		<contour>
			<point x="453" y="410" type="curve" smooth="yes"/>
			<point x="453" y="349"/>
			<point x="493" y="306"/>
			<point x="569" y="303" type="curve"/>
			<point x="569" y="299" type="line"/>
			<point x="493" y="289"/>
			<point x="461" y="246"/>
			<point x="461" y="173" type="curve" smooth="yes"/>
			<point x="461" y="103"/>
			<point x="503" y="54"/>
			<point x="564" y="41" type="curve"/>
			<point x="564" y="39" type="line"/>
			<point x="532" y="18"/>
			<point x="513" y="-21"/>
			<point x="513" y="-74" type="curve" smooth="yes"/>
			<point x="513" y="-184"/>
			<point x="563" y="-238"/>
			<point x="719" y="-238" type="curve" smooth="yes"/>
			<point x="772" y="-238"/>
			<point x="833" y="-231"/>
			<point x="869" y="-219" type="curve"/>
			<point x="873" y="-222" type="line"/>
			<point x="906" y="-209" type="line"/>
			<point x="880" y="-101" type="line"/>
			<point x="850" y="-115"/>
			<point x="810" y="-122"/>
			<point x="757" y="-122" type="curve" smooth="yes"/>
			<point x="677" y="-122"/>
			<point x="648" y="-107"/>
			<point x="648" y="-58" type="curve" smooth="yes"/>
			<point x="648" y="-15"/>
			<point x="664" y="2"/>
			<point x="718" y="2" type="curve" smooth="yes"/>
			<point x="735" y="2"/>
			<point x="754" y="1"/>
			<point x="774" y="1" type="curve" smooth="yes"/>
			<point x="1041" y="1"/>
			<point x="1083" y="111"/>
			<point x="1083" y="280" type="curve" smooth="yes"/>
			<point x="1083" y="421"/>
			<point x="1034" y="452"/>
			<point x="915" y="452" type="curve" smooth="yes"/>
			<point x="821" y="452"/>
			<point x="760" y="432"/>
			<point x="760" y="315" type="curve" smooth="yes"/>
			<point x="760" y="291"/>
			<point x="763" y="263"/>
			<point x="770" y="238" type="curve"/>
			<point x="880" y="238" type="line"/>
			<point x="880" y="240" type="line"/>
			<point x="876" y="257"/>
			<point x="873" y="277"/>
			<point x="873" y="295" type="curve" smooth="yes"/>
			<point x="873" y="341"/>
			<point x="881" y="356"/>
			<point x="914" y="356" type="curve" smooth="yes"/>
			<point x="947" y="356"/>
			<point x="957" y="341"/>
			<point x="957" y="295" type="curve" smooth="yes"/>
			<point x="957" y="252"/>
			<point x="956" y="203"/>
			<point x="940" y="176" type="curve" smooth="yes"/>
			<point x="919" y="140"/>
			<point x="866" y="122"/>
			<point x="771" y="122" type="curve" smooth="yes"/>
			<point x="646" y="122"/>
			<point x="609" y="142"/>
			<point x="609" y="187" type="curve" smooth="yes"/>
			<point x="609" y="230"/>
			<point x="634" y="243"/>
			<point x="706" y="243" type="curve" smooth="yes"/>
			<point x="712" y="243" type="line"/>
			<point x="712" y="359" type="line"/>
			<point x="706" y="359" type="line" smooth="yes"/>
			<point x="626" y="359"/>
			<point x="601" y="378"/>
			<point x="601" y="429" type="curve" smooth="yes"/>
			<point x="601" y="480"/>
			<point x="626" y="500"/>
			<point x="686" y="500" type="curve"/>
			<point x="686" y="606" type="line"/>
			<point x="501" y="502" type="line"/>
			<point x="501" y="498" type="line"/>
			<point x="476" y="488"/>
			<point x="453" y="453"/>
		</contour>
		<component base="dvC"/>
	</outline>
	<anchor name="blwm.virama" x="874" y="-341"/>
	<anchor name="abvm.bindu" x="1002" y="607"/>
	<anchor name="blwm.u" x="916" y="-375"/>
	<anchor name="abvm.e" x="1003" y="607"/>
</glyph>
<glyph name="dvC_NA" format="2">
	<advance width="1013"/>
	<outline>
		<contour>
			<point x="296" y="84" type="curve" smooth="yes"/>
			<point x="164" y="84"/>
			<point x="84" y="125"/>
			<point x="84" y="221" type="curve" smooth="yes"/>
			<point x="84" y="265"/>
			<point x="97" y="290"/>
			<point x="115" y="304" type="curve"/>
			<point x="113" y="307" type="line"/>
			<point x="90" y="299"/>
			<point x="53" y="292"/>
			<point x="13" y="292" type="curve"/>
			<point x="13" y="423" type="line"/>
			<point x="352" y="423" type="line"/>
			<point x="352" y="317" type="line"/>
			<point x="272" y="317" type="line" smooth="yes"/>
			<point x="244" y="317"/>
			<point x="225" y="307"/>
			<point x="225" y="270" type="curve" smooth="yes"/>
			<point x="225" y="227"/>
			<point x="244" y="213"/>
			<point x="335" y="211" type="curve" smooth="yes"/>
			<point x="418" y="209"/>
			<point x="474" y="224"/>
			<point x="518" y="255" type="curve"/>
			<point x="541" y="136" type="line"/>
			<point x="476" y="102"/>
			<point x="398" y="84"/>
		</contour>
		<contour>
			<point x="-35" y="500" type="line"/>
			<point x="-35" y="607" type="line"/>
			<point x="502" y="607" type="line"/>
			<point x="502" y="500" type="line"/>
		</contour>
		<contour>
			<point x="804" y="9" type="line"/>
			<point x="804" y="501" type="line"/>
			<point x="953" y="501" type="line"/>
			<point x="953" y="9" type="line"/>
		</contour>
		<contour>
			<point x="367" y="500" type="line"/>
			<point x="367" y="607" type="line"/>
			<point x="1053" y="607" type="line"/>
			<point x="1053" y="500" type="line"/>
		</contour>
		<contour>
			<point x="564" y="228" type="line"/>
			<point x="564" y="340" type="line"/>
			<point x="922" y="341" type="line"/>
			<point x="922" y="229" type="line"/>
		</contour>
		<contour>
			<point x="552" y="340" type="curve"/>
			<point x="660" y="340" type="line"/>
			<point x="660" y="243" type="line" smooth="yes"/>
			<point x="660" y="149"/>
			<point x="639" y="138"/>
			<point x="549" y="138" type="curve" smooth="yes"/>
			<point x="462" y="138"/>
			<point x="441" y="157"/>
			<point x="441" y="239" type="curve" smooth="yes"/>
			<point x="441" y="328"/>
			<point x="463" y="340"/>
		</contour>
	</outline>
	<anchor name="blwm" x="886" y="0"/>
</glyph>
<glyph name="dvDA" format="2">
	<advance width="551"/>
	<outline>
		<contour>
			<point x="359" y="321" type="line"/>
			<point x="359" y="501" type="line"/>
			<point x="491" y="501" type="line"/>
			<point x="491" y="321" type="line"/>
		</contour>
		<contour>
			<point x="-60" y="500" type="line"/>
			<point x="-60" y="607" type="line"/>
			<point x="591" y="607" type="line"/>
			<point x="591" y="500" type="line"/>
		</contour>
		<contour>
			<point x="26" y="253" type="curve" smooth="yes"/>
			<point x="26" y="388"/>
			<point x="87" y="435"/>
			<point x="246" y="435" type="curve" smooth="yes"/>
			<point x="333" y="435"/>
			<point x="441" y="434"/>
			<point x="471" y="431" type="curve"/>
			<point x="471" y="321" type="line"/>
			<point x="263" y="321" type="line" smooth="yes"/>
			<point x="181" y="321"/>
			<point x="162" y="306"/>
			<point x="162" y="247" type="curve" smooth="yes"/>
			<point x="162" y="189"/>
			<point x="182" y="179"/>
			<point x="274" y="179" type="curve" smooth="yes"/>
			<point x="359" y="179"/>
			<point x="380" y="191"/>
			<point x="380" y="218" type="curve" smooth="yes"/>
			<point x="380" y="250" type="line"/>
			<point x="496" y="250" type="line"/>
			<point x="496" y="9" type="line"/>
			<point x="352" y="9" type="line"/>
			<point x="352" y="49"/>
			<point x="355" y="68"/>
			<point x="362" y="87" type="curve"/>
			<point x="359" y="89" type="line"/>
			<point x="332" y="74"/>
			<point x="285" y="65"/>
			<point x="226" y="65" type="curve" smooth="yes"/>
			<point x="93" y="65"/>
			<point x="26" y="116"/>
		</contour>
	</outline>
</glyph>
<glyph name="dvDDA" format="2">
	<advance width="518"/>
	<outline>
		<contour>
			<point x="349" y="347" type="line"/>
			<point x="349" y="501" type="line"/>
			<point x="467" y="501" type="line"/>
			<point x="467" y="347" type="line"/>
		</contour>
		<contour>
			<point x="-30" y="500" type="line"/>
			<point x="-30" y="607" type="line"/>
			<point x="558" y="607" type="line"/>
			<point x="558" y="500" type="line"/>
		</contour>
		<contour>
			<point x="39" y="19" type="curve"/>
			<point x="39" y="132" type="line"/>
			<point x="44" y="135" type="line"/>
			<point x="102" y="122"/>
			<point x="175" y="113"/>
			<point x="241" y="113" type="curve" smooth="yes"/>
			<point x="338" y="113"/>
			<point x="355" y="119"/>
			<point x="355" y="149" type="curve" smooth="yes"/>
			<point x="355" y="176"/>
			<point x="347" y="185"/>
			<point x="261" y="185" type="curve" smooth="yes"/>
			<point x="220" y="185" type="line" smooth="yes"/>
			<point x="89" y="185"/>
			<point x="46" y="223"/>
			<point x="46" y="314" type="curve" smooth="yes"/>
			<point x="46" y="412"/>
			<point x="98" y="447"/>
			<point x="219" y="447" type="curve" smooth="yes"/>
			<point x="467" y="447" type="line"/>
			<point x="467" y="341" type="line"/>
			<point x="237" y="341" type="line" smooth="yes"/>
			<point x="196" y="341"/>
			<point x="187" y="335"/>
			<point x="187" y="311" type="curve" smooth="yes"/>
			<point x="187" y="289"/>
			<point x="196" y="281"/>
			<point x="237" y="281" type="curve" smooth="yes"/>
			<point x="288" y="281" type="line" smooth="yes"/>
			<point x="452" y="281"/>
			<point x="496" y="251"/>
			<point x="496" y="145" type="curve" smooth="yes"/>
			<point x="496" y="31"/>
			<point x="427" y="-1"/>
			<point x="271" y="-1" type="curve" smooth="yes"/>
			<point x="176" y="-1"/>
			<point x="92" y="9"/>
		</contour>
	</outline>
	<anchor name="blwm.virama" x="207" y="-56"/>
	<anchor name="abvm.bindu" x="454" y="607"/>
	<anchor name="blwm.u" x="277" y="-86"/>
	<anchor name="abvm.e" x="452" y="607"/>
</glyph>
<glyph name="dvDDH_DDHA" format="2">
	<advance width="594"/>
	<outline>
		<contour>
			<point x="410" y="333" type="line"/>
			<point x="410" y="511" type="line"/>
			<point x="528" y="511" type="line"/>
			<point x="528" y="333" type="line"/>
		</contour>
		<contour>
			<point x="-20" y="500" type="line"/>
			<point x="-20" y="607" type="line"/>
			<point x="639" y="607" type="line"/>
			<point x="639" y="500" type="line"/>
		</contour>
		<contour>
			<point x="40" y="-53" type="curve" smooth="yes"/>
			<point x="40" y="27"/>
			<point x="60" y="71"/>
			<point x="102" y="94" type="curve"/>
			<point x="102" y="96" type="line"/>
			<point x="64" y="108"/>
			<point x="40" y="156"/>
			<point x="40" y="235" type="curve" smooth="yes"/>
			<point x="40" y="405"/>
			<point x="104" y="445"/>
			<point x="255" y="445" type="curve" smooth="yes"/>
			<point x="289" y="445"/>
			<point x="475" y="444"/>
			<point x="508" y="441" type="curve"/>
			<point x="508" y="333" type="line"/>
			<point x="300" y="333" type="line" smooth="yes"/>
			<point x="191" y="333"/>
			<point x="176" y="318"/>
			<point x="176" y="238" type="curve" smooth="yes"/>
			<point x="176" y="158"/>
			<point x="201" y="143"/>
			<point x="292" y="143" type="curve" smooth="yes"/>
			<point x="400" y="143"/>
			<point x="414" y="147"/>
			<point x="414" y="176" type="curve" smooth="yes"/>
			<point x="414" y="197"/>
			<point x="408" y="207"/>
			<point x="344" y="207" type="curve" smooth="yes"/>
			<point x="314" y="207"/>
			<point x="274" y="203"/>
			<point x="241" y="198" type="curve"/>
			<point x="238" y="200" type="line"/>
			<point x="238" y="277" type="line"/>
			<point x="285" y="287"/>
			<point x="340" y="292"/>
			<point x="383" y="292" type="curve" smooth="yes"/>
			<point x="518" y="292"/>
			<point x="551" y="269"/>
			<point x="551" y="176" type="curve" smooth="yes"/>
			<point x="551" y="76"/>
			<point x="513" y="44"/>
			<point x="306" y="44" type="curve" smooth="yes"/>
			<point x="269" y="44" type="line"/>
			<point x="187" y="41"/>
			<point x="176" y="22"/>
			<point x="176" y="-50" type="curve" smooth="yes"/>
			<point x="176" y="-130"/>
			<point x="201" y="-145"/>
			<point x="302" y="-145" type="curve" smooth="yes"/>
			<point x="410" y="-145"/>
			<point x="424" y="-140"/>
			<point x="424" y="-112" type="curve" smooth="yes"/>
			<point x="424" y="-95"/>
			<point x="418" y="-85"/>
			<point x="354" y="-85" type="curve" smooth="yes"/>
			<point x="324" y="-85"/>
			<point x="284" y="-89"/>
			<point x="251" y="-94" type="curve"/>
			<point x="248" y="-92" type="line"/>
			<point x="248" y="-12" type="line"/>
			<point x="295" y="-2"/>
			<point x="350" y="3"/>
			<point x="393" y="3" type="curve" smooth="yes"/>
			<point x="528" y="3"/>
			<point x="561" y="-20"/>
			<point x="561" y="-112" type="curve" smooth="yes"/>
			<point x="561" y="-221"/>
			<point x="502" y="-244"/>
			<point x="305" y="-244" type="curve" smooth="yes"/>
			<point x="98" y="-244"/>
			<point x="40" y="-209"/>
		</contour>
	</outline>
	<anchor name="blwm.virama" x="221" y="-291"/>
	<anchor name="abvm.bindu" x="528" y="607"/>
	<anchor name="blwm.u" x="321" y="-324"/>
	<anchor name="abvm.e" x="526" y="607"/>
</glyph>
<glyph name="dvDDH_RA" format="2">
	<advance width="562"/>
	<outline>
		<contour>
			<point x="368" y="323" type="line"/>
			<point x="368" y="501" type="line"/>
			<point x="496" y="501" type="line"/>
			<point x="496" y="323" type="line"/>
		</contour>
		<contour>
			<point x="-30" y="500" type="line"/>
			<point x="-30" y="607" type="line"/>
			<point x="607" y="607" type="line"/>
			<point x="607" y="500" type="line"/>
		</contour>
		<contour>
			<point x="245" y="164" type="curve"/>
			<point x="242" y="166" type="line"/>
			<point x="242" y="262" type="line"/>
			<point x="284" y="272"/>
			<point x="342" y="277"/>
			<point x="380" y="277" type="curve" smooth="yes"/>
			<point x="500" y="277"/>
			<point x="537" y="244"/>
			<point x="537" y="141" type="curve" smooth="yes"/>
			<point x="537" y="41"/>
			<point x="480" y="8"/>
			<point x="293" y="8" type="curve" smooth="yes"/>
			<point x="80" y="8"/>
			<point x="30" y="43"/>
			<point x="30" y="215" type="curve" smooth="yes"/>
			<point x="30" y="395"/>
			<point x="89" y="435"/>
			<point x="257" y="435" type="curve" smooth="yes"/>
			<point x="287" y="435"/>
			<point x="461" y="434"/>
			<point x="490" y="431" type="curve"/>
			<point x="490" y="323" type="line"/>
			<point x="297" y="323" type="line" smooth="yes"/>
			<point x="181" y="323"/>
			<point x="168" y="304"/>
			<point x="168" y="216" type="curve" smooth="yes"/>
			<point x="168" y="124"/>
			<point x="190" y="109"/>
			<point x="290" y="109" type="curve" smooth="yes"/>
			<point x="395" y="109"/>
			<point x="407" y="114"/>
			<point x="407" y="141" type="curve" smooth="yes"/>
			<point x="407" y="163"/>
			<point x="402" y="173"/>
			<point x="336" y="173" type="curve" smooth="yes"/>
			<point x="309" y="173"/>
			<point x="274" y="169"/>
		</contour>
		<contour>
			<point x="246" y="-110" type="line"/>
			<point x="97" y="-110" type="line"/>
			<point x="97" y="-106" type="line"/>
			<point x="181" y="51" type="line"/>
			<point x="181" y="52" type="line"/>
			<point x="188" y="70" type="line"/>
			<point x="386" y="70" type="line"/>
			<point x="395" y="54" type="line"/>
			<point x="395" y="52" type="line"/>
			<point x="487" y="-106" type="line"/>
			<point x="487" y="-110" type="line"/>
			<point x="338" y="-110" type="line"/>
			<point x="292" y="11" type="line"/>
			<point x="290" y="11" type="line"/>
		</contour>
	</outline>
	<anchor name="blwm.virama" x="229" y="-161"/>
	<anchor name="abvm.bindu" x="494" y="607"/>
	<anchor name="blwm.u" x="317" y="-181"/>
	<anchor name="abvm.e" x="485" y="607"/>
</glyph>
<glyph name="dvDDH_VA" format="2">
	<advance width="594"/>
	<outline>
		<contour>
			<point x="254" y="-191" type="curve" smooth="yes"/>
			<point x="307" y="-191"/>
			<point x="368" y="-184"/>
			<point x="404" y="-172" type="curve"/>
			<point x="408" y="-175" type="line"/>
			<point x="441" y="-162" type="line"/>
			<point x="414" y="-65" type="line"/>
			<point x="381" y="-77"/>
			<point x="345" y="-81"/>
			<point x="292" y="-81" type="curve" smooth="yes"/>
			<point x="212" y="-81"/>
			<point x="183" y="-72"/>
			<point x="183" y="-32" type="curve" smooth="yes"/>
			<point x="183" y="8"/>
			<point x="203" y="22"/>
			<point x="296" y="20" type="curve" smooth="yes"/>
			<point x="348" y="19"/>
			<point x="390" y="22"/>
			<point x="424" y="27" type="curve" smooth="yes"/>
			<point x="524" y="42"/>
			<point x="551" y="77"/>
			<point x="551" y="159" type="curve" smooth="yes"/>
			<point x="551" y="253"/>
			<point x="518" y="283"/>
			<point x="383" y="283" type="curve" smooth="yes"/>
			<point x="340" y="283"/>
			<point x="285" y="278"/>
			<point x="238" y="268" type="curve"/>
			<point x="238" y="189" type="line"/>
			<point x="241" y="187" type="line"/>
			<point x="274" y="192"/>
			<point x="314" y="196"/>
			<point x="344" y="196" type="curve" smooth="yes"/>
			<point x="408" y="196"/>
			<point x="414" y="179"/>
			<point x="414" y="159" type="curve" smooth="yes"/>
			<point x="414" y="125"/>
			<point x="400" y="121"/>
			<point x="292" y="121" type="curve" smooth="yes"/>
			<point x="196" y="121"/>
			<point x="171" y="140"/>
			<point x="171" y="226" type="curve" smooth="yes"/>
			<point x="171" y="314"/>
			<point x="186" y="333"/>
			<point x="300" y="333" type="curve" smooth="yes"/>
			<point x="508" y="333" type="line"/>
			<point x="508" y="441" type="line"/>
			<point x="475" y="444"/>
			<point x="289" y="445"/>
			<point x="255" y="445" type="curve" smooth="yes"/>
			<point x="97" y="445"/>
			<point x="33" y="395"/>
			<point x="33" y="225" type="curve" smooth="yes"/>
			<point x="33" y="132"/>
			<point x="60" y="85"/>
			<point x="92" y="72" type="curve"/>
			<point x="92" y="70" type="line"/>
			<point x="66" y="53"/>
			<point x="46" y="22"/>
			<point x="46" y="-40" type="curve" smooth="yes"/>
			<point x="46" y="-138"/>
			<point x="103" y="-191"/>
		</contour>
		<contour>
			<point x="398" y="-226" type="line"/>
			<point x="529" y="-226" type="line"/>
			<point x="529" y="102" type="line"/>
			<point x="398" y="102" type="line"/>
		</contour>
		<contour>
			<point x="-30" y="500" type="line"/>
			<point x="639" y="500" type="line"/>
			<point x="639" y="607" type="line"/>
			<point x="-30" y="607" type="line"/>
		</contour>
		<contour>
			<point x="410" y="333" type="line"/>
			<point x="528" y="333" type="line"/>
			<point x="528" y="511" type="line"/>
			<point x="410" y="511" type="line"/>
		</contour>
	</outline>
	<anchor name="blwm.virama" x="398" y="-281"/>
	<anchor name="abvm.bindu" x="523" y="607"/>
	<anchor name="blwm.u" x="446" y="-316"/>
	<anchor name="abvm.e" x="524" y="607"/>
</glyph>
<glyph name="dvDD_RA" format="2">
	<advance width="517"/>
	<outline>
		<contour>
			<point x="349" y="344" type="line"/>
			<point x="349" y="501" type="line"/>
			<point x="467" y="501" type="line"/>
			<point x="467" y="344" type="line"/>
		</contour>
		<contour>
			<point x="-30" y="500" type="line"/>
			<point x="-30" y="607" type="line"/>
			<point x="567" y="607" type="line"/>
			<point x="567" y="500" type="line"/>
		</contour>
		<contour>
			<point x="39" y="31" type="curve"/>
			<point x="39" y="138" type="line"/>
			<point x="44" y="141" type="line"/>
			<point x="82" y="123"/>
			<point x="154" y="113"/>
			<point x="241" y="113" type="curve" smooth="yes"/>
			<point x="337" y="113"/>
			<point x="355" y="122"/>
			<point x="355" y="154" type="curve" smooth="yes"/>
			<point x="355" y="186"/>
			<point x="347" y="191"/>
			<point x="261" y="191" type="curve" smooth="yes"/>
			<point x="220" y="191" type="line" smooth="yes"/>
			<point x="92" y="191"/>
			<point x="46" y="218"/>
			<point x="46" y="317" type="curve" smooth="yes"/>
			<point x="46" y="422"/>
			<point x="91" y="447"/>
			<point x="219" y="447" type="curve" smooth="yes"/>
			<point x="467" y="447" type="line"/>
			<point x="467" y="340" type="line"/>
			<point x="237" y="340" type="line" smooth="yes"/>
			<point x="206" y="340"/>
			<point x="197" y="334"/>
			<point x="197" y="308" type="curve" smooth="yes"/>
			<point x="197" y="282"/>
			<point x="206" y="276"/>
			<point x="237" y="276" type="curve" smooth="yes"/>
			<point x="288" y="276" type="line" smooth="yes"/>
			<point x="452" y="276"/>
			<point x="496" y="253"/>
			<point x="496" y="147" type="curve" smooth="yes"/>
			<point x="496" y="33"/>
			<point x="410" y="9"/>
			<point x="241" y="9" type="curve" smooth="yes"/>
			<point x="146" y="9"/>
			<point x="93" y="15"/>
		</contour>
		<contour>
			<point x="216" y="-110" type="line"/>
			<point x="73" y="-110" type="line"/>
			<point x="73" y="-106" type="line"/>
			<point x="157" y="51" type="line"/>
			<point x="157" y="52" type="line"/>
			<point x="164" y="70" type="line"/>
			<point x="350" y="70" type="line"/>
			<point x="359" y="54" type="line"/>
			<point x="359" y="52" type="line"/>
			<point x="451" y="-106" type="line"/>
			<point x="451" y="-110" type="line"/>
			<point x="308" y="-110" type="line"/>
			<point x="262" y="11" type="line"/>
			<point x="260" y="11" type="line"/>
		</contour>
	</outline>
	<anchor name="blwm.virama" x="199" y="-161"/>
	<anchor name="abvm.bindu" x="464" y="607"/>
	<anchor name="blwm.u" x="267" y="-181"/>
	<anchor name="abvm.e" x="465" y="607"/>
</glyph>
<glyph name="dvD_BA" format="2">
	<advance width="576"/>
	<outline>
		<contour>
			<point x="374" y="321" type="line"/>
			<point x="374" y="501" type="line"/>
			<point x="516" y="501" type="line"/>
			<point x="516" y="321" type="line"/>
		</contour>
		<contour>
			<point x="-50" y="500" type="line"/>
			<point x="-50" y="607" type="line"/>
			<point x="616" y="607" type="line"/>
			<point x="616" y="500" type="line"/>
		</contour>
		<contour>
			<point x="433" y="-118" type="line"/>
			<point x="158" y="47" type="line"/>
			<point x="155" y="47" type="line"/>
			<point x="159" y="92" type="line"/>
			<point x="240" y="77" type="line"/>
			<point x="240" y="76" type="line"/>
			<point x="459" y="-56" type="line"/>
		</contour>
		<contour>
			<point x="42" y="-3" type="curve" smooth="yes"/>
			<point x="42" y="60"/>
			<point x="64" y="105"/>
			<point x="104" y="119" type="curve"/>
			<point x="104" y="121" type="line"/>
			<point x="56" y="141"/>
			<point x="36" y="188"/>
			<point x="36" y="253" type="curve" smooth="yes"/>
			<point x="36" y="388"/>
			<point x="97" y="435"/>
			<point x="256" y="435" type="curve" smooth="yes"/>
			<point x="343" y="435"/>
			<point x="451" y="434"/>
			<point x="481" y="431" type="curve"/>
			<point x="481" y="321" type="line"/>
			<point x="273" y="321" type="line" smooth="yes"/>
			<point x="191" y="321"/>
			<point x="172" y="306"/>
			<point x="172" y="246" type="curve" smooth="yes"/>
			<point x="172" y="186"/>
			<point x="192" y="177"/>
			<point x="284" y="177" type="curve" smooth="yes"/>
			<point x="366" y="177"/>
			<point x="385" y="179"/>
			<point x="385" y="226" type="curve" smooth="yes"/>
			<point x="385" y="260" type="line"/>
			<point x="513" y="260" type="line"/>
			<point x="513" y="-6" type="line" smooth="yes"/>
			<point x="513" y="-139"/>
			<point x="443" y="-178"/>
			<point x="284" y="-178" type="curve" smooth="yes"/>
			<point x="109" y="-178"/>
			<point x="42" y="-132"/>
		</contour>
		<contour>
			<point x="167" y="0" type="curve" smooth="yes"/>
			<point x="167" y="-52"/>
			<point x="197" y="-74"/>
			<point x="281" y="-74" type="curve" smooth="yes"/>
			<point x="384" y="-74"/>
			<point x="390" y="-52"/>
			<point x="390" y="-2" type="curve" smooth="yes"/>
			<point x="390" y="90" type="line"/>
			<point x="388" y="91" type="line"/>
			<point x="355" y="80"/>
			<point x="309" y="75"/>
			<point x="250" y="76" type="curve"/>
			<point x="186" y="76"/>
			<point x="167" y="64"/>
		</contour>
	</outline>
	<anchor name="blwm.virama" x="228" y="-236"/>
	<anchor name="blwm.u" x="310" y="-268"/>
</glyph>
<glyph name="dvD_BHA" format="2">
	<advance width="701"/>
	<outline>
		<contour>
			<point x="509" y="321" type="line"/>
			<point x="509" y="501" type="line"/>
			<point x="641" y="501" type="line"/>
			<point x="641" y="321" type="line"/>
		</contour>
		<contour>
			<point x="-35" y="500" type="line"/>
			<point x="-35" y="607" type="line"/>
			<point x="741" y="607" type="line"/>
			<point x="741" y="500" type="line"/>
		</contour>
		<contour>
			<point x="176" y="253" type="curve" smooth="yes"/>
			<point x="176" y="388"/>
			<point x="237" y="435"/>
			<point x="396" y="435" type="curve" smooth="yes"/>
			<point x="483" y="435"/>
			<point x="591" y="434"/>
			<point x="621" y="431" type="curve"/>
			<point x="621" y="321" type="line"/>
			<point x="413" y="321" type="line" smooth="yes"/>
			<point x="331" y="321"/>
			<point x="312" y="306"/>
			<point x="312" y="246" type="curve" smooth="yes"/>
			<point x="312" y="186"/>
			<point x="332" y="177"/>
			<point x="424" y="177" type="curve" smooth="yes"/>
			<point x="509" y="177"/>
			<point x="530" y="179"/>
			<point x="530" y="226" type="curve" smooth="yes"/>
			<point x="530" y="260" type="line"/>
			<point x="646" y="260" type="line"/>
			<point x="646" y="-161" type="line"/>
			<point x="512" y="-161" type="line"/>
			<point x="512" y="78" type="line"/>
			<point x="509" y="80" type="line"/>
			<point x="476" y="70"/>
			<point x="425" y="66"/>
			<point x="366" y="66" type="curve" smooth="yes"/>
			<point x="243" y="66"/>
			<point x="176" y="116"/>
		</contour>
		<contour>
			<point x="299" y="-166" type="line"/>
			<point x="253" y="-78" type="line"/>
			<point x="520" y="76" type="line"/>
			<point x="566" y="-11" type="line"/>
		</contour>
		<contour>
			<point x="67" y="-11" type="curve" smooth="yes"/>
			<point x="26" y="-36" type="line"/>
			<point x="-24" y="51" type="line"/>
			<point x="45" y="89" type="line" smooth="yes"/>
			<point x="120" y="130"/>
			<point x="160" y="104"/>
			<point x="208" y="17" type="curve" smooth="yes"/>
			<point x="293" y="-136" type="line" smooth="yes"/>
			<point x="324" y="-192"/>
			<point x="322" y="-212"/>
			<point x="264" y="-243" type="curve" smooth="yes"/>
			<point x="205" y="-274"/>
			<point x="187" y="-269"/>
			<point x="158" y="-220" type="curve" smooth="yes"/>
			<point x="130" y="-172"/>
			<point x="135" y="-150"/>
			<point x="173" y="-131" type="curve"/>
			<point x="119" y="-36" type="line" smooth="yes"/>
			<point x="103" y="-7"/>
			<point x="91" y="4"/>
		</contour>
	</outline>
	<anchor name="blwm.virama" x="503" y="-221"/>
	<anchor name="blwm.u" x="582" y="-251"/>
</glyph>
<glyph name="dvD_DHA" format="2">
	<advance width="811"/>
	<outline>
		<contour>
			<point x="619" y="321" type="line"/>
			<point x="619" y="501" type="line"/>
			<point x="751" y="501" type="line"/>
			<point x="751" y="321" type="line"/>
		</contour>
		<contour>
			<point x="-40" y="500" type="line"/>
			<point x="-40" y="607" type="line"/>
			<point x="851" y="607" type="line"/>
			<point x="851" y="500" type="line"/>
		</contour>
		<contour>
			<point x="306" y="253" type="curve" smooth="yes"/>
			<point x="306" y="388"/>
			<point x="367" y="435"/>
			<point x="516" y="435" type="curve" smooth="yes"/>
			<point x="593" y="435"/>
			<point x="701" y="434"/>
			<point x="731" y="431" type="curve"/>
			<point x="731" y="321" type="line"/>
			<point x="533" y="321" type="line" smooth="yes"/>
			<point x="461" y="321"/>
			<point x="442" y="306"/>
			<point x="442" y="246" type="curve" smooth="yes"/>
			<point x="442" y="186"/>
			<point x="462" y="177"/>
			<point x="544" y="177" type="curve" smooth="yes"/>
			<point x="619" y="177"/>
			<point x="640" y="189"/>
			<point x="640" y="216" type="curve" smooth="yes"/>
			<point x="640" y="250" type="line"/>
			<point x="756" y="250" type="line"/>
			<point x="756" y="9" type="line"/>
			<point x="612" y="9" type="line"/>
			<point x="612" y="49"/>
			<point x="615" y="68"/>
			<point x="622" y="87" type="curve"/>
			<point x="619" y="89" type="line"/>
			<point x="596" y="75"/>
			<point x="545" y="66"/>
			<point x="496" y="66" type="curve" smooth="yes"/>
			<point x="373" y="66"/>
			<point x="306" y="116"/>
		</contour>
		<contour>
			<point x="247" y="396" type="curve"/>
			<point x="247" y="295" type="line"/>
			<point x="244" y="295"/>
			<point x="241" y="295"/>
			<point x="239" y="295" type="curve" smooth="yes"/>
			<point x="175" y="295"/>
			<point x="161" y="287"/>
			<point x="161" y="262" type="curve" smooth="yes"/>
			<point x="161" y="237"/>
			<point x="179" y="230"/>
			<point x="233" y="230" type="curve" smooth="yes"/>
			<point x="248" y="230" type="line"/>
			<point x="248" y="126" type="line"/>
			<point x="235" y="126" type="line" smooth="yes"/>
			<point x="182" y="126"/>
			<point x="168" y="118"/>
			<point x="168" y="90" type="curve" smooth="yes"/>
			<point x="168" y="56"/>
			<point x="186" y="52"/>
			<point x="271" y="52" type="curve" smooth="yes"/>
			<point x="349" y="52"/>
			<point x="374" y="61"/>
			<point x="374" y="89" type="curve"/>
			<point x="374" y="120" type="line"/>
			<point x="484" y="69" type="line"/>
			<point x="484" y="-17"/>
			<point x="420" y="-54"/>
			<point x="263" y="-54" type="curve" smooth="yes"/>
			<point x="125" y="-54"/>
			<point x="42" y="-20"/>
			<point x="42" y="77" type="curve" smooth="yes"/>
			<point x="42" y="135"/>
			<point x="68" y="166"/>
			<point x="114" y="175" type="curve"/>
			<point x="114" y="179" type="line"/>
			<point x="66" y="189"/>
			<point x="34" y="219"/>
			<point x="34" y="277" type="curve" smooth="yes"/>
			<point x="34" y="351"/>
			<point x="80" y="396"/>
			<point x="209" y="396" type="curve" smooth="yes"/>
			<point x="214" y="396"/>
			<point x="240" y="396"/>
		</contour>
	</outline>
	<anchor name="blwm.u" x="690" y="-81"/>
	<anchor name="abvm" x="551" y="607"/>
</glyph>
<glyph name="dvD_MA" format="2">
	<advance width="787"/>
	<outline>
		<contour>
			<point x="345" y="321" type="line"/>
			<point x="345" y="501" type="line"/>
			<point x="477" y="501" type="line"/>
			<point x="477" y="321" type="line"/>
		</contour>
		<contour>
			<point x="-70" y="500" type="line"/>
			<point x="-70" y="607" type="line"/>
			<point x="827" y="607" type="line"/>
			<point x="827" y="500" type="line"/>
		</contour>
		<contour>
			<point x="2" y="243" type="curve" smooth="yes"/>
			<point x="2" y="378"/>
			<point x="63" y="435"/>
			<point x="232" y="435" type="curve" smooth="yes"/>
			<point x="319" y="435"/>
			<point x="427" y="434"/>
			<point x="457" y="431" type="curve"/>
			<point x="457" y="321" type="line"/>
			<point x="249" y="321" type="line" smooth="yes"/>
			<point x="157" y="321"/>
			<point x="138" y="306"/>
			<point x="138" y="236" type="curve" smooth="yes"/>
			<point x="138" y="166"/>
			<point x="158" y="157"/>
			<point x="250" y="157" type="curve" smooth="yes"/>
			<point x="335" y="157"/>
			<point x="362" y="169"/>
			<point x="362" y="196" type="curve" smooth="yes"/>
			<point x="362" y="240" type="line"/>
			<point x="482" y="240" type="line"/>
			<point x="482" y="-81" type="line"/>
			<point x="348" y="-81" type="line"/>
			<point x="348" y="58" type="line"/>
			<point x="345" y="60" type="line"/>
			<point x="312" y="50"/>
			<point x="261" y="46"/>
			<point x="202" y="46" type="curve" smooth="yes"/>
			<point x="69" y="46"/>
			<point x="2" y="96"/>
		</contour>
		<contour>
			<point x="595" y="-199" type="line"/>
			<point x="595" y="501" type="line"/>
			<point x="727" y="501" type="line"/>
			<point x="727" y="-199" type="line"/>
		</contour>
		<contour>
			<point x="414" y="-50" type="line"/>
			<point x="414" y="57" type="line"/>
			<point x="627" y="57" type="line"/>
			<point x="627" y="-50" type="line"/>
		</contour>
		<contour>
			<point x="386" y="-4" type="curve"/>
			<point x="482" y="-4" type="line"/>
			<point x="482" y="-81" type="line" smooth="yes"/>
			<point x="482" y="-155"/>
			<point x="462" y="-164"/>
			<point x="384" y="-164" type="curve" smooth="yes"/>
			<point x="306" y="-164"/>
			<point x="286" y="-149"/>
			<point x="286" y="-83" type="curve" smooth="yes"/>
			<point x="286" y="-13"/>
			<point x="305" y="-4"/>
		</contour>
	</outline>
	<anchor name="blwm.virama" x="592" y="-253"/>
	<anchor name="blwm.u" x="632" y="-289"/>
</glyph>
<glyph name="dvGx_RA" format="2">
	<advance width="597"/>
	<outline>
		<contour>
			<point x="395" y="292" type="curve"/>
			<point x="431" y="173" type="line"/>
			<point x="385" y="128" type="line"/>
			<point x="382" y="128" type="line"/>
			<point x="292" y="9" type="line"/>
			<point x="126" y="9" type="line"/>
			<point x="126" y="13" type="line"/>
			<point x="206" y="102"/>
			<point x="305" y="206"/>
		</contour>
		<contour>
			<point x="385" y="9" type="line"/>
			<point x="385" y="501" type="line"/>
			<point x="533" y="501" type="line"/>
			<point x="533" y="9" type="line"/>
		</contour>
		<contour>
			<point x="-25" y="500" type="line"/>
			<point x="-25" y="607" type="line"/>
			<point x="634" y="607" type="line"/>
			<point x="634" y="500" type="line"/>
		</contour>
		<contour>
			<point x="271" y="512" type="line"/>
			<point x="271" y="320" type="line" smooth="yes"/>
			<point x="271" y="251"/>
			<point x="234" y="199"/>
			<point x="154" y="199" type="curve" smooth="yes"/>
			<point x="110" y="199"/>
			<point x="74" y="207"/>
			<point x="45" y="219" type="curve"/>
			<point x="45" y="331" type="line"/>
			<point x="47" y="331" type="line"/>
			<point x="58" y="328"/>
			<point x="72" y="325"/>
			<point x="85" y="325" type="curve" smooth="yes"/>
			<point x="115" y="325"/>
			<point x="129" y="336"/>
			<point x="129" y="375" type="curve" smooth="yes"/>
			<point x="129" y="513" type="line"/>
		</contour>
		<contour>
			<point x="123" y="163" type="curve"/>
			<point x="125" y="144"/>
			<point x="126" y="130"/>
			<point x="126" y="116" type="curve" smooth="yes"/>
			<point x="126" y="102"/>
			<point x="125" y="88"/>
			<point x="123" y="70" type="curve"/>
			<point x="100" y="65"/>
			<point x="78" y="63"/>
			<point x="56" y="63" type="curve" smooth="yes"/>
			<point x="35" y="63"/>
			<point x="14" y="65"/>
			<point x="-8" y="70" type="curve"/>
			<point x="-11" y="87"/>
			<point x="-12" y="101"/>
			<point x="-12" y="115" type="curve" smooth="yes"/>
			<point x="-12" y="129"/>
			<point x="-11" y="144"/>
			<point x="-8" y="163" type="curve"/>
			<point x="14" y="167"/>
			<point x="36" y="169"/>
			<point x="58" y="169" type="curve" smooth="yes"/>
			<point x="79" y="169"/>
			<point x="101" y="167"/>
		</contour>
	</outline>
</glyph>
<glyph name="dvHA_mUU" format="2">
	<advance width="531"/>
	<outline>
		<contour>
			<point x="-33" y="500" type="line"/>
			<point x="-33" y="607" type="line"/>
			<point x="560" y="607" type="line"/>
			<point x="560" y="500" type="line"/>
		</contour>
		<contour>
			<point x="347" y="370" type="line"/>
			<point x="347" y="517" type="line"/>
			<point x="470" y="517" type="line"/>
			<point x="470" y="370" type="line"/>
		</contour>
		<contour>
			<point x="37" y="122" type="curve" smooth="yes"/>
			<point x="37" y="199"/>
			<point x="68" y="226"/>
			<point x="122" y="236" type="curve"/>
			<point x="122" y="239" type="line"/>
			<point x="70" y="250"/>
			<point x="46" y="280"/>
			<point x="46" y="338" type="curve" smooth="yes"/>
			<point x="46" y="410"/>
			<point x="81" y="449"/>
			<point x="203" y="449" type="curve" smooth="yes"/>
			<point x="470" y="449" type="line"/>
			<point x="470" y="347" type="line"/>
			<point x="244" y="347" type="line" smooth="yes"/>
			<point x="195" y="347"/>
			<point x="183" y="342"/>
			<point x="183" y="315" type="curve" smooth="yes"/>
			<point x="183" y="288"/>
			<point x="195" y="284"/>
			<point x="264" y="284" type="curve" smooth="yes"/>
			<point x="333" y="284" type="line" smooth="yes"/>
			<point x="449" y="284"/>
			<point x="483" y="257"/>
			<point x="483" y="176" type="curve" smooth="yes"/>
			<point x="483" y="144" type="line"/>
			<point x="341" y="144" type="line"/>
			<point x="341" y="152" type="line" smooth="yes"/>
			<point x="341" y="180"/>
			<point x="338" y="185"/>
			<point x="249" y="185" type="curve" smooth="yes"/>
			<point x="190" y="185"/>
			<point x="167" y="175"/>
			<point x="167" y="139" type="curve" smooth="yes"/>
			<point x="167" y="108"/>
			<point x="187" y="91"/>
			<point x="253" y="91" type="curve" smooth="yes"/>
			<point x="268" y="91" type="line" smooth="yes"/>
			<point x="410" y="91"/>
			<point x="507" y="22"/>
			<point x="566" y="-112" type="curve" smooth="yes"/>
			<point x="570" y="-121"/>
			<point x="573" y="-131"/>
			<point x="576" y="-141" type="curve"/>
			<point x="576" y="-148" type="line"/>
			<point x="442" y="-148" type="line"/>
			<point x="421" y="-72"/>
			<point x="352" y="-17"/>
			<point x="279" y="-17" type="curve" smooth="yes"/>
			<point x="220" y="-17"/>
			<point x="212" y="-21"/>
			<point x="212" y="-49" type="curve" smooth="yes"/>
			<point x="212" y="-77"/>
			<point x="228" y="-82"/>
			<point x="257" y="-82" type="curve" smooth="yes"/>
			<point x="276" y="-82"/>
			<point x="301" y="-79"/>
			<point x="315" y="-76" type="curve"/>
			<point x="319" y="-79" type="line"/>
			<point x="338" y="-163" type="line"/>
			<point x="314" y="-172"/>
			<point x="268" y="-180"/>
			<point x="230" y="-180" type="curve" smooth="yes"/>
			<point x="134" y="-180"/>
			<point x="84" y="-150"/>
			<point x="84" y="-54" type="curve" smooth="yes"/>
			<point x="84" y="-23"/>
			<point x="97" y="10"/>
			<point x="116" y="18" type="curve"/>
			<point x="116" y="20" type="line"/>
			<point x="69" y="26"/>
			<point x="37" y="69"/>
		</contour>
	</outline>
</glyph>
<glyph name="dvJHA" format="2">
	<advance width="834"/>
	<outline>
		<contour>
			<point x="388" y="118" type="line"/>
			<point x="388" y="223" type="line"/>
			<point x="675" y="223" type="line"/>
			<point x="675" y="118" type="line"/>
		</contour>
		<contour>
			<point x="389" y="340" type="line"/>
			<point x="389" y="500" type="line"/>
			<point x="507" y="500" type="line"/>
			<point x="507" y="340" type="line"/>
		</contour>
		<contour>
			<point x="626" y="9" type="line"/>
			<point x="626" y="501" type="line"/>
			<point x="774" y="501" type="line"/>
			<point x="774" y="9" type="line"/>
		</contour>
		<contour>
			<point x="-40" y="500" type="line"/>
			<point x="-40" y="607" type="line"/>
			<point x="874" y="607" type="line"/>
			<point x="874" y="500" type="line"/>
		</contour>
		<contour>
			<point x="234" y="447" type="curve" smooth="yes"/>
			<point x="479" y="447" type="line"/>
			<point x="479" y="340" type="line"/>
			<point x="238" y="340" type="line" smooth="yes"/>
			<point x="215" y="340"/>
			<point x="200" y="336"/>
			<point x="200" y="311" type="curve" smooth="yes"/>
			<point x="200" y="286"/>
			<point x="215" y="282"/>
			<point x="238" y="282" type="curve" smooth="yes"/>
			<point x="305" y="282" type="line" smooth="yes"/>
			<point x="457" y="282"/>
			<point x="504" y="256"/>
			<point x="504" y="143" type="curve" smooth="yes"/>
			<point x="504" y="36"/>
			<point x="450" y="0"/>
			<point x="312" y="0" type="curve" smooth="yes"/>
			<point x="256" y="0"/>
			<point x="202" y="7"/>
			<point x="174" y="19" type="curve"/>
			<point x="171" y="16" type="line"/>
			<point x="181" y="-12"/>
			<point x="183" y="-36"/>
			<point x="183" y="-74" type="curve"/>
			<point x="58" y="-74" type="line"/>
			<point x="58" y="157" type="line"/>
			<point x="161" y="157" type="line"/>
			<point x="161" y="149" type="line" smooth="yes"/>
			<point x="161" y="120"/>
			<point x="178" y="113"/>
			<point x="270" y="113" type="curve" smooth="yes"/>
			<point x="349" y="113"/>
			<point x="364" y="120"/>
			<point x="364" y="149" type="curve" smooth="yes"/>
			<point x="364" y="178"/>
			<point x="351" y="185"/>
			<point x="277" y="185" type="curve" smooth="yes"/>
			<point x="222" y="185" type="line" smooth="yes"/>
			<point x="105" y="185"/>
			<point x="60" y="222"/>
			<point x="60" y="318" type="curve" smooth="yes"/>
			<point x="60" y="413"/>
			<point x="112" y="447"/>
		</contour>
	</outline>
</glyph>
<glyph name="dvJH_NA" format="2">
	<advance width="1155"/>
	<outline>
		<contour>
			<point x="400" y="158" type="line"/>
			<point x="400" y="263" type="line"/>
			<point x="727" y="263" type="line"/>
			<point x="727" y="158" type="line"/>
		</contour>
		<contour>
			<point x="946" y="9" type="line"/>
			<point x="946" y="501" type="line"/>
			<point x="1095" y="501" type="line"/>
			<point x="1095" y="9" type="line"/>
		</contour>
		<contour>
			<point x="509" y="500" type="line"/>
			<point x="509" y="607" type="line"/>
			<point x="1195" y="607" type="line"/>
			<point x="1195" y="500" type="line"/>
		</contour>
		<contour>
			<point x="706" y="178" type="line"/>
			<point x="706" y="290" type="line"/>
			<point x="1064" y="291" type="line"/>
			<point x="1064" y="179" type="line"/>
		</contour>
		<contour>
			<point x="694" y="290" type="curve"/>
			<point x="794" y="290" type="line"/>
			<point x="794" y="201" type="line" smooth="yes"/>
			<point x="794" y="114"/>
			<point x="774" y="104"/>
			<point x="691" y="104" type="curve" smooth="yes"/>
			<point x="611" y="104"/>
			<point x="591" y="121"/>
			<point x="591" y="197" type="curve" smooth="yes"/>
			<point x="591" y="279"/>
			<point x="612" y="290"/>
		</contour>
		<contour>
			<point x="407" y="340" type="line"/>
			<point x="405" y="500" type="line"/>
			<point x="523" y="500" type="line"/>
			<point x="523" y="340" type="line"/>
		</contour>
		<contour>
			<point x="-40" y="500" type="line"/>
			<point x="-40" y="607" type="line"/>
			<point x="779" y="607" type="line"/>
			<point x="779" y="500" type="line"/>
		</contour>
		<contour>
			<point x="234" y="447" type="curve" smooth="yes"/>
			<point x="484" y="447" type="line"/>
			<point x="484" y="340" type="line"/>
			<point x="238" y="340" type="line" smooth="yes"/>
			<point x="215" y="340"/>
			<point x="200" y="336"/>
			<point x="200" y="311" type="curve" smooth="yes"/>
			<point x="200" y="286"/>
			<point x="215" y="282"/>
			<point x="238" y="282" type="curve" smooth="yes"/>
			<point x="310" y="282" type="line" smooth="yes"/>
			<point x="462" y="282"/>
			<point x="509" y="256"/>
			<point x="509" y="143" type="curve" smooth="yes"/>
			<point x="509" y="36"/>
			<point x="455" y="0"/>
			<point x="317" y="0" type="curve" smooth="yes"/>
			<point x="258" y="0"/>
			<point x="202" y="7"/>
			<point x="174" y="19" type="curve"/>
			<point x="171" y="16" type="line"/>
			<point x="181" y="-12"/>
			<point x="183" y="-36"/>
			<point x="183" y="-74" type="curve"/>
			<point x="58" y="-74" type="line"/>
			<point x="58" y="157" type="line"/>
			<point x="161" y="157" type="line"/>
			<point x="161" y="149" type="line" smooth="yes"/>
			<point x="161" y="120"/>
			<point x="180" y="113"/>
			<point x="275" y="113" type="curve" smooth="yes"/>
			<point x="354" y="113"/>
			<point x="369" y="120"/>
			<point x="369" y="149" type="curve" smooth="yes"/>
			<point x="369" y="178"/>
			<point x="356" y="185"/>
			<point x="282" y="185" type="curve" smooth="yes"/>
			<point x="222" y="185" type="line" smooth="yes"/>
			<point x="105" y="185"/>
			<point x="60" y="222"/>
			<point x="60" y="318" type="curve" smooth="yes"/>
			<point x="60" y="413"/>
			<point x="112" y="447"/>
		</contour>
	</outline>
	<anchor name="blwm" x="1028" y="0"/>
</glyph>
<glyph name="dvJ_J_VA" format="2">
	<advance width="1439"/>
	<outline>
		<contour>
			<point x="374" y="500" type="line"/>
			<point x="374" y="607" type="line"/>
			<point x="978" y="607" type="line"/>
			<point x="978" y="500" type="line"/>
		</contour>
		<contour>
			<point x="592" y="0" type="curve" smooth="yes"/>
			<point x="525" y="0"/>
			<point x="472" y="8"/>
			<point x="430" y="20" type="curve"/>
			<point x="430" y="134" type="line"/>
			<point x="432" y="135" type="line"/>
			<point x="464" y="127"/>
			<point x="502" y="121"/>
			<point x="549" y="121" type="curve" smooth="yes"/>
			<point x="613" y="121"/>
			<point x="634" y="135"/>
			<point x="634" y="209" type="curve" smooth="yes"/>
			<point x="634" y="269"/>
			<point x="615" y="297"/>
			<point x="533" y="297" type="curve"/>
			<point x="632" y="303" type="line"/>
			<point x="713" y="297" type="line"/>
			<point x="713" y="295" type="line"/>
			<point x="751" y="280"/>
			<point x="770" y="237"/>
			<point x="770" y="180" type="curve" smooth="yes"/>
			<point x="770" y="47"/>
			<point x="732" y="0"/>
		</contour>
		<contour>
			<point x="503" y="297" type="line"/>
			<point x="503" y="403" type="line"/>
			<point x="978" y="403" type="line"/>
			<point x="978" y="297" type="line"/>
			<point x="701" y="297" type="line"/>
			<point x="636" y="297" type="line"/>
			<point x="533" y="297" type="line"/>
		</contour>
		<component base="dvJ"/>
		<component base="dvVA" xOffset="828"/>
	</outline>
</glyph>
<glyph name="dvKHA" format="2">
	<advance width="896"/>
	<outline>
		<contour>
			<point x="-30" y="500" type="line"/>
			<point x="-30" y="607" type="line"/>
			<point x="936" y="607" type="line"/>
			<point x="936" y="500" type="line"/>
		</contour>
		<contour>
			<point x="697" y="9" type="line"/>
			<point x="697" y="164" type="line"/>
			<point x="688" y="174" type="line"/>
			<point x="688" y="501" type="line"/>
			<point x="836" y="501" type="line"/>
			<point x="836" y="9" type="line"/>
		</contour>
		<contour>
			<point x="565" y="150" type="curve"/>
			<point x="558" y="172" type="line"/>
			<point x="692" y="132" type="line"/>
			<point x="644" y="28"/>
			<point x="557" y="-2"/>
			<point x="364" y="-2" type="curve" smooth="yes"/>
			<point x="142" y="-2"/>
			<point x="36" y="67"/>
			<point x="36" y="221" type="curve" smooth="yes"/>
			<point x="36" y="351" type="line"/>
			<point x="81" y="351" type="line" smooth="yes"/>
			<point x="154" y="351"/>
			<point x="187" y="365"/>
			<point x="187" y="433" type="curve" smooth="yes"/>
			<point x="187" y="556" type="line"/>
			<point x="329" y="556" type="line"/>
			<point x="329" y="407" type="line" smooth="yes"/>
			<point x="329" y="294"/>
			<point x="274" y="249"/>
			<point x="178" y="249" type="curve" smooth="yes"/>
			<point x="174" y="249" type="line"/>
			<point x="174" y="222" type="line" smooth="yes"/>
			<point x="174" y="153"/>
			<point x="227" y="112"/>
			<point x="364" y="112" type="curve" smooth="yes"/>
			<point x="448" y="112"/>
			<point x="537" y="119"/>
		</contour>
		<contour>
			<point x="536" y="450" type="curve" smooth="yes"/>
			<point x="577" y="450"/>
			<point x="616" y="445"/>
			<point x="646" y="438" type="curve"/>
			<point x="646" y="346" type="line"/>
			<point x="644" y="345" type="line"/>
			<point x="625" y="348"/>
			<point x="600" y="351"/>
			<point x="573" y="351" type="curve" smooth="yes"/>
			<point x="512" y="351"/>
			<point x="497" y="339"/>
			<point x="497" y="300" type="curve" smooth="yes"/>
			<point x="497" y="252"/>
			<point x="521" y="242"/>
			<point x="577" y="242" type="curve" smooth="yes"/>
			<point x="629" y="242"/>
			<point x="675" y="247"/>
			<point x="709" y="263" type="curve"/>
			<point x="731" y="182" type="line"/>
			<point x="698" y="132" type="line"/>
			<point x="692" y="132" type="line"/>
			<point x="565" y="150" type="line"/>
			<point x="564" y="152" type="line"/>
			<point x="414" y="137"/>
			<point x="363" y="190"/>
			<point x="363" y="305" type="curve" smooth="yes"/>
			<point x="363" y="412"/>
			<point x="410" y="450"/>
		</contour>
	</outline>
	<anchor name="blwm" x="756" y="9"/>
	<anchor name="abvm" x="759" y="607"/>
</glyph>
<glyph name="dvKH_RA" format="2">
	<advance width="927"/>
	<outline>
		<contour>
			<point x="458" y="-50" type="curve"/>
			<point x="458" y="-54" type="line"/>
			<point x="624" y="-54" type="line"/>
			<point x="743" y="138" type="line"/>
			<point x="628" y="138" type="line"/>
			<point x="619" y="116" type="line"/>
			<point x="619" y="113" type="line"/>
			<point x="572" y="77"/>
			<point x="506" y="9"/>
		</contour>
		<contour>
			<point x="-54" y="500" type="line"/>
			<point x="962" y="500" type="line"/>
			<point x="962" y="607" type="line"/>
			<point x="-54" y="607" type="line"/>
		</contour>
		<contour>
			<point x="714" y="9" type="line"/>
			<point x="862" y="9" type="line"/>
			<point x="862" y="501" type="line"/>
			<point x="714" y="501" type="line"/>
		</contour>
		<contour>
			<point x="502" y="138" type="curve"/>
			<point x="504" y="139" type="line"/>
			<point x="533" y="119"/>
			<point x="581" y="115"/>
			<point x="622" y="115" type="curve" smooth="yes"/>
			<point x="653" y="115"/>
			<point x="691" y="121"/>
			<point x="712" y="130" type="curve"/>
			<point x="714" y="129" type="line"/>
			<point x="743" y="139" type="line"/>
			<point x="731" y="240" type="line"/>
			<point x="704" y="224"/>
			<point x="671" y="216"/>
			<point x="623" y="216" type="curve" smooth="yes"/>
			<point x="555" y="216"/>
			<point x="526" y="224"/>
			<point x="526" y="265" type="curve" smooth="yes"/>
			<point x="526" y="306"/>
			<point x="539" y="320"/>
			<point x="597" y="320" type="curve" smooth="yes"/>
			<point x="617" y="320"/>
			<point x="637" y="318"/>
			<point x="655" y="313" type="curve"/>
			<point x="657" y="314" type="line"/>
			<point x="656" y="420" type="line"/>
			<point x="630" y="428"/>
			<point x="601" y="432"/>
			<point x="560" y="432" type="curve" smooth="yes"/>
			<point x="455" y="432"/>
			<point x="405" y="401"/>
			<point x="405" y="268" type="curve"/>
			<point x="405" y="202" type="line"/>
			<point x="404" y="147"/>
			<point x="385" y="129"/>
			<point x="292" y="129" type="curve" smooth="yes"/>
			<point x="192" y="129"/>
			<point x="177" y="143"/>
			<point x="177" y="202" type="curve" smooth="yes"/>
			<point x="177" y="241" type="line"/>
			<point x="181" y="241" type="line" smooth="yes"/>
			<point x="296" y="241"/>
			<point x="351" y="294"/>
			<point x="351" y="407" type="curve" smooth="yes"/>
			<point x="351" y="556" type="line"/>
			<point x="209" y="556" type="line"/>
			<point x="209" y="433" type="line" smooth="yes"/>
			<point x="209" y="365"/>
			<point x="192" y="351"/>
			<point x="86" y="351" type="curve" smooth="yes"/>
			<point x="38" y="351" type="line"/>
			<point x="38" y="201" type="line" smooth="yes"/>
			<point x="38" y="48"/>
			<point x="76" y="6"/>
			<point x="296" y="6" type="curve" smooth="yes"/>
			<point x="466" y="6"/>
			<point x="504" y="63"/>
		</contour>
	</outline>
</glyph>
<glyph name="dvKHx_R" format="2">
	<advance width="697"/>
	<outline>
		<contour>
			<point x="220" y="-59" type="curve"/>
			<point x="222" y="-81"/>
			<point x="223" y="-96"/>
			<point x="223" y="-112" type="curve" smooth="yes"/>
			<point x="223" y="-128"/>
			<point x="222" y="-144"/>
			<point x="220" y="-165" type="curve"/>
			<point x="194" y="-170"/>
			<point x="169" y="-173"/>
			<point x="144" y="-173" type="curve" smooth="yes"/>
			<point x="120" y="-173"/>
			<point x="96" y="-170"/>
			<point x="71" y="-165" type="curve"/>
			<point x="68" y="-145"/>
			<point x="67" y="-129"/>
			<point x="67" y="-113" type="curve" smooth="yes"/>
			<point x="67" y="-98"/>
			<point x="68" y="-81"/>
			<point x="71" y="-59" type="curve"/>
			<point x="96" y="-54"/>
			<point x="121" y="-52"/>
			<point x="146" y="-52" type="curve" smooth="yes"/>
			<point x="170" y="-52"/>
			<point x="195" y="-54"/>
		</contour>
		<component base="dvKH_R"/>
	</outline>
</glyph>
<glyph name="dvK_LA" format="2">
	<advance width="1479"/>
	<outline>
		<contour>
			<point x="193" y="436" type="curve" smooth="yes"/>
			<point x="240" y="436"/>
			<point x="291" y="430"/>
			<point x="328" y="419" type="curve"/>
			<point x="326" y="305" type="line"/>
			<point x="322" y="304" type="line"/>
			<point x="299" y="310"/>
			<point x="272" y="315"/>
			<point x="236" y="315" type="curve" smooth="yes"/>
			<point x="174" y="315"/>
			<point x="160" y="298"/>
			<point x="160" y="248" type="curve" smooth="yes"/>
			<point x="160" y="198"/>
			<point x="174" y="181"/>
			<point x="263" y="181" type="curve" smooth="yes"/>
			<point x="317" y="181"/>
			<point x="361" y="190"/>
			<point x="398" y="210" type="curve"/>
			<point x="386" y="87" type="line"/>
			<point x="384" y="87" type="line"/>
			<point x="354" y="72"/>
			<point x="298" y="62"/>
			<point x="241" y="62" type="curve" smooth="yes"/>
			<point x="76" y="62"/>
			<point x="25" y="108"/>
			<point x="25" y="250" type="curve" smooth="yes"/>
			<point x="25" y="390"/>
			<point x="71" y="436"/>
		</contour>
		<contour>
			<point x="386" y="9" type="line"/>
			<point x="386" y="501" type="line"/>
			<point x="534" y="501" type="line"/>
			<point x="534" y="9" type="line"/>
		</contour>
		<contour>
			<point x="-25" y="500" type="line"/>
			<point x="-25" y="607" type="line"/>
			<point x="863" y="607" type="line"/>
			<point x="863" y="500" type="line"/>
		</contour>
		<contour>
			<point x="865" y="321" type="curve"/>
			<point x="776" y="240" type="line"/>
			<point x="767" y="266"/>
			<point x="738" y="275"/>
			<point x="657" y="275" type="curve" smooth="yes"/>
			<point x="603" y="275"/>
			<point x="559" y="266"/>
			<point x="522" y="246" type="curve"/>
			<point x="534" y="369" type="line"/>
			<point x="536" y="369" type="line"/>
			<point x="566" y="384"/>
			<point x="622" y="394"/>
			<point x="679" y="394" type="curve"/>
			<point x="781" y="394"/>
			<point x="838" y="374"/>
		</contour>
		<component base="dvLA" xOffset="685"/>
	</outline>
</glyph>
<glyph name="dvK_NA" format="2">
	<advance width="1311"/>
	<outline>
		<contour>
			<point x="193" y="436" type="curve" smooth="yes"/>
			<point x="240" y="436"/>
			<point x="291" y="430"/>
			<point x="328" y="419" type="curve"/>
			<point x="326" y="305" type="line"/>
			<point x="322" y="304" type="line"/>
			<point x="299" y="310"/>
			<point x="272" y="315"/>
			<point x="236" y="315" type="curve" smooth="yes"/>
			<point x="174" y="315"/>
			<point x="160" y="298"/>
			<point x="160" y="248" type="curve" smooth="yes"/>
			<point x="160" y="198"/>
			<point x="174" y="181"/>
			<point x="263" y="181" type="curve" smooth="yes"/>
			<point x="317" y="181"/>
			<point x="361" y="190"/>
			<point x="398" y="210" type="curve"/>
			<point x="386" y="87" type="line"/>
			<point x="384" y="87" type="line"/>
			<point x="354" y="72"/>
			<point x="298" y="62"/>
			<point x="241" y="62" type="curve" smooth="yes"/>
			<point x="76" y="62"/>
			<point x="25" y="108"/>
			<point x="25" y="250" type="curve" smooth="yes"/>
			<point x="25" y="390"/>
			<point x="71" y="436"/>
		</contour>
		<contour>
			<point x="386" y="9" type="line"/>
			<point x="386" y="501" type="line"/>
			<point x="534" y="501" type="line"/>
			<point x="534" y="9" type="line"/>
		</contour>
		<contour>
			<point x="-25" y="500" type="line"/>
			<point x="-25" y="607" type="line"/>
			<point x="863" y="607" type="line"/>
			<point x="863" y="500" type="line"/>
		</contour>
		<contour>
			<point x="916" y="298" type="curve"/>
			<point x="776" y="240" type="line"/>
			<point x="767" y="266"/>
			<point x="738" y="275"/>
			<point x="657" y="275" type="curve" smooth="yes"/>
			<point x="603" y="275"/>
			<point x="559" y="266"/>
			<point x="522" y="246" type="curve"/>
			<point x="534" y="369" type="line"/>
			<point x="536" y="369" type="line"/>
			<point x="562" y="382"/>
			<point x="625" y="395"/>
			<point x="692" y="395" type="curve" smooth="yes"/>
			<point x="807" y="395"/>
			<point x="898" y="356"/>
		</contour>
		<contour>
			<point x="1102" y="9" type="line"/>
			<point x="1102" y="501" type="line"/>
			<point x="1251" y="501" type="line"/>
			<point x="1251" y="9" type="line"/>
		</contour>
		<contour>
			<point x="665" y="500" type="line"/>
			<point x="665" y="607" type="line"/>
			<point x="1351" y="607" type="line"/>
			<point x="1351" y="500" type="line"/>
		</contour>
		<contour>
			<point x="862" y="188" type="line"/>
			<point x="862" y="300" type="line"/>
			<point x="1220" y="301" type="line"/>
			<point x="1220" y="189" type="line"/>
		</contour>
		<contour>
			<point x="850" y="300" type="curve"/>
			<point x="950" y="300" type="line"/>
			<point x="950" y="211" type="line" smooth="yes"/>
			<point x="950" y="124"/>
			<point x="930" y="114"/>
			<point x="847" y="114" type="curve" smooth="yes"/>
			<point x="767" y="114"/>
			<point x="747" y="131"/>
			<point x="747" y="207" type="curve" smooth="yes"/>
			<point x="747" y="289"/>
			<point x="768" y="300"/>
		</contour>
	</outline>
</glyph>
<glyph name="dvK_SS_M_YA" format="2">
	<advance width="1646"/>
	<outline>
		<contour>
			<point x="776" y="225" type="line"/>
			<point x="776" y="337" type="line"/>
			<point x="1109" y="338" type="line"/>
			<point x="1109" y="226" type="line"/>
		</contour>
		<contour>
			<point x="726" y="331" type="curve"/>
			<point x="726" y="511" type="line"/>
			<point x="874" y="511" type="line"/>
			<point x="874" y="247" type="line" smooth="yes"/>
			<point x="874" y="160"/>
			<point x="857" y="145"/>
			<point x="765" y="145" type="curve" smooth="yes"/>
			<point x="668" y="145"/>
			<point x="645" y="164"/>
			<point x="645" y="238" type="curve" smooth="yes"/>
			<point x="645" y="313"/>
			<point x="666" y="331"/>
		</contour>
		<contour>
			<point x="1439" y="9" type="line"/>
			<point x="1439" y="501" type="line"/>
			<point x="1587" y="501" type="line"/>
			<point x="1587" y="9" type="line"/>
		</contour>
		<contour>
			<point x="929" y="500" type="line"/>
			<point x="929" y="607" type="line"/>
			<point x="1687" y="607" type="line"/>
			<point x="1687" y="500" type="line"/>
		</contour>
		<contour>
			<point x="1290" y="520" type="line"/>
			<point x="1290" y="422" type="line" smooth="yes"/>
			<point x="1290" y="290"/>
			<point x="1247" y="247"/>
			<point x="1126" y="240" type="curve"/>
			<point x="1131" y="215"/>
			<point x="1173" y="200"/>
			<point x="1283" y="200" type="curve" smooth="yes"/>
			<point x="1371" y="200"/>
			<point x="1434" y="216"/>
			<point x="1488" y="257" type="curve"/>
			<point x="1519" y="146" type="line"/>
			<point x="1494" y="125"/>
			<point x="1472" y="110"/>
			<point x="1439" y="98" type="curve"/>
			<point x="1435" y="100" type="line"/>
			<point x="1388" y="84"/>
			<point x="1336" y="76"/>
			<point x="1269" y="76" type="curve" smooth="yes"/>
			<point x="1088" y="76"/>
			<point x="992" y="138"/>
			<point x="992" y="282" type="curve" smooth="yes"/>
			<point x="992" y="337" type="line"/>
			<point x="1040" y="337" type="line" smooth="yes"/>
			<point x="1133" y="337"/>
			<point x="1148" y="349"/>
			<point x="1148" y="464" type="curve" smooth="yes"/>
			<point x="1148" y="520" type="line"/>
		</contour>
		<contour>
			<point x="579" y="500" type="line"/>
			<point x="579" y="607" type="line"/>
			<point x="1280" y="607" type="line"/>
			<point x="1280" y="500" type="line"/>
		</contour>
		<component base="dvK_SS"/>
	</outline>
</glyph>
<glyph name="dvK_S_DDA" format="2">
	<advance width="1635"/>
	<outline>
		<contour>
			<point x="781" y="230" type="curve"/>
			<point x="729" y="191" type="line"/>
			<point x="729" y="307" type="line"/>
			<point x="781" y="307" type="line"/>
			<point x="849" y="307"/>
			<point x="863" y="335"/>
			<point x="863" y="382" type="curve" smooth="yes"/>
			<point x="863" y="573" type="line"/>
			<point x="1011" y="572" type="line"/>
			<point x="1011" y="422" type="line" smooth="yes"/>
			<point x="1011" y="346"/>
			<point x="988" y="309"/>
			<point x="927" y="284" type="curve"/>
			<point x="919" y="205"/>
			<point x="843" y="199"/>
		</contour>
		<contour>
			<point x="887" y="9" type="line"/>
			<point x="729" y="191" type="line"/>
			<point x="729" y="228" type="line"/>
			<point x="828" y="236" type="line"/>
			<point x="848" y="223"/>
			<point x="862" y="212"/>
			<point x="882" y="195" type="curve"/>
			<point x="882" y="191" type="line"/>
			<point x="947" y="147"/>
			<point x="1014" y="68"/>
			<point x="1053" y="11" type="curve"/>
			<point x="1053" y="9" type="line"/>
		</contour>
		<contour>
			<point x="852" y="195" type="line"/>
			<point x="852" y="309" type="line"/>
			<point x="1272" y="309" type="line"/>
			<point x="1272" y="195" type="line"/>
		</contour>
		<contour>
			<point x="670" y="500" type="line"/>
			<point x="670" y="607" type="line"/>
			<point x="1182" y="607" type="line"/>
			<point x="1182" y="500" type="line"/>
		</contour>
		<contour>
			<point x="193" y="436" type="curve" smooth="yes"/>
			<point x="240" y="436"/>
			<point x="291" y="430"/>
			<point x="328" y="419" type="curve"/>
			<point x="326" y="305" type="line"/>
			<point x="322" y="304" type="line"/>
			<point x="299" y="310"/>
			<point x="272" y="315"/>
			<point x="236" y="315" type="curve" smooth="yes"/>
			<point x="174" y="315"/>
			<point x="160" y="298"/>
			<point x="160" y="248" type="curve" smooth="yes"/>
			<point x="160" y="198"/>
			<point x="174" y="181"/>
			<point x="263" y="181" type="curve" smooth="yes"/>
			<point x="317" y="181"/>
			<point x="361" y="190"/>
			<point x="398" y="210" type="curve"/>
			<point x="386" y="87" type="line"/>
			<point x="384" y="87" type="line"/>
			<point x="354" y="72"/>
			<point x="298" y="62"/>
			<point x="241" y="62" type="curve" smooth="yes"/>
			<point x="76" y="62"/>
			<point x="25" y="108"/>
			<point x="25" y="250" type="curve" smooth="yes"/>
			<point x="25" y="390"/>
			<point x="71" y="436"/>
		</contour>
		<contour>
			<point x="386" y="9" type="line"/>
			<point x="386" y="501" type="line"/>
			<point x="534" y="501" type="line"/>
			<point x="534" y="9" type="line"/>
		</contour>
		<contour>
			<point x="-25" y="500" type="line"/>
			<point x="-25" y="607" type="line"/>
			<point x="863" y="607" type="line"/>
			<point x="863" y="500" type="line"/>
		</contour>
		<contour>
			<point x="915" y="281" type="curve"/>
			<point x="833" y="208" type="line"/>
			<point x="802" y="230"/>
			<point x="747" y="237"/>
			<point x="677" y="237" type="curve" smooth="yes"/>
			<point x="623" y="237"/>
			<point x="561" y="224"/>
			<point x="522" y="206" type="curve"/>
			<point x="534" y="329" type="line"/>
			<point x="536" y="329" type="line"/>
			<point x="574" y="344"/>
			<point x="642" y="354"/>
			<point x="699" y="354" type="curve" smooth="yes"/>
			<point x="747" y="354"/>
			<point x="805" y="346"/>
			<point x="831" y="338" type="curve"/>
			<point x="833" y="338" type="line"/>
			<point x="875" y="326"/>
			<point x="899" y="313"/>
		</contour>
		<contour>
			<point x="1466" y="347" type="line"/>
			<point x="1466" y="501" type="line"/>
			<point x="1584" y="501" type="line"/>
			<point x="1584" y="347" type="line"/>
		</contour>
		<contour>
			<point x="1087" y="500" type="line"/>
			<point x="1087" y="607" type="line"/>
			<point x="1675" y="607" type="line"/>
			<point x="1675" y="500" type="line"/>
		</contour>
		<contour>
			<point x="1156" y="19" type="curve"/>
			<point x="1156" y="132" type="line"/>
			<point x="1161" y="135" type="line"/>
			<point x="1219" y="122"/>
			<point x="1292" y="113"/>
			<point x="1358" y="113" type="curve" smooth="yes"/>
			<point x="1455" y="113"/>
			<point x="1472" y="119"/>
			<point x="1472" y="149" type="curve" smooth="yes"/>
			<point x="1472" y="176"/>
			<point x="1464" y="185"/>
			<point x="1378" y="185" type="curve" smooth="yes"/>
			<point x="1337" y="185" type="line" smooth="yes"/>
			<point x="1206" y="185"/>
			<point x="1163" y="223"/>
			<point x="1163" y="314" type="curve" smooth="yes"/>
			<point x="1163" y="412"/>
			<point x="1215" y="447"/>
			<point x="1336" y="447" type="curve" smooth="yes"/>
			<point x="1584" y="447" type="line"/>
			<point x="1584" y="341" type="line"/>
			<point x="1354" y="341" type="line" smooth="yes"/>
			<point x="1313" y="341"/>
			<point x="1304" y="335"/>
			<point x="1304" y="311" type="curve" smooth="yes"/>
			<point x="1304" y="289"/>
			<point x="1313" y="281"/>
			<point x="1354" y="281" type="curve" smooth="yes"/>
			<point x="1405" y="281" type="line" smooth="yes"/>
			<point x="1569" y="281"/>
			<point x="1613" y="251"/>
			<point x="1613" y="145" type="curve" smooth="yes"/>
			<point x="1613" y="31"/>
			<point x="1544" y="-1"/>
			<point x="1388" y="-1" type="curve" smooth="yes"/>
			<point x="1293" y="-1"/>
			<point x="1209" y="9"/>
		</contour>
	</outline>
	<anchor name="blwm.virama" x="1336" y="-61"/>
	<anchor name="abvm.bindu" x="1583" y="607"/>
	<anchor name="blwm.u" x="1406" y="-91"/>
	<anchor name="abvm.e" x="1581" y="607"/>
</glyph>
<glyph name="dvKxA" format="2">
	<advance width="920"/>
	<outline>
		<contour>
			<point x="234" y="4" type="curve"/>
			<point x="236" y="-18"/>
			<point x="237" y="-32"/>
			<point x="237" y="-48" type="curve" smooth="yes"/>
			<point x="237" y="-63"/>
			<point x="236" y="-79"/>
			<point x="234" y="-99" type="curve"/>
			<point x="209" y="-104"/>
			<point x="184" y="-107"/>
			<point x="160" y="-107" type="curve" smooth="yes"/>
			<point x="137" y="-107"/>
			<point x="113" y="-104"/>
			<point x="89" y="-99" type="curve"/>
			<point x="86" y="-80"/>
			<point x="85" y="-64"/>
			<point x="85" y="-49" type="curve" smooth="yes"/>
			<point x="85" y="-34"/>
			<point x="86" y="-18"/>
			<point x="89" y="4" type="curve"/>
			<point x="113" y="9"/>
			<point x="138" y="11"/>
			<point x="162" y="11" type="curve" smooth="yes"/>
			<point x="185" y="11"/>
			<point x="210" y="9"/>
		</contour>
		<component base="dvKA"/>
	</outline>
</glyph>
<glyph name="dvLA" format="2">
	<advance width="794"/>
	<outline>
		<contour>
			<point x="94" y="9" type="line"/>
			<point x="55" y="81"/>
			<point x="33" y="159"/>
			<point x="33" y="236" type="curve" smooth="yes"/>
			<point x="33" y="366"/>
			<point x="97" y="420"/>
			<point x="218" y="420" type="curve" smooth="yes"/>
			<point x="323" y="420"/>
			<point x="370" y="383"/>
			<point x="379" y="326" type="curve"/>
			<point x="382" y="326" type="line"/>
			<point x="392" y="383"/>
			<point x="426" y="419"/>
			<point x="512" y="419" type="curve" smooth="yes"/>
			<point x="543" y="419"/>
			<point x="568" y="410"/>
			<point x="583" y="393" type="curve"/>
			<point x="585" y="395" type="line"/>
			<point x="599" y="393"/>
			<point x="631" y="374"/>
			<point x="635" y="358" type="curve"/>
			<point x="704" y="333"/>
			<point x="704" y="317"/>
			<point x="706" y="193" type="curve"/>
			<point x="586" y="193" type="line"/>
			<point x="586" y="277"/>
			<point x="567" y="294"/>
			<point x="520" y="294" type="curve" smooth="yes"/>
			<point x="469" y="294"/>
			<point x="452" y="277"/>
			<point x="452" y="193" type="curve" smooth="yes"/>
			<point x="452" y="126" type="line"/>
			<point x="320" y="126" type="line"/>
			<point x="320" y="193" type="line" smooth="yes"/>
			<point x="320" y="274"/>
			<point x="299" y="294"/>
			<point x="252" y="294" type="curve" smooth="yes"/>
			<point x="200" y="294"/>
			<point x="181" y="270"/>
			<point x="181" y="203" type="curve" smooth="yes"/>
			<point x="181" y="138"/>
			<point x="197" y="79"/>
			<point x="236" y="14" type="curve"/>
			<point x="236" y="9" type="line"/>
		</contour>
		<contour>
			<point x="585" y="9" type="line"/>
			<point x="585" y="501" type="line"/>
			<point x="734" y="501" type="line"/>
			<point x="734" y="9" type="line"/>
		</contour>
		<contour>
			<point x="-10" y="500" type="line"/>
			<point x="-10" y="607" type="line"/>
			<point x="834" y="607" type="line"/>
			<point x="834" y="500" type="line"/>
		</contour>
	</outline>
</glyph>
<glyph name="dvLL_YA" format="2">
	<advance width="1391"/>
	<outline>
		<contour>
			<point x="223" y="10" type="curve" smooth="yes"/>
			<point x="89" y="10"/>
			<point x="20" y="50"/>
			<point x="20" y="214" type="curve" smooth="yes"/>
			<point x="20" y="378"/>
			<point x="89" y="418"/>
			<point x="223" y="418" type="curve" smooth="yes"/>
			<point x="372" y="418"/>
			<point x="410" y="389"/>
			<point x="431" y="337" type="curve"/>
			<point x="434" y="337" type="line"/>
			<point x="457" y="389"/>
			<point x="518" y="418"/>
			<point x="637" y="418" type="curve" smooth="yes"/>
			<point x="801" y="418"/>
			<point x="860" y="378"/>
			<point x="860" y="214" type="curve" smooth="yes"/>
			<point x="860" y="51"/>
			<point x="801" y="10"/>
			<point x="637" y="10" type="curve" smooth="yes"/>
			<point x="518" y="10"/>
			<point x="454" y="29"/>
			<point x="434" y="81" type="curve"/>
			<point x="431" y="81" type="line"/>
			<point x="408" y="29"/>
			<point x="372" y="10"/>
		</contour>
		<contour>
			<point x="269" y="126" type="curve" smooth="yes"/>
			<point x="346" y="126"/>
			<point x="370" y="140"/>
			<point x="370" y="213" type="curve" smooth="yes"/>
			<point x="370" y="288"/>
			<point x="346" y="300"/>
			<point x="269" y="300" type="curve" smooth="yes"/>
			<point x="191" y="300"/>
			<point x="158" y="288"/>
			<point x="158" y="213" type="curve" smooth="yes"/>
			<point x="158" y="140"/>
			<point x="191" y="126"/>
		</contour>
		<contour>
			<point x="610" y="126" type="curve" smooth="yes"/>
			<point x="697" y="126"/>
			<point x="721" y="140"/>
			<point x="721" y="213" type="curve" smooth="yes"/>
			<point x="721" y="288"/>
			<point x="697" y="300"/>
			<point x="610" y="300" type="curve" smooth="yes"/>
			<point x="542" y="300"/>
			<point x="509" y="288"/>
			<point x="509" y="213" type="curve" smooth="yes"/>
			<point x="509" y="140"/>
			<point x="542" y="126"/>
		</contour>
		<contour>
			<point x="-30" y="500" type="line"/>
			<point x="-30" y="607" type="line"/>
			<point x="910" y="607" type="line"/>
			<point x="910" y="500" type="line"/>
		</contour>
		<contour>
			<point x="1183" y="9" type="line"/>
			<point x="1183" y="501" type="line"/>
			<point x="1331" y="501" type="line"/>
			<point x="1331" y="9" type="line"/>
		</contour>
		<contour>
			<point x="673" y="500" type="line"/>
			<point x="673" y="607" type="line"/>
			<point x="1431" y="607" type="line"/>
			<point x="1431" y="500" type="line"/>
		</contour>
		<contour>
			<point x="1034" y="520" type="line"/>
			<point x="1034" y="422" type="line" smooth="yes"/>
			<point x="1034" y="320"/>
			<point x="991" y="277"/>
			<point x="870" y="270" type="curve"/>
			<point x="871" y="227"/>
			<point x="917" y="200"/>
			<point x="1027" y="200" type="curve" smooth="yes"/>
			<point x="1115" y="200"/>
			<point x="1178" y="216"/>
			<point x="1232" y="257" type="curve"/>
			<point x="1263" y="146" type="line"/>
			<point x="1238" y="125"/>
			<point x="1216" y="110"/>
			<point x="1183" y="98" type="curve"/>
			<point x="1179" y="100" type="line"/>
			<point x="1132" y="84"/>
			<point x="1080" y="76"/>
			<point x="1013" y="76" type="curve" smooth="yes"/>
			<point x="832" y="76"/>
			<point x="736" y="156"/>
			<point x="736" y="312" type="curve" smooth="yes"/>
			<point x="736" y="367" type="line"/>
			<point x="784" y="367" type="line" smooth="yes"/>
			<point x="877" y="367"/>
			<point x="892" y="379"/>
			<point x="892" y="464" type="curve" smooth="yes"/>
			<point x="892" y="520" type="line"/>
		</contour>
	</outline>
</glyph>
<glyph name="dvL_DDA" format="2">
	<advance width="1033"/>
	<outline>
		<contour>
			<point x="-10" y="500" type="line"/>
			<point x="-10" y="607" type="line"/>
			<point x="622" y="607" type="line"/>
			<point x="622" y="500" type="line"/>
		</contour>
		<contour>
			<point x="667" y="347" type="curve"/>
			<point x="587" y="273" type="line"/>
			<point x="577" y="289"/>
			<point x="559" y="294"/>
			<point x="527" y="294" type="curve" smooth="yes"/>
			<point x="475" y="294"/>
			<point x="450" y="274"/>
			<point x="450" y="193" type="curve" smooth="yes"/>
			<point x="450" y="126" type="line"/>
			<point x="318" y="126" type="line"/>
			<point x="318" y="193" type="line" smooth="yes"/>
			<point x="318" y="274"/>
			<point x="297" y="294"/>
			<point x="251" y="294" type="curve" smooth="yes"/>
			<point x="201" y="294"/>
			<point x="178" y="274"/>
			<point x="178" y="203" type="curve" smooth="yes"/>
			<point x="178" y="138"/>
			<point x="191" y="75"/>
			<point x="216" y="14" type="curve"/>
			<point x="216" y="9" type="line"/>
			<point x="82" y="9" type="line"/>
			<point x="50" y="82"/>
			<point x="35" y="159"/>
			<point x="35" y="236" type="curve" smooth="yes"/>
			<point x="35" y="362"/>
			<point x="91" y="420"/>
			<point x="214" y="420" type="curve" smooth="yes"/>
			<point x="318" y="420"/>
			<point x="368" y="383"/>
			<point x="377" y="326" type="curve"/>
			<point x="380" y="326" type="line"/>
			<point x="390" y="380"/>
			<point x="430" y="419"/>
			<point x="514" y="419" type="curve" smooth="yes"/>
			<point x="599" y="419"/>
			<point x="642" y="384"/>
			<point x="648" y="358" type="curve"/>
			<point x="655" y="354"/>
			<point x="662" y="351"/>
		</contour>
		<component base="dvDDA" xOffset="535"/>
	</outline>
	<anchor name="blwm.virama" x="734" y="-56"/>
	<anchor name="abvm.bindu" x="981" y="607"/>
	<anchor name="blwm.u" x="804" y="-86"/>
	<anchor name="abvm.e" x="979" y="607"/>
</glyph>
<glyph name="dvL_GA" format="2">
	<advance width="1124"/>
	<outline>
		<contour>
			<point x="514" y="420" type="curve"/>
			<point x="653" y="420" type="line"/>
			<point x="653" y="304" type="line"/>
			<point x="642" y="304"/>
			<point x="580" y="304"/>
			<point x="567" y="304" type="curve" smooth="yes"/>
			<point x="485" y="304"/>
			<point x="450" y="279"/>
			<point x="450" y="193" type="curve" smooth="yes"/>
			<point x="450" y="156" type="line"/>
			<point x="318" y="156" type="line"/>
			<point x="318" y="193" type="line" smooth="yes"/>
			<point x="318" y="274"/>
			<point x="297" y="294"/>
			<point x="251" y="294" type="curve" smooth="yes"/>
			<point x="201" y="294"/>
			<point x="178" y="274"/>
			<point x="178" y="203" type="curve" smooth="yes"/>
			<point x="178" y="138"/>
			<point x="191" y="75"/>
			<point x="216" y="14" type="curve"/>
			<point x="216" y="9" type="line"/>
			<point x="82" y="9" type="line"/>
			<point x="50" y="82"/>
			<point x="35" y="159"/>
			<point x="35" y="236" type="curve" smooth="yes"/>
			<point x="35" y="362"/>
			<point x="91" y="420"/>
			<point x="214" y="420" type="curve" smooth="yes"/>
			<point x="318" y="420"/>
			<point x="368" y="383"/>
			<point x="377" y="326" type="curve"/>
			<point x="380" y="326" type="line"/>
			<point x="390" y="380"/>
			<point x="430" y="420"/>
		</contour>
		<contour>
			<point x="-10" y="500" type="line"/>
			<point x="-10" y="607" type="line"/>
			<point x="622" y="607" type="line"/>
			<point x="622" y="500" type="line"/>
		</contour>
		<component base="dvGA" xOffset="540"/>
	</outline>
	<anchor name="abvm" x="998" y="607"/>
</glyph>
<glyph name="dvL_HA" format="2">
	<advance width="1047"/>
	<outline>
		<contour>
			<point x="-10" y="500" type="line"/>
			<point x="-10" y="607" type="line"/>
			<point x="622" y="607" type="line"/>
			<point x="622" y="500" type="line"/>
		</contour>
		<contour>
			<point x="669" y="345" type="curve"/>
			<point x="590" y="267" type="line"/>
			<point x="581" y="288"/>
			<point x="563" y="294"/>
			<point x="527" y="294" type="curve" smooth="yes"/>
			<point x="475" y="294"/>
			<point x="450" y="274"/>
			<point x="450" y="193" type="curve" smooth="yes"/>
			<point x="450" y="126" type="line"/>
			<point x="318" y="126" type="line"/>
			<point x="318" y="193" type="line" smooth="yes"/>
			<point x="318" y="274"/>
			<point x="297" y="294"/>
			<point x="251" y="294" type="curve" smooth="yes"/>
			<point x="201" y="294"/>
			<point x="178" y="274"/>
			<point x="178" y="203" type="curve" smooth="yes"/>
			<point x="178" y="138"/>
			<point x="191" y="75"/>
			<point x="216" y="14" type="curve"/>
			<point x="216" y="9" type="line"/>
			<point x="82" y="9" type="line"/>
			<point x="50" y="82"/>
			<point x="35" y="159"/>
			<point x="35" y="236" type="curve" smooth="yes"/>
			<point x="35" y="362"/>
			<point x="91" y="420"/>
			<point x="214" y="420" type="curve" smooth="yes"/>
			<point x="318" y="420"/>
			<point x="368" y="383"/>
			<point x="377" y="326" type="curve"/>
			<point x="380" y="326" type="line"/>
			<point x="390" y="380"/>
			<point x="430" y="419"/>
			<point x="514" y="419" type="curve" smooth="yes"/>
			<point x="599" y="419"/>
			<point x="642" y="384"/>
			<point x="648" y="358" type="curve"/>
			<point x="656" y="354"/>
			<point x="663" y="350"/>
		</contour>
		<contour>
			<point x="811" y="-20" type="curve" smooth="yes"/>
			<point x="631" y="-20"/>
			<point x="559" y="17"/>
			<point x="559" y="122" type="curve" smooth="yes"/>
			<point x="559" y="199"/>
			<point x="590" y="226"/>
			<point x="644" y="236" type="curve"/>
			<point x="644" y="239" type="line"/>
			<point x="592" y="250"/>
			<point x="568" y="280"/>
			<point x="568" y="338" type="curve" smooth="yes"/>
			<point x="568" y="410"/>
			<point x="603" y="449"/>
			<point x="725" y="449" type="curve" smooth="yes"/>
			<point x="992" y="449" type="line"/>
			<point x="992" y="347" type="line"/>
			<point x="766" y="347" type="line" smooth="yes"/>
			<point x="717" y="347"/>
			<point x="705" y="342"/>
			<point x="705" y="315" type="curve" smooth="yes"/>
			<point x="705" y="288"/>
			<point x="717" y="284"/>
			<point x="786" y="284" type="curve"/>
			<point x="855" y="284" type="line"/>
			<point x="971" y="284"/>
			<point x="1005" y="257"/>
			<point x="1005" y="176" type="curve" smooth="yes"/>
			<point x="1005" y="144" type="line"/>
			<point x="863" y="144" type="line"/>
			<point x="863" y="152" type="line" smooth="yes"/>
			<point x="863" y="180"/>
			<point x="860" y="185"/>
			<point x="771" y="185" type="curve" smooth="yes"/>
			<point x="712" y="185"/>
			<point x="689" y="175"/>
			<point x="689" y="139" type="curve" smooth="yes"/>
			<point x="689" y="101"/>
			<point x="718" y="90"/>
			<point x="823" y="90" type="curve" smooth="yes"/>
			<point x="884" y="90"/>
			<point x="966" y="92"/>
			<point x="1000" y="96" type="curve"/>
			<point x="1002" y="95" type="line"/>
			<point x="1002" y="-7" type="line"/>
			<point x="965" y="-14"/>
			<point x="889" y="-20"/>
		</contour>
		<contour>
			<point x="489" y="500" type="line"/>
			<point x="489" y="607" type="line"/>
			<point x="1082" y="607" type="line"/>
			<point x="1082" y="500" type="line"/>
		</contour>
		<contour>
			<point x="869" y="370" type="line"/>
			<point x="869" y="517" type="line"/>
			<point x="992" y="517" type="line"/>
			<point x="992" y="370" type="line"/>
		</contour>
	</outline>
	<anchor name="blwm.virama" x="733" y="-81"/>
	<anchor name="abvm.bindu" x="990" y="607"/>
	<anchor name="blwm.u" x="805" y="-111"/>
	<anchor name="abvm.e" x="991" y="607"/>
</glyph>
<glyph name="dvL_PA" format="2">
	<advance width="1112"/>
	<outline>
		<contour>
			<point x="-10" y="500" type="line"/>
			<point x="-10" y="607" type="line"/>
			<point x="622" y="607" type="line"/>
			<point x="622" y="500" type="line"/>
		</contour>
		<contour>
			<point x="682" y="332" type="curve"/>
			<point x="591" y="265" type="line"/>
			<point x="582" y="287"/>
			<point x="564" y="294"/>
			<point x="527" y="294" type="curve" smooth="yes"/>
			<point x="475" y="294"/>
			<point x="450" y="274"/>
			<point x="450" y="193" type="curve" smooth="yes"/>
			<point x="450" y="126" type="line"/>
			<point x="318" y="126" type="line"/>
			<point x="318" y="193" type="line" smooth="yes"/>
			<point x="318" y="274"/>
			<point x="297" y="294"/>
			<point x="251" y="294" type="curve" smooth="yes"/>
			<point x="201" y="294"/>
			<point x="178" y="274"/>
			<point x="178" y="203" type="curve" smooth="yes"/>
			<point x="178" y="138"/>
			<point x="191" y="75"/>
			<point x="216" y="14" type="curve"/>
			<point x="216" y="9" type="line"/>
			<point x="82" y="9" type="line"/>
			<point x="50" y="82"/>
			<point x="35" y="159"/>
			<point x="35" y="236" type="curve" smooth="yes"/>
			<point x="35" y="362"/>
			<point x="91" y="420"/>
			<point x="214" y="420" type="curve" smooth="yes"/>
			<point x="318" y="420"/>
			<point x="368" y="383"/>
			<point x="377" y="326" type="curve"/>
			<point x="380" y="326" type="line"/>
			<point x="390" y="380"/>
			<point x="430" y="419"/>
			<point x="514" y="419" type="curve" smooth="yes"/>
			<point x="599" y="419"/>
			<point x="642" y="384"/>
			<point x="648" y="358" type="curve"/>
			<point x="664" y="350"/>
			<point x="675" y="343"/>
		</contour>
		<component base="dvPA" xOffset="537"/>
	</outline>
</glyph>
<glyph name="dvM_DA" format="2">
	<advance width="951"/>
	<outline>
		<contour>
			<point x="759" y="321" type="line"/>
			<point x="759" y="501" type="line"/>
			<point x="891" y="501" type="line"/>
			<point x="891" y="321" type="line"/>
		</contour>
		<contour>
			<point x="340" y="500" type="line"/>
			<point x="340" y="607" type="line"/>
			<point x="991" y="607" type="line"/>
			<point x="991" y="500" type="line"/>
		</contour>
		<contour>
			<point x="426" y="253" type="curve" smooth="yes"/>
			<point x="426" y="388"/>
			<point x="487" y="435"/>
			<point x="646" y="435" type="curve" smooth="yes"/>
			<point x="733" y="435"/>
			<point x="841" y="434"/>
			<point x="871" y="431" type="curve"/>
			<point x="871" y="321" type="line"/>
			<point x="663" y="321" type="line" smooth="yes"/>
			<point x="581" y="321"/>
			<point x="562" y="306"/>
			<point x="562" y="247" type="curve" smooth="yes"/>
			<point x="562" y="189"/>
			<point x="582" y="179"/>
			<point x="674" y="179" type="curve" smooth="yes"/>
			<point x="759" y="179"/>
			<point x="780" y="191"/>
			<point x="780" y="218" type="curve" smooth="yes"/>
			<point x="780" y="250" type="line"/>
			<point x="896" y="250" type="line"/>
			<point x="896" y="9" type="line"/>
			<point x="752" y="9" type="line"/>
			<point x="752" y="49"/>
			<point x="755" y="68"/>
			<point x="762" y="87" type="curve"/>
			<point x="759" y="89" type="line"/>
			<point x="732" y="74"/>
			<point x="685" y="65"/>
			<point x="626" y="65" type="curve" smooth="yes"/>
			<point x="493" y="65"/>
			<point x="426" y="116"/>
		</contour>
		<component base="dvM"/>
	</outline>
</glyph>
<glyph name="dvM_HA" format="2">
	<advance width="925"/>
	<outline>
		<contour>
			<point x="-75" y="500" type="line"/>
			<point x="-75" y="607" type="line"/>
			<point x="550" y="607" type="line"/>
			<point x="550" y="500" type="line"/>
		</contour>
		<contour>
			<point x="157" y="243" type="line"/>
			<point x="157" y="355" type="line"/>
			<point x="540" y="356" type="line"/>
			<point x="540" y="244" type="line"/>
		</contour>
		<contour>
			<point x="107" y="349" type="curve"/>
			<point x="107" y="500" type="line"/>
			<point x="255" y="500" type="line"/>
			<point x="255" y="265" type="line" smooth="yes"/>
			<point x="255" y="178"/>
			<point x="238" y="163"/>
			<point x="146" y="163" type="curve" smooth="yes"/>
			<point x="49" y="163"/>
			<point x="26" y="182"/>
			<point x="26" y="256" type="curve" smooth="yes"/>
			<point x="26" y="331"/>
			<point x="47" y="349"/>
		</contour>
		<contour>
			<point x="689" y="-20" type="curve" smooth="yes"/>
			<point x="509" y="-20"/>
			<point x="437" y="17"/>
			<point x="437" y="122" type="curve" smooth="yes"/>
			<point x="437" y="199"/>
			<point x="468" y="226"/>
			<point x="522" y="236" type="curve"/>
			<point x="522" y="239" type="line"/>
			<point x="470" y="250"/>
			<point x="446" y="280"/>
			<point x="446" y="338" type="curve" smooth="yes"/>
			<point x="446" y="410"/>
			<point x="481" y="449"/>
			<point x="603" y="449" type="curve" smooth="yes"/>
			<point x="870" y="449" type="line"/>
			<point x="870" y="347" type="line"/>
			<point x="644" y="347" type="line" smooth="yes"/>
			<point x="595" y="347"/>
			<point x="583" y="342"/>
			<point x="583" y="315" type="curve" smooth="yes"/>
			<point x="583" y="288"/>
			<point x="595" y="284"/>
			<point x="664" y="284" type="curve"/>
			<point x="733" y="284" type="line"/>
			<point x="849" y="284"/>
			<point x="883" y="257"/>
			<point x="883" y="176" type="curve" smooth="yes"/>
			<point x="883" y="144" type="line"/>
			<point x="741" y="144" type="line"/>
			<point x="741" y="152" type="line" smooth="yes"/>
			<point x="741" y="180"/>
			<point x="738" y="185"/>
			<point x="649" y="185" type="curve" smooth="yes"/>
			<point x="590" y="185"/>
			<point x="567" y="175"/>
			<point x="567" y="139" type="curve" smooth="yes"/>
			<point x="567" y="101"/>
			<point x="596" y="90"/>
			<point x="701" y="90" type="curve" smooth="yes"/>
			<point x="762" y="90"/>
			<point x="844" y="92"/>
			<point x="878" y="96" type="curve"/>
			<point x="880" y="95" type="line"/>
			<point x="880" y="-7" type="line"/>
			<point x="843" y="-14"/>
			<point x="767" y="-20"/>
		</contour>
		<contour>
			<point x="367" y="500" type="line"/>
			<point x="367" y="607" type="line"/>
			<point x="960" y="607" type="line"/>
			<point x="960" y="500" type="line"/>
		</contour>
		<contour>
			<point x="747" y="370" type="line"/>
			<point x="747" y="517" type="line"/>
			<point x="870" y="517" type="line"/>
			<point x="870" y="370" type="line"/>
		</contour>
	</outline>
	<anchor name="blwm.virama" x="611" y="-81"/>
	<anchor name="abvm.bindu" x="868" y="607"/>
	<anchor name="blwm.u" x="693" y="-110"/>
	<anchor name="abvm.e" x="869" y="607"/>
</glyph>
<glyph name="dvNG" format="2">
	<advance width="625"/>
	<outline>
		<contour>
			<point x="154" y="-56" type="line"/>
			<point x="154" y="-51" type="line"/>
			<point x="292" y="-51" type="line"/>
			<point x="355" y="-87"/>
			<point x="415" y="-129"/>
			<point x="468" y="-180" type="curve"/>
			<point x="468" y="-185" type="line"/>
			<point x="328" y="-222" type="line"/>
		</contour>
		<component base="dvNGA"/>
	</outline>
</glyph>
<glyph name="dvNY" format="2">
	<advance width="524"/>
	<outline>
		<contour>
			<point x="-20" y="500" type="line"/>
			<point x="-20" y="607" type="line"/>
			<point x="607" y="607" type="line"/>
			<point x="607" y="500" type="line"/>
		</contour>
		<contour>
			<point x="356" y="185" type="line"/>
			<point x="356" y="299" type="line"/>
			<point x="607" y="299" type="line"/>
			<point x="607" y="185" type="line"/>
		</contour>
		<contour>
			<point x="45" y="67" type="curve"/>
			<point x="45" y="192" type="line"/>
			<point x="50" y="192" type="line"/>
			<point x="97" y="178"/>
			<point x="150" y="171"/>
			<point x="203" y="171" type="curve" smooth="yes"/>
			<point x="277" y="171"/>
			<point x="290" y="183"/>
			<point x="290" y="237" type="curve" smooth="yes"/>
			<point x="290" y="298"/>
			<point x="260" y="302"/>
			<point x="217" y="302" type="curve" smooth="yes"/>
			<point x="179" y="302"/>
			<point x="149" y="296"/>
			<point x="128" y="290" type="curve"/>
			<point x="122" y="291" type="line"/>
			<point x="120" y="410" type="line"/>
			<point x="150" y="422"/>
			<point x="197" y="431"/>
			<point x="246" y="431" type="curve" smooth="yes"/>
			<point x="380" y="431"/>
			<point x="430" y="387"/>
			<point x="430" y="236" type="curve" smooth="yes"/>
			<point x="430" y="86"/>
			<point x="378" y="39"/>
			<point x="240" y="39" type="curve" smooth="yes"/>
			<point x="161" y="39"/>
			<point x="98" y="50"/>
		</contour>
	</outline>
</glyph>
<glyph name="dvNY_CHA" format="2">
	<advance width="1196"/>
	<outline>
		<contour>
			<point x="230" y="39" type="curve" smooth="yes"/>
			<point x="368" y="39"/>
			<point x="420" y="86"/>
			<point x="420" y="236" type="curve" smooth="yes"/>
			<point x="420" y="387"/>
			<point x="370" y="431"/>
			<point x="236" y="431" type="curve" smooth="yes"/>
			<point x="187" y="431"/>
			<point x="140" y="422"/>
			<point x="110" y="410" type="curve"/>
			<point x="112" y="291" type="line"/>
			<point x="118" y="290" type="line"/>
			<point x="139" y="296"/>
			<point x="169" y="302"/>
			<point x="207" y="302" type="curve" smooth="yes"/>
			<point x="250" y="302"/>
			<point x="280" y="298"/>
			<point x="280" y="237" type="curve" smooth="yes"/>
			<point x="280" y="183"/>
			<point x="267" y="171"/>
			<point x="193" y="171" type="curve" smooth="yes"/>
			<point x="140" y="171"/>
			<point x="87" y="178"/>
			<point x="40" y="192" type="curve"/>
			<point x="35" y="192" type="line"/>
			<point x="35" y="67" type="line"/>
			<point x="88" y="50"/>
			<point x="151" y="39"/>
		</contour>
		<contour>
			<point x="346" y="192" type="line"/>
			<point x="677" y="192" type="line"/>
			<point x="677" y="299" type="line"/>
			<point x="346" y="299" type="line"/>
		</contour>
		<contour>
			<point x="-60" y="500" type="line"/>
			<point x="609" y="500" type="line"/>
			<point x="609" y="607" type="line"/>
			<point x="-60" y="607" type="line"/>
		</contour>
		<component base="dvCHA" xOffset="514"/>
	</outline>
	<anchor name="blwm.virama" x="808" y="-51"/>
	<anchor name="abvm.bindu" x="1075" y="607"/>
	<anchor name="blwm.u" x="868" y="-81"/>
	<anchor name="abvm.e" x="1073" y="607"/>
</glyph>
<glyph name="dvNY_SHA" format="2">
	<advance width="1228"/>
	<outline>
		<contour>
			<point x="-60" y="500" type="line"/>
			<point x="-60" y="607" type="line"/>
			<point x="523" y="607" type="line"/>
			<point x="523" y="500" type="line"/>
		</contour>
		<contour>
			<point x="346" y="224" type="line"/>
			<point x="346" y="343" type="line"/>
			<point x="597" y="343" type="line"/>
			<point x="597" y="224" type="line"/>
		</contour>
		<contour>
			<point x="35" y="71" type="curve"/>
			<point x="35" y="196" type="line"/>
			<point x="40" y="196" type="line"/>
			<point x="87" y="182"/>
			<point x="140" y="175"/>
			<point x="193" y="175" type="curve" smooth="yes"/>
			<point x="267" y="175"/>
			<point x="280" y="187"/>
			<point x="280" y="241" type="curve" smooth="yes"/>
			<point x="280" y="302"/>
			<point x="250" y="306"/>
			<point x="207" y="306" type="curve" smooth="yes"/>
			<point x="169" y="306"/>
			<point x="139" y="300"/>
			<point x="118" y="294" type="curve"/>
			<point x="112" y="295" type="line"/>
			<point x="110" y="414" type="line"/>
			<point x="140" y="426"/>
			<point x="187" y="435"/>
			<point x="236" y="435" type="curve" smooth="yes"/>
			<point x="370" y="435"/>
			<point x="420" y="391"/>
			<point x="420" y="240" type="curve" smooth="yes"/>
			<point x="420" y="90"/>
			<point x="368" y="43"/>
			<point x="230" y="43" type="curve" smooth="yes"/>
			<point x="151" y="43"/>
			<point x="88" y="54"/>
		</contour>
		<contour>
			<point x="1020" y="9" type="line"/>
			<point x="1020" y="501" type="line"/>
			<point x="1168" y="501" type="line"/>
			<point x="1168" y="9" type="line"/>
		</contour>
		<contour>
			<point x="1020" y="500" type="line"/>
			<point x="1020" y="607" type="line"/>
			<point x="1268" y="607" type="line"/>
			<point x="1268" y="500" type="line"/>
		</contour>
		<contour>
			<point x="700" y="434" type="curve"/>
			<point x="700" y="432" type="line"/>
			<point x="578" y="432" type="line"/>
			<point x="576" y="441"/>
			<point x="574" y="455"/>
			<point x="574" y="467" type="curve" smooth="yes"/>
			<point x="574" y="563"/>
			<point x="630" y="615"/>
			<point x="755" y="615" type="curve" smooth="yes"/>
			<point x="880" y="615"/>
			<point x="936" y="557"/>
			<point x="936" y="433" type="curve" smooth="yes"/>
			<point x="936" y="317"/>
			<point x="861" y="230"/>
			<point x="708" y="230" type="curve" smooth="yes"/>
			<point x="690" y="230"/>
			<point x="691" y="231"/>
			<point x="670" y="235" type="curve"/>
			<point x="554" y="224" type="line"/>
			<point x="554" y="343" type="line"/>
			<point x="649" y="343" type="line"/>
			<point x="756" y="343"/>
			<point x="802" y="383"/>
			<point x="802" y="442" type="curve" smooth="yes"/>
			<point x="802" y="487"/>
			<point x="787" y="506"/>
			<point x="750" y="506" type="curve" smooth="yes"/>
			<point x="712" y="506"/>
			<point x="697" y="487"/>
			<point x="697" y="457" type="curve" smooth="yes"/>
			<point x="697" y="448"/>
			<point x="698" y="440"/>
		</contour>
		<contour>
			<point x="760" y="9" type="line"/>
			<point x="554" y="223" type="line"/>
			<point x="554" y="250" type="line"/>
			<point x="701" y="232" type="line"/>
			<point x="701" y="228" type="line"/>
			<point x="784" y="173"/>
			<point x="862" y="100"/>
			<point x="938" y="11" type="curve"/>
			<point x="938" y="9" type="line"/>
		</contour>
	</outline>
</glyph>
<glyph name="dvN_CA" format="2">
	<advance width="965"/>
	<outline>
		<contour>
			<point x="-60" y="500" type="line"/>
			<point x="-60" y="607" type="line"/>
			<point x="393" y="607" type="line"/>
			<point x="393" y="500" type="line"/>
		</contour>
		<contour>
			<point x="756" y="9" type="line"/>
			<point x="756" y="501" type="line"/>
			<point x="905" y="501" type="line"/>
			<point x="905" y="9" type="line"/>
		</contour>
		<contour>
			<point x="228" y="500" type="line"/>
			<point x="228" y="607" type="line"/>
			<point x="1005" y="607" type="line"/>
			<point x="1005" y="500" type="line"/>
		</contour>
		<contour>
			<point x="31" y="325" type="curve" smooth="yes"/>
			<point x="31" y="407"/>
			<point x="52" y="417"/>
			<point x="134" y="418" type="curve" smooth="yes"/>
			<point x="655" y="423" type="line"/>
			<point x="655" y="317" type="line"/>
			<point x="575" y="317" type="line" smooth="yes"/>
			<point x="547" y="317"/>
			<point x="528" y="307"/>
			<point x="528" y="270" type="curve" smooth="yes"/>
			<point x="528" y="227"/>
			<point x="549" y="214"/>
			<point x="618" y="211" type="curve" smooth="yes"/>
			<point x="671" y="209"/>
			<point x="733" y="225"/>
			<point x="761" y="245" type="curve"/>
			<point x="778" y="126" type="line"/>
			<point x="770" y="121"/>
			<point x="766" y="118"/>
			<point x="756" y="114" type="curve"/>
			<point x="754" y="115" type="line"/>
			<point x="710" y="96"/>
			<point x="649" y="84"/>
			<point x="589" y="84" type="curve" smooth="yes"/>
			<point x="467" y="84"/>
			<point x="387" y="125"/>
			<point x="387" y="221" type="curve" smooth="yes"/>
			<point x="387" y="265"/>
			<point x="400" y="290"/>
			<point x="418" y="304" type="curve"/>
			<point x="416" y="307" type="line"/>
			<point x="233" y="306" type="line"/>
			<point x="230" y="240"/>
			<point x="206" y="232"/>
			<point x="131" y="232" type="curve" smooth="yes"/>
			<point x="51" y="232"/>
			<point x="31" y="249"/>
		</contour>
	</outline>
	<anchor name="blwm" x="836" y="8"/>
	<anchor name="abvm" x="839" y="607"/>
</glyph>
<glyph name="dvN_CHA" format="2">
	<advance width="1045"/>
	<outline>
		<contour>
			<point x="-60" y="500" type="line"/>
			<point x="453" y="500" type="line"/>
			<point x="453" y="607" type="line"/>
			<point x="-60" y="607" type="line"/>
		</contour>
		<contour>
			<point x="133" y="111" type="curve" smooth="yes"/>
			<point x="216" y="111"/>
			<point x="236" y="121"/>
			<point x="236" y="208" type="curve" smooth="yes"/>
			<point x="236" y="297" type="line"/>
			<point x="136" y="297" type="line"/>
			<point x="54" y="297"/>
			<point x="33" y="286"/>
			<point x="33" y="204" type="curve" smooth="yes"/>
			<point x="33" y="128"/>
			<point x="53" y="111"/>
		</contour>
		<contour>
			<point x="148" y="185" type="line"/>
			<point x="505" y="186" type="line"/>
			<point x="505" y="298" type="line"/>
			<point x="148" y="297" type="line"/>
		</contour>
		<component base="dvCHA" xOffset="363"/>
	</outline>
	<anchor name="blwm.virama" x="657" y="-51"/>
	<anchor name="abvm.bindu" x="924" y="607"/>
	<anchor name="blwm.u" x="717" y="-81"/>
	<anchor name="abvm.e" x="922" y="607"/>
</glyph>
<glyph name="dvN_KA" format="2">
	<advance width="1283"/>
	<outline>
		<contour>
			<point x="749" y="9" type="line"/>
			<point x="749" y="501" type="line"/>
			<point x="897" y="501" type="line"/>
			<point x="897" y="9" type="line"/>
		</contour>
		<contour>
			<point x="318" y="500" type="line"/>
			<point x="318" y="607" type="line"/>
			<point x="1308" y="607" type="line"/>
			<point x="1308" y="500" type="line"/>
		</contour>
		<contour>
			<point x="556" y="436" type="curve" smooth="yes"/>
			<point x="603" y="436"/>
			<point x="654" y="430"/>
			<point x="691" y="419" type="curve"/>
			<point x="689" y="305" type="line"/>
			<point x="685" y="304" type="line"/>
			<point x="662" y="310"/>
			<point x="635" y="315"/>
			<point x="599" y="315" type="curve" smooth="yes"/>
			<point x="537" y="315"/>
			<point x="523" y="298"/>
			<point x="523" y="248" type="curve" smooth="yes"/>
			<point x="523" y="198"/>
			<point x="537" y="181"/>
			<point x="626" y="181" type="curve" smooth="yes"/>
			<point x="680" y="181"/>
			<point x="724" y="190"/>
			<point x="761" y="210" type="curve"/>
			<point x="749" y="87" type="line"/>
			<point x="747" y="87" type="line"/>
			<point x="717" y="72"/>
			<point x="661" y="62"/>
			<point x="604" y="62" type="curve" smooth="yes"/>
			<point x="434" y="62"/>
			<point x="383" y="108"/>
			<point x="383" y="250" type="curve" smooth="yes"/>
			<point x="383" y="390"/>
			<point x="429" y="436"/>
		</contour>
		<contour>
			<point x="1090" y="60" type="curve" smooth="yes"/>
			<point x="1043" y="60"/>
			<point x="992" y="66"/>
			<point x="955" y="77" type="curve"/>
			<point x="957" y="191" type="line"/>
			<point x="961" y="192" type="line"/>
			<point x="984" y="186"/>
			<point x="1011" y="181"/>
			<point x="1047" y="181" type="curve" smooth="yes"/>
			<point x="1109" y="181"/>
			<point x="1123" y="198"/>
			<point x="1123" y="248" type="curve" smooth="yes"/>
			<point x="1123" y="298"/>
			<point x="1109" y="315"/>
			<point x="1020" y="315" type="curve" smooth="yes"/>
			<point x="966" y="315"/>
			<point x="922" y="306"/>
			<point x="885" y="286" type="curve"/>
			<point x="897" y="409" type="line"/>
			<point x="899" y="409" type="line"/>
			<point x="929" y="424"/>
			<point x="985" y="434"/>
			<point x="1042" y="434" type="curve" smooth="yes"/>
			<point x="1212" y="434"/>
			<point x="1263" y="388"/>
			<point x="1263" y="246" type="curve" smooth="yes"/>
			<point x="1263" y="106"/>
			<point x="1217" y="60"/>
		</contour>
		<component base="dvN"/>
	</outline>
	<anchor name="blwm.virama" x="749" y="-57"/>
	<anchor name="abvm.bindu" x="896" y="607"/>
	<anchor name="blwm.u" x="831" y="-91"/>
	<anchor name="abvm.e" x="897" y="607"/>
</glyph>
<glyph name="dvN_R" format="2">
	<advance width="406"/>
	<outline>
		<contour>
			<point x="-60" y="500" type="line"/>
			<point x="-60" y="607" type="line"/>
			<point x="553" y="607" type="line"/>
			<point x="553" y="500" type="line"/>
		</contour>
		<contour>
			<point x="138" y="258" type="line"/>
			<point x="138" y="370" type="line"/>
			<point x="553" y="371" type="line"/>
			<point x="553" y="259" type="line"/>
		</contour>
		<contour>
			<point x="125" y="370" type="curve"/>
			<point x="225" y="370" type="line"/>
			<point x="225" y="281" type="line" smooth="yes"/>
			<point x="225" y="194"/>
			<point x="205" y="184"/>
			<point x="122" y="184" type="curve" smooth="yes"/>
			<point x="42" y="184"/>
			<point x="22" y="201"/>
			<point x="22" y="277" type="curve" smooth="yes"/>
			<point x="22" y="359"/>
			<point x="43" y="370"/>
		</contour>
		<contour>
			<point x="553" y="271" type="line"/>
			<point x="553" y="259" type="line"/>
			<point x="279" y="6" type="line"/>
			<point x="113" y="6" type="line"/>
			<point x="113" y="10" type="line"/>
			<point x="191" y="93"/>
			<point x="326" y="210"/>
			<point x="432" y="271" type="curve"/>
			<point x="433" y="271" type="line"/>
		</contour>
	</outline>
</glyph>
<glyph name="dvN_RA" format="2">
	<advance width="586"/>
	<outline>
		<contour>
			<point x="377" y="9" type="line"/>
			<point x="377" y="501" type="line"/>
			<point x="526" y="501" type="line"/>
			<point x="526" y="9" type="line"/>
		</contour>
		<contour>
			<point x="-60" y="500" type="line"/>
			<point x="-60" y="607" type="line"/>
			<point x="626" y="607" type="line"/>
			<point x="626" y="500" type="line"/>
		</contour>
		<contour>
			<point x="137" y="258" type="line"/>
			<point x="137" y="370" type="line"/>
			<point x="495" y="371" type="line"/>
			<point x="495" y="259" type="line"/>
		</contour>
		<contour>
			<point x="125" y="370" type="curve"/>
			<point x="225" y="370" type="line"/>
			<point x="225" y="281" type="line" smooth="yes"/>
			<point x="225" y="194"/>
			<point x="205" y="184"/>
			<point x="122" y="184" type="curve" smooth="yes"/>
			<point x="42" y="184"/>
			<point x="22" y="201"/>
			<point x="22" y="277" type="curve" smooth="yes"/>
			<point x="22" y="359"/>
			<point x="43" y="370"/>
		</contour>
		<contour>
			<point x="377" y="251" type="curve"/>
			<point x="378" y="251" type="line"/>
			<point x="413" y="158" type="line"/>
			<point x="377" y="113" type="line"/>
			<point x="374" y="113" type="line"/>
			<point x="274" y="6" type="line"/>
			<point x="108" y="6" type="line"/>
			<point x="108" y="10" type="line"/>
			<point x="196" y="104"/>
			<point x="275" y="173"/>
		</contour>
	</outline>
	<anchor name="blwm" x="459" y="0"/>
</glyph>
<glyph name="dvPHA" format="2">
	<advance width="916"/>
	<outline>
		<contour>
			<point x="50" y="315" type="curve" smooth="yes"/>
			<point x="50" y="505" type="line"/>
			<point x="198" y="505" type="line"/>
			<point x="198" y="297" type="line" smooth="yes"/>
			<point x="198" y="247"/>
			<point x="217" y="228"/>
			<point x="288" y="228" type="curve" smooth="yes"/>
			<point x="324" y="228"/>
			<point x="356" y="235"/>
			<point x="377" y="248" type="curve"/>
			<point x="388" y="127" type="line"/>
			<point x="380" y="122"/>
			<point x="373" y="125"/>
			<point x="361" y="122" type="curve"/>
			<point x="359" y="123" type="line"/>
			<point x="333" y="111"/>
			<point x="295" y="103"/>
			<point x="258" y="103" type="curve" smooth="yes"/>
			<point x="97" y="103"/>
			<point x="50" y="164"/>
		</contour>
		<contour>
			<point x="361" y="9" type="line"/>
			<point x="361" y="501" type="line"/>
			<point x="510" y="501" type="line"/>
			<point x="510" y="9" type="line"/>
		</contour>
		<contour>
			<point x="-50" y="500" type="line"/>
			<point x="-50" y="607" type="line"/>
			<point x="941" y="607" type="line"/>
			<point x="941" y="500" type="line"/>
		</contour>
		<contour>
			<point x="703" y="60" type="curve" smooth="yes"/>
			<point x="656" y="60"/>
			<point x="605" y="66"/>
			<point x="568" y="77" type="curve"/>
			<point x="570" y="191" type="line"/>
			<point x="574" y="192" type="line"/>
			<point x="597" y="186"/>
			<point x="624" y="181"/>
			<point x="660" y="181" type="curve" smooth="yes"/>
			<point x="722" y="181"/>
			<point x="736" y="198"/>
			<point x="736" y="248" type="curve" smooth="yes"/>
			<point x="736" y="298"/>
			<point x="722" y="315"/>
			<point x="633" y="315" type="curve" smooth="yes"/>
			<point x="579" y="315"/>
			<point x="535" y="306"/>
			<point x="498" y="286" type="curve"/>
			<point x="510" y="409" type="line"/>
			<point x="512" y="409" type="line"/>
			<point x="542" y="424"/>
			<point x="598" y="434"/>
			<point x="655" y="434" type="curve"/>
			<point x="820" y="434"/>
			<point x="871" y="388"/>
			<point x="871" y="246" type="curve" smooth="yes"/>
			<point x="871" y="106"/>
			<point x="825" y="60"/>
		</contour>
	</outline>
	<anchor name="blwm.virama" x="366" y="-51"/>
	<anchor name="abvm.bindu" x="513" y="607"/>
	<anchor name="blwm.u" x="448" y="-81"/>
	<anchor name="abvm.e" x="514" y="607"/>
</glyph>
<glyph name="dvPH_TA" format="2">
	<advance width="1284"/>
	<outline>
		<contour>
			<point x="50" y="315" type="curve" smooth="yes"/>
			<point x="50" y="505" type="line"/>
			<point x="198" y="505" type="line"/>
			<point x="198" y="297" type="line" smooth="yes"/>
			<point x="198" y="247"/>
			<point x="217" y="228"/>
			<point x="288" y="228" type="curve" smooth="yes"/>
			<point x="324" y="228"/>
			<point x="356" y="235"/>
			<point x="377" y="248" type="curve"/>
			<point x="388" y="127" type="line"/>
			<point x="380" y="122"/>
			<point x="373" y="125"/>
			<point x="361" y="122" type="curve"/>
			<point x="359" y="123" type="line"/>
			<point x="333" y="111"/>
			<point x="295" y="103"/>
			<point x="258" y="103" type="curve" smooth="yes"/>
			<point x="97" y="103"/>
			<point x="50" y="164"/>
		</contour>
		<contour>
			<point x="361" y="9" type="line"/>
			<point x="361" y="501" type="line"/>
			<point x="510" y="501" type="line"/>
			<point x="510" y="9" type="line"/>
		</contour>
		<contour>
			<point x="-50" y="500" type="line"/>
			<point x="-50" y="607" type="line"/>
			<point x="781" y="607" type="line"/>
			<point x="781" y="500" type="line"/>
		</contour>
		<contour>
			<point x="835" y="320" type="curve"/>
			<point x="746" y="229" type="line"/>
			<point x="734" y="255"/>
			<point x="698" y="264"/>
			<point x="627" y="264" type="curve" smooth="yes"/>
			<point x="573" y="264"/>
			<point x="529" y="255"/>
			<point x="492" y="235" type="curve"/>
			<point x="504" y="368" type="line"/>
			<point x="506" y="368" type="line"/>
			<point x="536" y="383"/>
			<point x="592" y="393"/>
			<point x="649" y="393" type="curve" smooth="yes"/>
			<point x="751" y="393"/>
			<point x="808" y="373"/>
		</contour>
		<component base="dvTA" xOffset="696"/>
	</outline>
	<anchor name="blwm" x="439" y="11"/>
	<anchor name="abvm" x="442" y="606"/>
</glyph>
<glyph name="dvPHxA" format="2">
	<advance width="916"/>
	<outline>
		<contour>
			<point x="241" y="35" type="curve"/>
			<point x="243" y="13"/>
			<point x="244" y="-2"/>
			<point x="244" y="-18" type="curve" smooth="yes"/>
			<point x="244" y="-34"/>
			<point x="243" y="-50"/>
			<point x="241" y="-71" type="curve"/>
			<point x="215" y="-76"/>
			<point x="190" y="-79"/>
			<point x="165" y="-79" type="curve" smooth="yes"/>
			<point x="141" y="-79"/>
			<point x="117" y="-76"/>
			<point x="92" y="-71" type="curve"/>
			<point x="89" y="-51"/>
			<point x="88" y="-35"/>
			<point x="88" y="-19" type="curve" smooth="yes"/>
			<point x="88" y="-4"/>
			<point x="89" y="13"/>
			<point x="92" y="35" type="curve"/>
			<point x="117" y="40"/>
			<point x="142" y="42"/>
			<point x="167" y="42" type="curve" smooth="yes"/>
			<point x="191" y="42"/>
			<point x="216" y="40"/>
		</contour>
		<component base="dvPHA"/>
	</outline>
</glyph>
<glyph name="dvPHx_SA" format="2">
	<advance width="1383"/>
	<outline>
		<contour>
			<point x="50" y="315" type="curve" smooth="yes"/>
			<point x="50" y="505" type="line"/>
			<point x="198" y="505" type="line"/>
			<point x="198" y="297" type="line" smooth="yes"/>
			<point x="198" y="247"/>
			<point x="217" y="228"/>
			<point x="288" y="228" type="curve" smooth="yes"/>
			<point x="324" y="228"/>
			<point x="356" y="235"/>
			<point x="377" y="248" type="curve"/>
			<point x="388" y="127" type="line"/>
			<point x="380" y="122"/>
			<point x="373" y="125"/>
			<point x="361" y="122" type="curve"/>
			<point x="359" y="123" type="line"/>
			<point x="333" y="111"/>
			<point x="295" y="103"/>
			<point x="258" y="103" type="curve" smooth="yes"/>
			<point x="97" y="103"/>
			<point x="50" y="164"/>
		</contour>
		<contour>
			<point x="361" y="9" type="line"/>
			<point x="361" y="501" type="line"/>
			<point x="510" y="501" type="line"/>
			<point x="510" y="9" type="line"/>
		</contour>
		<contour>
			<point x="-50" y="500" type="line"/>
			<point x="-50" y="607" type="line"/>
			<point x="781" y="607" type="line"/>
			<point x="781" y="500" type="line"/>
		</contour>
		<contour>
			<point x="871" y="281" type="curve"/>
			<point x="789" y="208" type="line"/>
			<point x="758" y="230"/>
			<point x="703" y="237"/>
			<point x="633" y="237" type="curve" smooth="yes"/>
			<point x="579" y="237"/>
			<point x="517" y="224"/>
			<point x="478" y="206" type="curve"/>
			<point x="490" y="329" type="line"/>
			<point x="492" y="329" type="line"/>
			<point x="530" y="344"/>
			<point x="598" y="354"/>
			<point x="655" y="354" type="curve" smooth="yes"/>
			<point x="703" y="354"/>
			<point x="761" y="346"/>
			<point x="787" y="338" type="curve"/>
			<point x="789" y="338" type="line"/>
			<point x="831" y="326"/>
			<point x="855" y="313"/>
		</contour>
		<contour>
			<point x="244" y="32" type="curve"/>
			<point x="246" y="10"/>
			<point x="247" y="-5"/>
			<point x="247" y="-21" type="curve" smooth="yes"/>
			<point x="247" y="-37"/>
			<point x="246" y="-53"/>
			<point x="244" y="-74" type="curve"/>
			<point x="218" y="-79"/>
			<point x="193" y="-82"/>
			<point x="168" y="-82" type="curve" smooth="yes"/>
			<point x="144" y="-82"/>
			<point x="120" y="-79"/>
			<point x="95" y="-74" type="curve"/>
			<point x="92" y="-54"/>
			<point x="91" y="-38"/>
			<point x="91" y="-22" type="curve" smooth="yes"/>
			<point x="91" y="-7"/>
			<point x="92" y="10"/>
			<point x="95" y="32" type="curve"/>
			<point x="120" y="37"/>
			<point x="145" y="39"/>
			<point x="170" y="39" type="curve" smooth="yes"/>
			<point x="194" y="39"/>
			<point x="219" y="37"/>
		</contour>
		<component base="dvSA" xOffset="696"/>
	</outline>
	<anchor name="blwm" x="439" y="11"/>
	<anchor name="abvm" x="442" y="606"/>
</glyph>
<glyph name="dvP_PHA" format="2">
	<advance width="1246"/>
	<outline>
		<contour>
			<point x="400" y="315" type="curve" smooth="yes"/>
			<point x="400" y="505" type="line"/>
			<point x="548" y="505" type="line"/>
			<point x="548" y="297" type="line" smooth="yes"/>
			<point x="548" y="247"/>
			<point x="567" y="228"/>
			<point x="638" y="228" type="curve" smooth="yes"/>
			<point x="674" y="228"/>
			<point x="706" y="235"/>
			<point x="727" y="248" type="curve"/>
			<point x="738" y="127" type="line"/>
			<point x="730" y="122"/>
			<point x="723" y="125"/>
			<point x="711" y="122" type="curve"/>
			<point x="709" y="123" type="line"/>
			<point x="683" y="111"/>
			<point x="645" y="103"/>
			<point x="608" y="103" type="curve" smooth="yes"/>
			<point x="447" y="103"/>
			<point x="400" y="164"/>
		</contour>
		<contour>
			<point x="711" y="9" type="line"/>
			<point x="711" y="501" type="line"/>
			<point x="860" y="501" type="line"/>
			<point x="860" y="9" type="line"/>
		</contour>
		<contour>
			<point x="300" y="500" type="line"/>
			<point x="300" y="607" type="line"/>
			<point x="1291" y="607" type="line"/>
			<point x="1291" y="500" type="line"/>
		</contour>
		<contour>
			<point x="1053" y="60" type="curve" smooth="yes"/>
			<point x="1006" y="60"/>
			<point x="955" y="66"/>
			<point x="918" y="77" type="curve"/>
			<point x="920" y="191" type="line"/>
			<point x="924" y="192" type="line"/>
			<point x="947" y="186"/>
			<point x="974" y="181"/>
			<point x="1010" y="181" type="curve" smooth="yes"/>
			<point x="1072" y="181"/>
			<point x="1086" y="198"/>
			<point x="1086" y="248" type="curve" smooth="yes"/>
			<point x="1086" y="298"/>
			<point x="1072" y="315"/>
			<point x="983" y="315" type="curve" smooth="yes"/>
			<point x="929" y="315"/>
			<point x="885" y="306"/>
			<point x="848" y="286" type="curve"/>
			<point x="860" y="409" type="line"/>
			<point x="862" y="409" type="line"/>
			<point x="892" y="424"/>
			<point x="948" y="434"/>
			<point x="1005" y="434" type="curve"/>
			<point x="1170" y="434"/>
			<point x="1221" y="388"/>
			<point x="1221" y="246" type="curve" smooth="yes"/>
			<point x="1221" y="106"/>
			<point x="1175" y="60"/>
		</contour>
		<component base="dvP"/>
	</outline>
	<anchor name="blwm.virama" x="716" y="-51"/>
	<anchor name="abvm.bindu" x="863" y="607"/>
	<anchor name="blwm.u" x="798" y="-81"/>
	<anchor name="abvm.e" x="864" y="607"/>
</glyph>
<glyph name="dvReph.matrai" format="2">
	<outline>
		<contour>
			<point x="0" y="606" type="line"/>
			<point x="0" y="715" type="line" smooth="yes"/>
			<point x="0" y="801"/>
			<point x="47" y="836"/>
			<point x="131" y="836" type="curve" smooth="yes"/>
			<point x="150" y="836"/>
			<point x="174" y="833"/>
			<point x="194" y="828" type="curve"/>
			<point x="194" y="736" type="line"/>
			<point x="192" y="736" type="line"/>
			<point x="180" y="738"/>
			<point x="164" y="740"/>
			<point x="150" y="740" type="curve" smooth="yes"/>
			<point x="106" y="740"/>
			<point x="94" y="719"/>
			<point x="94" y="676" type="curve" smooth="yes"/>
			<point x="94" y="606" type="line"/>
		</contour>
	</outline>
	<anchor name="_abvm.i" x="0" y="608"/>
</glyph>
<glyph name="dvReph_Anusvara" format="2">
	<outline>
		<contour>
			<point x="3" y="914" type="curve"/>
			<point x="4" y="810" type="line"/>
			<point x="2" y="806" type="line"/>
			<point x="-14" y="808"/>
			<point x="-27" y="809"/>
			<point x="-42" y="809" type="curve" smooth="yes"/>
			<point x="-102" y="809"/>
			<point x="-120" y="784"/>
			<point x="-120" y="726" type="curve" smooth="yes"/>
			<point x="-120" y="682"/>
			<point x="-106" y="638"/>
			<point x="-83" y="603" type="curve"/>
			<point x="-217" y="603" type="line"/>
			<point x="-217" y="610" type="line"/>
			<point x="-242" y="653"/>
			<point x="-256" y="713"/>
			<point x="-256" y="770" type="curve" smooth="yes"/>
			<point x="-256" y="868"/>
			<point x="-208" y="919"/>
			<point x="-71" y="919" type="curve" smooth="yes"/>
			<point x="-52" y="919"/>
			<point x="-24" y="917"/>
		</contour>
		<contour>
			<point x="84" y="759" type="curve"/>
			<point x="86" y="736"/>
			<point x="87" y="722"/>
			<point x="87" y="706" type="curve" smooth="yes"/>
			<point x="87" y="689"/>
			<point x="86" y="675"/>
			<point x="84" y="653" type="curve"/>
			<point x="59" y="649"/>
			<point x="33" y="644"/>
			<point x="8" y="644" type="curve" smooth="yes"/>
			<point x="-16" y="644"/>
			<point x="-41" y="649"/>
			<point x="-65" y="653" type="curve"/>
			<point x="-68" y="673"/>
			<point x="-69" y="688"/>
			<point x="-69" y="705" type="curve" smooth="yes"/>
			<point x="-69" y="721"/>
			<point x="-68" y="736"/>
			<point x="-65" y="759" type="curve"/>
			<point x="-41" y="763"/>
			<point x="-15" y="767"/>
			<point x="10" y="767" type="curve" smooth="yes"/>
			<point x="34" y="767"/>
			<point x="59" y="763"/>
		</contour>
	</outline>
	<anchor name="_abvm.bindu" x="-83" y="603"/>
</glyph>
<glyph name="dvSH_CA" format="2">
	<advance width="1104"/>
	<outline>
		<contour>
			<point x="895" y="9" type="line"/>
			<point x="895" y="501" type="line"/>
			<point x="1044" y="501" type="line"/>
			<point x="1044" y="9" type="line"/>
		</contour>
		<contour>
			<point x="482" y="500" type="line"/>
			<point x="482" y="607" type="line"/>
			<point x="1144" y="607" type="line"/>
			<point x="1144" y="500" type="line"/>
		</contour>
		<contour>
			<point x="455" y="292" type="curve"/>
			<point x="455" y="423" type="line"/>
			<point x="794" y="423" type="line"/>
			<point x="794" y="317" type="line"/>
			<point x="714" y="317" type="line" smooth="yes"/>
			<point x="686" y="317"/>
			<point x="667" y="307"/>
			<point x="667" y="270" type="curve" smooth="yes"/>
			<point x="667" y="227"/>
			<point x="688" y="214"/>
			<point x="757" y="211" type="curve" smooth="yes"/>
			<point x="810" y="209"/>
			<point x="872" y="225"/>
			<point x="900" y="245" type="curve"/>
			<point x="917" y="126" type="line"/>
			<point x="909" y="121"/>
			<point x="905" y="118"/>
			<point x="895" y="114" type="curve"/>
			<point x="893" y="115" type="line"/>
			<point x="849" y="96"/>
			<point x="788" y="84"/>
			<point x="728" y="84" type="curve" smooth="yes"/>
			<point x="606" y="84"/>
			<point x="526" y="125"/>
			<point x="526" y="221" type="curve" smooth="yes"/>
			<point x="526" y="265"/>
			<point x="539" y="290"/>
			<point x="557" y="304" type="curve"/>
			<point x="555" y="307" type="line"/>
			<point x="532" y="299"/>
			<point x="495" y="292"/>
		</contour>
		<contour>
			<point x="186" y="434" type="curve"/>
			<point x="186" y="432" type="line"/>
			<point x="64" y="432" type="line"/>
			<point x="62" y="441"/>
			<point x="60" y="455"/>
			<point x="60" y="467" type="curve" smooth="yes"/>
			<point x="60" y="563"/>
			<point x="116" y="615"/>
			<point x="241" y="615" type="curve" smooth="yes"/>
			<point x="366" y="615"/>
			<point x="422" y="557"/>
			<point x="422" y="433" type="curve" smooth="yes"/>
			<point x="422" y="317"/>
			<point x="347" y="230"/>
			<point x="194" y="230" type="curve" smooth="yes"/>
			<point x="176" y="230"/>
			<point x="177" y="231"/>
			<point x="156" y="235" type="curve"/>
			<point x="40" y="224" type="line"/>
			<point x="40" y="343" type="line"/>
			<point x="135" y="343" type="line"/>
			<point x="242" y="343"/>
			<point x="288" y="383"/>
			<point x="288" y="442" type="curve" smooth="yes"/>
			<point x="288" y="487"/>
			<point x="273" y="506"/>
			<point x="236" y="506" type="curve" smooth="yes"/>
			<point x="198" y="506"/>
			<point x="183" y="487"/>
			<point x="183" y="457" type="curve" smooth="yes"/>
			<point x="183" y="448"/>
			<point x="184" y="440"/>
		</contour>
		<contour>
			<point x="246" y="9" type="line"/>
			<point x="40" y="223" type="line"/>
			<point x="40" y="250" type="line"/>
			<point x="187" y="232" type="line"/>
			<point x="187" y="228" type="line"/>
			<point x="270" y="173"/>
			<point x="348" y="100"/>
			<point x="424" y="11" type="curve"/>
			<point x="424" y="9" type="line"/>
		</contour>
	</outline>
	<anchor name="blwm" x="975" y="8"/>
	<anchor name="abvm" x="978" y="607"/>
</glyph>
<glyph name="dvSH_CHA" format="2">
	<advance width="1124"/>
	<outline>
		<contour>
			<point x="789" y="0" type="curve" smooth="yes"/>
			<point x="568" y="0"/>
			<point x="476" y="52"/>
			<point x="476" y="173" type="curve" smooth="yes"/>
			<point x="476" y="246"/>
			<point x="508" y="289"/>
			<point x="584" y="299" type="curve"/>
			<point x="584" y="303" type="line"/>
			<point x="508" y="306"/>
			<point x="468" y="349"/>
			<point x="468" y="410" type="curve" smooth="yes"/>
			<point x="468" y="453"/>
			<point x="491" y="488"/>
			<point x="516" y="498" type="curve"/>
			<point x="516" y="502" type="line"/>
			<point x="701" y="606" type="line"/>
			<point x="701" y="500" type="line"/>
			<point x="641" y="500"/>
			<point x="616" y="480"/>
			<point x="616" y="429" type="curve" smooth="yes"/>
			<point x="616" y="378"/>
			<point x="641" y="359"/>
			<point x="721" y="359" type="curve" smooth="yes"/>
			<point x="727" y="359" type="line"/>
			<point x="727" y="243" type="line"/>
			<point x="721" y="243" type="line" smooth="yes"/>
			<point x="649" y="243"/>
			<point x="624" y="230"/>
			<point x="624" y="187" type="curve" smooth="yes"/>
			<point x="624" y="142"/>
			<point x="661" y="122"/>
			<point x="786" y="122" type="curve" smooth="yes"/>
			<point x="881" y="122"/>
			<point x="934" y="140"/>
			<point x="955" y="176" type="curve" smooth="yes"/>
			<point x="971" y="203"/>
			<point x="972" y="252"/>
			<point x="972" y="295" type="curve" smooth="yes"/>
			<point x="972" y="341"/>
			<point x="962" y="356"/>
			<point x="929" y="356" type="curve" smooth="yes"/>
			<point x="896" y="356"/>
			<point x="888" y="341"/>
			<point x="888" y="295" type="curve" smooth="yes"/>
			<point x="888" y="277"/>
			<point x="891" y="257"/>
			<point x="895" y="240" type="curve"/>
			<point x="895" y="238" type="line"/>
			<point x="785" y="238" type="line"/>
			<point x="778" y="263"/>
			<point x="775" y="291"/>
			<point x="775" y="315" type="curve" smooth="yes"/>
			<point x="775" y="432"/>
			<point x="836" y="452"/>
			<point x="930" y="452" type="curve" smooth="yes"/>
			<point x="1049" y="452"/>
			<point x="1098" y="421"/>
			<point x="1098" y="280" type="curve" smooth="yes"/>
			<point x="1098" y="111"/>
			<point x="1056" y="0"/>
		</contour>
		<contour>
			<point x="482" y="500" type="line"/>
			<point x="482" y="607" type="line"/>
			<point x="1169" y="607" type="line"/>
			<point x="1169" y="500" type="line"/>
		</contour>
		<contour>
			<point x="876" y="397" type="line"/>
			<point x="876" y="538" type="line"/>
			<point x="1004" y="538" type="line"/>
			<point x="1004" y="397" type="line"/>
		</contour>
		<contour>
			<point x="186" y="434" type="curve"/>
			<point x="186" y="432" type="line"/>
			<point x="64" y="432" type="line"/>
			<point x="62" y="441"/>
			<point x="60" y="455"/>
			<point x="60" y="467" type="curve" smooth="yes"/>
			<point x="60" y="563"/>
			<point x="116" y="615"/>
			<point x="241" y="615" type="curve" smooth="yes"/>
			<point x="366" y="615"/>
			<point x="422" y="557"/>
			<point x="422" y="433" type="curve" smooth="yes"/>
			<point x="422" y="317"/>
			<point x="347" y="230"/>
			<point x="194" y="230" type="curve" smooth="yes"/>
			<point x="176" y="230"/>
			<point x="177" y="231"/>
			<point x="156" y="235" type="curve"/>
			<point x="40" y="224" type="line"/>
			<point x="40" y="343" type="line"/>
			<point x="135" y="343" type="line"/>
			<point x="242" y="343"/>
			<point x="288" y="383"/>
			<point x="288" y="442" type="curve" smooth="yes"/>
			<point x="288" y="487"/>
			<point x="273" y="506"/>
			<point x="236" y="506" type="curve" smooth="yes"/>
			<point x="198" y="506"/>
			<point x="183" y="487"/>
			<point x="183" y="457" type="curve" smooth="yes"/>
			<point x="183" y="448"/>
			<point x="184" y="440"/>
		</contour>
		<contour>
			<point x="246" y="9" type="line"/>
			<point x="40" y="223" type="line"/>
			<point x="40" y="250" type="line"/>
			<point x="187" y="232" type="line"/>
			<point x="187" y="228" type="line"/>
			<point x="270" y="173"/>
			<point x="348" y="100"/>
			<point x="424" y="11" type="curve"/>
			<point x="424" y="9" type="line"/>
		</contour>
	</outline>
	<anchor name="blwm.virama" x="734" y="-56"/>
	<anchor name="abvm.bindu" x="1001" y="607"/>
	<anchor name="blwm.u" x="824" y="-81"/>
	<anchor name="abvm.e" x="999" y="607"/>
</glyph>
<glyph name="dvSH_KA" format="2">
	<advance width="1362"/>
	<outline>
		<contour>
			<point x="828" y="9" type="line"/>
			<point x="828" y="501" type="line"/>
			<point x="976" y="501" type="line"/>
			<point x="976" y="9" type="line"/>
		</contour>
		<contour>
			<point x="482" y="500" type="line"/>
			<point x="482" y="607" type="line"/>
			<point x="1387" y="607" type="line"/>
			<point x="1387" y="500" type="line"/>
		</contour>
		<contour>
			<point x="635" y="436" type="curve" smooth="yes"/>
			<point x="682" y="436"/>
			<point x="733" y="430"/>
			<point x="770" y="419" type="curve"/>
			<point x="768" y="305" type="line"/>
			<point x="764" y="304" type="line"/>
			<point x="741" y="310"/>
			<point x="714" y="315"/>
			<point x="678" y="315" type="curve" smooth="yes"/>
			<point x="616" y="315"/>
			<point x="602" y="298"/>
			<point x="602" y="248" type="curve" smooth="yes"/>
			<point x="602" y="198"/>
			<point x="616" y="181"/>
			<point x="705" y="181" type="curve" smooth="yes"/>
			<point x="759" y="181"/>
			<point x="803" y="190"/>
			<point x="840" y="210" type="curve"/>
			<point x="828" y="87" type="line"/>
			<point x="826" y="87" type="line"/>
			<point x="796" y="72"/>
			<point x="740" y="62"/>
			<point x="683" y="62" type="curve" smooth="yes"/>
			<point x="513" y="62"/>
			<point x="462" y="108"/>
			<point x="462" y="250" type="curve" smooth="yes"/>
			<point x="462" y="390"/>
			<point x="508" y="436"/>
		</contour>
		<contour>
			<point x="1169" y="60" type="curve" smooth="yes"/>
			<point x="1122" y="60"/>
			<point x="1071" y="66"/>
			<point x="1034" y="77" type="curve"/>
			<point x="1036" y="191" type="line"/>
			<point x="1040" y="192" type="line"/>
			<point x="1063" y="186"/>
			<point x="1090" y="181"/>
			<point x="1126" y="181" type="curve" smooth="yes"/>
			<point x="1188" y="181"/>
			<point x="1202" y="198"/>
			<point x="1202" y="248" type="curve" smooth="yes"/>
			<point x="1202" y="298"/>
			<point x="1188" y="315"/>
			<point x="1099" y="315" type="curve" smooth="yes"/>
			<point x="1045" y="315"/>
			<point x="1001" y="306"/>
			<point x="964" y="286" type="curve"/>
			<point x="976" y="409" type="line"/>
			<point x="978" y="409" type="line"/>
			<point x="1008" y="424"/>
			<point x="1064" y="434"/>
			<point x="1121" y="434" type="curve" smooth="yes"/>
			<point x="1291" y="434"/>
			<point x="1342" y="388"/>
			<point x="1342" y="246" type="curve" smooth="yes"/>
			<point x="1342" y="106"/>
			<point x="1296" y="60"/>
		</contour>
		<contour>
			<point x="186" y="434" type="curve"/>
			<point x="186" y="432" type="line"/>
			<point x="64" y="432" type="line"/>
			<point x="62" y="441"/>
			<point x="60" y="455"/>
			<point x="60" y="467" type="curve" smooth="yes"/>
			<point x="60" y="563"/>
			<point x="116" y="615"/>
			<point x="241" y="615" type="curve" smooth="yes"/>
			<point x="366" y="615"/>
			<point x="422" y="557"/>
			<point x="422" y="433" type="curve" smooth="yes"/>
			<point x="422" y="317"/>
			<point x="347" y="230"/>
			<point x="194" y="230" type="curve" smooth="yes"/>
			<point x="176" y="230"/>
			<point x="177" y="231"/>
			<point x="156" y="235" type="curve"/>
			<point x="40" y="224" type="line"/>
			<point x="40" y="343" type="line"/>
			<point x="135" y="343" type="line"/>
			<point x="242" y="343"/>
			<point x="288" y="383"/>
			<point x="288" y="442" type="curve" smooth="yes"/>
			<point x="288" y="487"/>
			<point x="273" y="506"/>
			<point x="236" y="506" type="curve" smooth="yes"/>
			<point x="198" y="506"/>
			<point x="183" y="487"/>
			<point x="183" y="457" type="curve" smooth="yes"/>
			<point x="183" y="448"/>
			<point x="184" y="440"/>
		</contour>
		<contour>
			<point x="246" y="9" type="line"/>
			<point x="40" y="223" type="line"/>
			<point x="40" y="250" type="line"/>
			<point x="187" y="232" type="line"/>
			<point x="187" y="228" type="line"/>
			<point x="270" y="173"/>
			<point x="348" y="100"/>
			<point x="424" y="11" type="curve"/>
			<point x="424" y="9" type="line"/>
		</contour>
	</outline>
	<anchor name="blwm.virama" x="830" y="-51"/>
	<anchor name="abvm.bindu" x="966" y="607"/>
	<anchor name="blwm.u" x="910" y="-78"/>
	<anchor name="abvm.e" x="969" y="607"/>
</glyph>
<glyph name="dvSH_KxA" format="2">
	<advance width="1357"/>
	<outline>
		<contour>
			<point x="823" y="9" type="line"/>
			<point x="823" y="501" type="line"/>
			<point x="971" y="501" type="line"/>
			<point x="971" y="9" type="line"/>
		</contour>
		<contour>
			<point x="477" y="500" type="line"/>
			<point x="477" y="607" type="line"/>
			<point x="1382" y="607" type="line"/>
			<point x="1382" y="500" type="line"/>
		</contour>
		<contour>
			<point x="630" y="436" type="curve" smooth="yes"/>
			<point x="677" y="436"/>
			<point x="728" y="430"/>
			<point x="765" y="419" type="curve"/>
			<point x="763" y="305" type="line"/>
			<point x="759" y="304" type="line"/>
			<point x="736" y="310"/>
			<point x="709" y="315"/>
			<point x="673" y="315" type="curve" smooth="yes"/>
			<point x="611" y="315"/>
			<point x="597" y="298"/>
			<point x="597" y="248" type="curve" smooth="yes"/>
			<point x="597" y="198"/>
			<point x="611" y="181"/>
			<point x="700" y="181" type="curve" smooth="yes"/>
			<point x="754" y="181"/>
			<point x="798" y="190"/>
			<point x="835" y="210" type="curve"/>
			<point x="823" y="87" type="line"/>
			<point x="821" y="87" type="line"/>
			<point x="791" y="72"/>
			<point x="735" y="62"/>
			<point x="678" y="62" type="curve" smooth="yes"/>
			<point x="508" y="62"/>
			<point x="457" y="108"/>
			<point x="457" y="250" type="curve" smooth="yes"/>
			<point x="457" y="390"/>
			<point x="503" y="436"/>
		</contour>
		<contour>
			<point x="1164" y="60" type="curve" smooth="yes"/>
			<point x="1117" y="60"/>
			<point x="1066" y="66"/>
			<point x="1029" y="77" type="curve"/>
			<point x="1031" y="191" type="line"/>
			<point x="1035" y="192" type="line"/>
			<point x="1058" y="186"/>
			<point x="1085" y="181"/>
			<point x="1121" y="181" type="curve" smooth="yes"/>
			<point x="1183" y="181"/>
			<point x="1197" y="198"/>
			<point x="1197" y="248" type="curve" smooth="yes"/>
			<point x="1197" y="298"/>
			<point x="1183" y="315"/>
			<point x="1094" y="315" type="curve" smooth="yes"/>
			<point x="1040" y="315"/>
			<point x="996" y="306"/>
			<point x="959" y="286" type="curve"/>
			<point x="971" y="409" type="line"/>
			<point x="973" y="409" type="line"/>
			<point x="1003" y="424"/>
			<point x="1059" y="434"/>
			<point x="1116" y="434" type="curve" smooth="yes"/>
			<point x="1286" y="434"/>
			<point x="1337" y="388"/>
			<point x="1337" y="246" type="curve" smooth="yes"/>
			<point x="1337" y="106"/>
			<point x="1291" y="60"/>
		</contour>
		<contour>
			<point x="627" y="-7" type="curve"/>
			<point x="629" y="-29"/>
			<point x="630" y="-43"/>
			<point x="630" y="-59" type="curve" smooth="yes"/>
			<point x="630" y="-74"/>
			<point x="629" y="-90"/>
			<point x="627" y="-110" type="curve"/>
			<point x="602" y="-115"/>
			<point x="577" y="-118"/>
			<point x="553" y="-118" type="curve" smooth="yes"/>
			<point x="530" y="-118"/>
			<point x="506" y="-115"/>
			<point x="482" y="-110" type="curve"/>
			<point x="479" y="-91"/>
			<point x="478" y="-75"/>
			<point x="478" y="-60" type="curve" smooth="yes"/>
			<point x="478" y="-45"/>
			<point x="479" y="-29"/>
			<point x="482" y="-7" type="curve"/>
			<point x="506" y="-2"/>
			<point x="531" y="0"/>
			<point x="555" y="0" type="curve" smooth="yes"/>
			<point x="578" y="0"/>
			<point x="603" y="-2"/>
		</contour>
		<component base="dvSH"/>
	</outline>
	<anchor name="blwm.virama" x="825" y="-51"/>
	<anchor name="abvm.bindu" x="961" y="607"/>
	<anchor name="blwm.u" x="905" y="-78"/>
	<anchor name="abvm.e" x="964" y="607"/>
</glyph>
<glyph name="dvSH_NA" format="2">
	<advance width="1027"/>
	<outline>
		<contour>
			<point x="818" y="9" type="line"/>
			<point x="818" y="501" type="line"/>
			<point x="967" y="501" type="line"/>
			<point x="967" y="9" type="line"/>
		</contour>
		<contour>
			<point x="481" y="500" type="line"/>
			<point x="481" y="607" type="line"/>
			<point x="1067" y="607" type="line"/>
			<point x="1067" y="500" type="line"/>
		</contour>
		<contour>
			<point x="578" y="228" type="line"/>
			<point x="578" y="340" type="line"/>
			<point x="936" y="341" type="line"/>
			<point x="936" y="229" type="line"/>
		</contour>
		<contour>
			<point x="566" y="340" type="curve"/>
			<point x="666" y="340" type="line"/>
			<point x="666" y="251" type="line" smooth="yes"/>
			<point x="666" y="164"/>
			<point x="646" y="154"/>
			<point x="563" y="154" type="curve" smooth="yes"/>
			<point x="483" y="154"/>
			<point x="463" y="171"/>
			<point x="463" y="247" type="curve" smooth="yes"/>
			<point x="463" y="329"/>
			<point x="484" y="340"/>
		</contour>
		<contour>
			<point x="186" y="434" type="curve"/>
			<point x="186" y="432" type="line"/>
			<point x="64" y="432" type="line"/>
			<point x="62" y="441"/>
			<point x="60" y="455"/>
			<point x="60" y="467" type="curve" smooth="yes"/>
			<point x="60" y="563"/>
			<point x="116" y="615"/>
			<point x="241" y="615" type="curve" smooth="yes"/>
			<point x="366" y="615"/>
			<point x="422" y="557"/>
			<point x="422" y="433" type="curve" smooth="yes"/>
			<point x="422" y="317"/>
			<point x="347" y="230"/>
			<point x="194" y="230" type="curve" smooth="yes"/>
			<point x="176" y="230"/>
			<point x="177" y="231"/>
			<point x="156" y="235" type="curve"/>
			<point x="40" y="224" type="line"/>
			<point x="40" y="343" type="line"/>
			<point x="135" y="343" type="line"/>
			<point x="242" y="343"/>
			<point x="288" y="383"/>
			<point x="288" y="442" type="curve" smooth="yes"/>
			<point x="288" y="487"/>
			<point x="273" y="506"/>
			<point x="236" y="506" type="curve" smooth="yes"/>
			<point x="198" y="506"/>
			<point x="183" y="487"/>
			<point x="183" y="457" type="curve" smooth="yes"/>
			<point x="183" y="448"/>
			<point x="184" y="440"/>
		</contour>
		<contour>
			<point x="246" y="9" type="line"/>
			<point x="40" y="223" type="line"/>
			<point x="40" y="250" type="line"/>
			<point x="187" y="232" type="line"/>
			<point x="187" y="228" type="line"/>
			<point x="270" y="173"/>
			<point x="348" y="100"/>
			<point x="424" y="11" type="curve"/>
			<point x="424" y="9" type="line"/>
		</contour>
	</outline>
	<anchor name="blwm" x="900" y="0"/>
</glyph>
<glyph name="dvSH_TA" format="2">
	<advance width="1029"/>
	<outline>
		<contour>
			<point x="481" y="500" type="line"/>
			<point x="481" y="607" type="line"/>
			<point x="1069" y="607" type="line"/>
			<point x="1069" y="500" type="line"/>
		</contour>
		<contour>
			<point x="821" y="9" type="line"/>
			<point x="821" y="501" type="line"/>
			<point x="969" y="501" type="line"/>
			<point x="969" y="9" type="line"/>
		</contour>
		<contour>
			<point x="678" y="412" type="curve" smooth="yes"/>
			<point x="730" y="412"/>
			<point x="784" y="404"/>
			<point x="819" y="389" type="curve"/>
			<point x="825" y="392" type="line"/>
			<point x="827" y="268" type="line"/>
			<point x="821" y="267" type="line"/>
			<point x="795" y="279"/>
			<point x="753" y="287"/>
			<point x="716" y="287" type="curve" smooth="yes"/>
			<point x="656" y="287"/>
			<point x="628" y="269"/>
			<point x="628" y="221" type="curve" smooth="yes"/>
			<point x="628" y="166"/>
			<point x="650" y="86"/>
			<point x="683" y="9" type="curve"/>
			<point x="683" y="6" type="line"/>
			<point x="539" y="6" type="line"/>
			<point x="502" y="96"/>
			<point x="480" y="177"/>
			<point x="480" y="264" type="curve" smooth="yes"/>
			<point x="480" y="378"/>
			<point x="552" y="412"/>
		</contour>
		<contour>
			<point x="186" y="434" type="curve"/>
			<point x="186" y="432" type="line"/>
			<point x="64" y="432" type="line"/>
			<point x="62" y="441"/>
			<point x="60" y="455"/>
			<point x="60" y="467" type="curve" smooth="yes"/>
			<point x="60" y="563"/>
			<point x="116" y="615"/>
			<point x="241" y="615" type="curve" smooth="yes"/>
			<point x="366" y="615"/>
			<point x="422" y="557"/>
			<point x="422" y="433" type="curve" smooth="yes"/>
			<point x="422" y="317"/>
			<point x="347" y="230"/>
			<point x="194" y="230" type="curve" smooth="yes"/>
			<point x="176" y="230"/>
			<point x="177" y="231"/>
			<point x="156" y="235" type="curve"/>
			<point x="40" y="224" type="line"/>
			<point x="40" y="343" type="line"/>
			<point x="135" y="343" type="line"/>
			<point x="242" y="343"/>
			<point x="288" y="383"/>
			<point x="288" y="442" type="curve" smooth="yes"/>
			<point x="288" y="487"/>
			<point x="273" y="506"/>
			<point x="236" y="506" type="curve" smooth="yes"/>
			<point x="198" y="506"/>
			<point x="183" y="487"/>
			<point x="183" y="457" type="curve" smooth="yes"/>
			<point x="183" y="448"/>
			<point x="184" y="440"/>
		</contour>
		<contour>
			<point x="246" y="9" type="line"/>
			<point x="40" y="223" type="line"/>
			<point x="40" y="250" type="line"/>
			<point x="187" y="232" type="line"/>
			<point x="187" y="228" type="line"/>
			<point x="270" y="173"/>
			<point x="348" y="100"/>
			<point x="424" y="11" type="curve"/>
			<point x="424" y="9" type="line"/>
		</contour>
	</outline>
	<anchor name="blwm" x="891" y="9"/>
</glyph>
<glyph name="dvSH_TTA" format="2">
	<advance width="934"/>
	<outline>
		<contour>
			<point x="723" y="320" type="line"/>
			<point x="723" y="505" type="line"/>
			<point x="861" y="505" type="line"/>
			<point x="861" y="320" type="line"/>
		</contour>
		<contour>
			<point x="481" y="500" type="line"/>
			<point x="481" y="607" type="line"/>
			<point x="974" y="607" type="line"/>
			<point x="974" y="500" type="line"/>
		</contour>
		<contour>
			<point x="899" y="145" type="curve"/>
			<point x="901" y="144" type="line"/>
			<point x="901" y="23" type="line"/>
			<point x="847" y="8"/>
			<point x="789" y="0"/>
			<point x="703" y="0" type="curve" smooth="yes"/>
			<point x="562" y="0"/>
			<point x="472" y="48"/>
			<point x="472" y="218" type="curve" smooth="yes"/>
			<point x="472" y="388"/>
			<point x="543" y="436"/>
			<point x="669" y="436" type="curve" smooth="yes"/>
			<point x="728" y="436"/>
			<point x="832" y="434"/>
			<point x="853" y="432" type="curve"/>
			<point x="853" y="320" type="line"/>
			<point x="717" y="320" type="line" smooth="yes"/>
			<point x="641" y="320"/>
			<point x="616" y="302"/>
			<point x="616" y="220" type="curve" smooth="yes"/>
			<point x="616" y="137"/>
			<point x="646" y="128"/>
			<point x="738" y="128" type="curve" smooth="yes"/>
			<point x="790" y="128"/>
			<point x="855" y="133"/>
		</contour>
		<contour>
			<point x="186" y="434" type="curve"/>
			<point x="186" y="432" type="line"/>
			<point x="64" y="432" type="line"/>
			<point x="62" y="441"/>
			<point x="60" y="455"/>
			<point x="60" y="467" type="curve" smooth="yes"/>
			<point x="60" y="563"/>
			<point x="116" y="615"/>
			<point x="241" y="615" type="curve" smooth="yes"/>
			<point x="366" y="615"/>
			<point x="422" y="557"/>
			<point x="422" y="433" type="curve" smooth="yes"/>
			<point x="422" y="317"/>
			<point x="347" y="230"/>
			<point x="194" y="230" type="curve" smooth="yes"/>
			<point x="176" y="230"/>
			<point x="177" y="231"/>
			<point x="156" y="235" type="curve"/>
			<point x="40" y="224" type="line"/>
			<point x="40" y="343" type="line"/>
			<point x="135" y="343" type="line"/>
			<point x="242" y="343"/>
			<point x="288" y="383"/>
			<point x="288" y="442" type="curve" smooth="yes"/>
			<point x="288" y="487"/>
			<point x="273" y="506"/>
			<point x="236" y="506" type="curve" smooth="yes"/>
			<point x="198" y="506"/>
			<point x="183" y="487"/>
			<point x="183" y="457" type="curve" smooth="yes"/>
			<point x="183" y="448"/>
			<point x="184" y="440"/>
		</contour>
		<contour>
			<point x="246" y="9" type="line"/>
			<point x="40" y="223" type="line"/>
			<point x="40" y="250" type="line"/>
			<point x="187" y="232" type="line"/>
			<point x="187" y="228" type="line"/>
			<point x="270" y="173"/>
			<point x="348" y="100"/>
			<point x="424" y="11" type="curve"/>
			<point x="424" y="9" type="line"/>
		</contour>
	</outline>
	<anchor name="blwm.u" x="703" y="-90"/>
</glyph>
<glyph name="dvSH_YA" format="2">
	<advance width="1119"/>
	<outline>
		<contour>
			<point x="911" y="9" type="line"/>
			<point x="911" y="501" type="line"/>
			<point x="1059" y="501" type="line"/>
			<point x="1059" y="9" type="line"/>
		</contour>
		<contour>
			<point x="481" y="500" type="line"/>
			<point x="481" y="607" type="line"/>
			<point x="1159" y="607" type="line"/>
			<point x="1159" y="500" type="line"/>
		</contour>
		<contour>
			<point x="762" y="520" type="line"/>
			<point x="762" y="422" type="line" smooth="yes"/>
			<point x="762" y="320"/>
			<point x="719" y="277"/>
			<point x="598" y="270" type="curve"/>
			<point x="599" y="227"/>
			<point x="645" y="200"/>
			<point x="755" y="200" type="curve" smooth="yes"/>
			<point x="843" y="200"/>
			<point x="906" y="216"/>
			<point x="960" y="257" type="curve"/>
			<point x="991" y="146" type="line"/>
			<point x="966" y="125"/>
			<point x="944" y="110"/>
			<point x="911" y="98" type="curve"/>
			<point x="907" y="100" type="line"/>
			<point x="860" y="84"/>
			<point x="808" y="76"/>
			<point x="741" y="76" type="curve" smooth="yes"/>
			<point x="560" y="76"/>
			<point x="464" y="156"/>
			<point x="464" y="312" type="curve" smooth="yes"/>
			<point x="464" y="367" type="line"/>
			<point x="512" y="367" type="line" smooth="yes"/>
			<point x="605" y="367"/>
			<point x="620" y="379"/>
			<point x="620" y="464" type="curve" smooth="yes"/>
			<point x="620" y="520" type="line"/>
		</contour>
		<contour>
			<point x="186" y="434" type="curve"/>
			<point x="186" y="432" type="line"/>
			<point x="64" y="432" type="line"/>
			<point x="62" y="441"/>
			<point x="60" y="455"/>
			<point x="60" y="467" type="curve" smooth="yes"/>
			<point x="60" y="563"/>
			<point x="116" y="615"/>
			<point x="241" y="615" type="curve" smooth="yes"/>
			<point x="366" y="615"/>
			<point x="422" y="557"/>
			<point x="422" y="433" type="curve" smooth="yes"/>
			<point x="422" y="317"/>
			<point x="347" y="230"/>
			<point x="194" y="230" type="curve" smooth="yes"/>
			<point x="176" y="230"/>
			<point x="177" y="231"/>
			<point x="156" y="235" type="curve"/>
			<point x="40" y="224" type="line"/>
			<point x="40" y="343" type="line"/>
			<point x="135" y="343" type="line"/>
			<point x="242" y="343"/>
			<point x="288" y="383"/>
			<point x="288" y="442" type="curve" smooth="yes"/>
			<point x="288" y="487"/>
			<point x="273" y="506"/>
			<point x="236" y="506" type="curve" smooth="yes"/>
			<point x="198" y="506"/>
			<point x="183" y="487"/>
			<point x="183" y="457" type="curve" smooth="yes"/>
			<point x="183" y="448"/>
			<point x="184" y="440"/>
		</contour>
		<contour>
			<point x="246" y="9" type="line"/>
			<point x="40" y="223" type="line"/>
			<point x="40" y="250" type="line"/>
			<point x="187" y="232" type="line"/>
			<point x="187" y="228" type="line"/>
			<point x="270" y="173"/>
			<point x="348" y="100"/>
			<point x="424" y="11" type="curve"/>
			<point x="424" y="9" type="line"/>
		</contour>
	</outline>
</glyph>
<glyph name="dvSS_PHA" format="2">
	<advance width="1261"/>
	<outline>
		<contour>
			<point x="418" y="248" type="line"/>
			<point x="144" y="430" type="line"/>
			<point x="183" y="488" type="line"/>
			<point x="449" y="306" type="line"/>
		</contour>
		<contour>
			<point x="-50" y="500" type="line"/>
			<point x="-50" y="607" type="line"/>
			<point x="429" y="607" type="line"/>
			<point x="429" y="500" type="line"/>
		</contour>
		<contour>
			<point x="270" y="100" type="curve" smooth="yes"/>
			<point x="109" y="100"/>
			<point x="50" y="143"/>
			<point x="50" y="317" type="curve" smooth="yes"/>
			<point x="50" y="513" type="line"/>
			<point x="186" y="514" type="line"/>
			<point x="186" y="302" type="line" smooth="yes"/>
			<point x="186" y="239"/>
			<point x="219" y="219"/>
			<point x="294" y="219" type="curve" smooth="yes"/>
			<point x="345" y="219"/>
			<point x="395" y="227"/>
			<point x="441" y="243" type="curve"/>
			<point x="469" y="141" type="line"/>
			<point x="415" y="117"/>
			<point x="346" y="100"/>
		</contour>
		<contour>
			<point x="415" y="315" type="curve" smooth="yes"/>
			<point x="415" y="505" type="line"/>
			<point x="563" y="505" type="line"/>
			<point x="563" y="297" type="line" smooth="yes"/>
			<point x="563" y="247"/>
			<point x="582" y="228"/>
			<point x="653" y="228" type="curve" smooth="yes"/>
			<point x="689" y="228"/>
			<point x="721" y="235"/>
			<point x="742" y="248" type="curve"/>
			<point x="753" y="127" type="line"/>
			<point x="745" y="122"/>
			<point x="738" y="125"/>
			<point x="726" y="122" type="curve"/>
			<point x="724" y="123" type="line"/>
			<point x="698" y="111"/>
			<point x="660" y="103"/>
			<point x="623" y="103" type="curve" smooth="yes"/>
			<point x="462" y="103"/>
			<point x="415" y="164"/>
		</contour>
		<contour>
			<point x="726" y="9" type="line"/>
			<point x="726" y="501" type="line"/>
			<point x="875" y="501" type="line"/>
			<point x="875" y="9" type="line"/>
		</contour>
		<contour>
			<point x="315" y="500" type="line"/>
			<point x="315" y="607" type="line"/>
			<point x="1306" y="607" type="line"/>
			<point x="1306" y="500" type="line"/>
		</contour>
		<contour>
			<point x="1068" y="60" type="curve" smooth="yes"/>
			<point x="1021" y="60"/>
			<point x="970" y="66"/>
			<point x="933" y="77" type="curve"/>
			<point x="935" y="191" type="line"/>
			<point x="939" y="192" type="line"/>
			<point x="962" y="186"/>
			<point x="989" y="181"/>
			<point x="1025" y="181" type="curve" smooth="yes"/>
			<point x="1087" y="181"/>
			<point x="1101" y="198"/>
			<point x="1101" y="248" type="curve" smooth="yes"/>
			<point x="1101" y="298"/>
			<point x="1087" y="315"/>
			<point x="998" y="315" type="curve" smooth="yes"/>
			<point x="944" y="315"/>
			<point x="900" y="306"/>
			<point x="863" y="286" type="curve"/>
			<point x="875" y="409" type="line"/>
			<point x="877" y="409" type="line"/>
			<point x="907" y="424"/>
			<point x="963" y="434"/>
			<point x="1020" y="434" type="curve"/>
			<point x="1185" y="434"/>
			<point x="1236" y="388"/>
			<point x="1236" y="246" type="curve" smooth="yes"/>
			<point x="1236" y="106"/>
			<point x="1190" y="60"/>
		</contour>
	</outline>
	<anchor name="blwm.virama" x="731" y="-51"/>
	<anchor name="abvm.bindu" x="878" y="607"/>
	<anchor name="blwm.u" x="813" y="-81"/>
	<anchor name="abvm.e" x="879" y="607"/>
</glyph>
<glyph name="dvSS_TT_RA" format="2">
	<advance width="858"/>
	<outline>
		<contour>
			<point x="607" y="-109" type="line"/>
			<point x="458" y="-109" type="line"/>
			<point x="458" y="-105" type="line"/>
			<point x="542" y="52" type="line"/>
			<point x="542" y="53" type="line"/>
			<point x="549" y="71" type="line"/>
			<point x="747" y="71" type="line"/>
			<point x="756" y="55" type="line"/>
			<point x="756" y="53" type="line"/>
			<point x="848" y="-105" type="line"/>
			<point x="848" y="-109" type="line"/>
			<point x="699" y="-109" type="line"/>
			<point x="653" y="12" type="line"/>
			<point x="651" y="12" type="line"/>
		</contour>
		<contour>
			<point x="647" y="320" type="line"/>
			<point x="647" y="505" type="line"/>
			<point x="785" y="505" type="line"/>
			<point x="785" y="320" type="line"/>
		</contour>
		<contour>
			<point x="340" y="500" type="line"/>
			<point x="340" y="607" type="line"/>
			<point x="898" y="607" type="line"/>
			<point x="898" y="500" type="line"/>
		</contour>
		<contour>
			<point x="823" y="145" type="curve"/>
			<point x="825" y="144" type="line"/>
			<point x="825" y="30" type="line"/>
			<point x="771" y="15"/>
			<point x="713" y="7"/>
			<point x="627" y="7" type="curve" smooth="yes"/>
			<point x="486" y="7"/>
			<point x="396" y="55"/>
			<point x="396" y="218" type="curve" smooth="yes"/>
			<point x="396" y="388"/>
			<point x="467" y="436"/>
			<point x="593" y="436" type="curve" smooth="yes"/>
			<point x="652" y="436"/>
			<point x="756" y="434"/>
			<point x="777" y="432" type="curve"/>
			<point x="777" y="320" type="line"/>
			<point x="641" y="320" type="line" smooth="yes"/>
			<point x="565" y="320"/>
			<point x="540" y="302"/>
			<point x="540" y="220" type="curve" smooth="yes"/>
			<point x="540" y="137"/>
			<point x="570" y="128"/>
			<point x="662" y="128" type="curve" smooth="yes"/>
			<point x="714" y="128"/>
			<point x="779" y="133"/>
		</contour>
		<component base="dvSS"/>
	</outline>
	<anchor name="blwm.virama" x="584" y="-161"/>
	<anchor name="abvm.bindu" x="778" y="607"/>
	<anchor name="blwm.u" x="652" y="-181"/>
	<anchor name="abvm.e" x="779" y="607"/>
</glyph>
<glyph name="dvS_JA" format="2">
	<advance width="1065"/>
	<outline>
		<contour>
			<point x="858" y="9" type="line"/>
			<point x="858" y="502" type="line"/>
			<point x="1005" y="502" type="line"/>
			<point x="1005" y="9" type="line"/>
		</contour>
		<contour>
			<point x="357" y="500" type="line"/>
			<point x="357" y="607" type="line"/>
			<point x="1105" y="607" type="line"/>
			<point x="1105" y="500" type="line"/>
		</contour>
		<contour>
			<point x="86" y="250" type="curve"/>
			<point x="34" y="221" type="line"/>
			<point x="34" y="327" type="line"/>
			<point x="86" y="327" type="line"/>
			<point x="154" y="327"/>
			<point x="168" y="355"/>
			<point x="168" y="402" type="curve" smooth="yes"/>
			<point x="168" y="573" type="line"/>
			<point x="316" y="572" type="line"/>
			<point x="316" y="442" type="line" smooth="yes"/>
			<point x="316" y="366"/>
			<point x="293" y="329"/>
			<point x="232" y="304" type="curve"/>
			<point x="228" y="264"/>
			<point x="148" y="219"/>
		</contour>
		<contour>
			<point x="192" y="9" type="line"/>
			<point x="34" y="221" type="line"/>
			<point x="34" y="248" type="line"/>
			<point x="133" y="256" type="line"/>
			<point x="153" y="243"/>
			<point x="147" y="265"/>
			<point x="167" y="248" type="curve"/>
			<point x="167" y="244" type="line"/>
			<point x="222" y="198"/>
			<point x="319" y="83"/>
			<point x="358" y="11" type="curve"/>
			<point x="358" y="9" type="line"/>
		</contour>
		<contour>
			<point x="167" y="247" type="line"/>
			<point x="177" y="354" type="line"/>
			<point x="507" y="354" type="line"/>
			<point x="507" y="247" type="line"/>
		</contour>
		<contour>
			<point x="-25" y="500" type="line"/>
			<point x="-25" y="607" type="line"/>
			<point x="467" y="607" type="line"/>
			<point x="467" y="500" type="line"/>
		</contour>
		<contour>
			<point x="575" y="0" type="curve" smooth="yes"/>
			<point x="508" y="0"/>
			<point x="455" y="8"/>
			<point x="413" y="20" type="curve"/>
			<point x="413" y="134" type="line"/>
			<point x="415" y="135" type="line"/>
			<point x="447" y="127"/>
			<point x="485" y="121"/>
			<point x="532" y="121" type="curve" smooth="yes"/>
			<point x="596" y="121"/>
			<point x="617" y="135"/>
			<point x="617" y="199" type="curve" smooth="yes"/>
			<point x="617" y="229"/>
			<point x="598" y="247"/>
			<point x="516" y="247" type="curve"/>
			<point x="615" y="283" type="line"/>
			<point x="696" y="277" type="line"/>
			<point x="696" y="275" type="line"/>
			<point x="734" y="260"/>
			<point x="753" y="217"/>
			<point x="753" y="180" type="curve" smooth="yes"/>
			<point x="753" y="47"/>
			<point x="715" y="0"/>
		</contour>
		<contour>
			<point x="486" y="247" type="line"/>
			<point x="486" y="354" type="line"/>
			<point x="961" y="354" type="line"/>
			<point x="961" y="247" type="line"/>
			<point x="684" y="247" type="line"/>
			<point x="619" y="267" type="line"/>
			<point x="516" y="247" type="line"/>
		</contour>
	</outline>
</glyph>
<glyph name="dvS_KA" format="2">
	<advance width="1342"/>
	<outline>
		<contour>
			<point x="808" y="9" type="line"/>
			<point x="808" y="501" type="line"/>
			<point x="956" y="501" type="line"/>
			<point x="956" y="9" type="line"/>
		</contour>
		<contour>
			<point x="377" y="500" type="line"/>
			<point x="377" y="607" type="line"/>
			<point x="1367" y="607" type="line"/>
			<point x="1367" y="500" type="line"/>
		</contour>
		<contour>
			<point x="615" y="436" type="curve" smooth="yes"/>
			<point x="662" y="436"/>
			<point x="713" y="430"/>
			<point x="750" y="419" type="curve"/>
			<point x="748" y="305" type="line"/>
			<point x="744" y="304" type="line"/>
			<point x="721" y="310"/>
			<point x="694" y="315"/>
			<point x="658" y="315" type="curve" smooth="yes"/>
			<point x="596" y="315"/>
			<point x="582" y="298"/>
			<point x="582" y="248" type="curve" smooth="yes"/>
			<point x="582" y="198"/>
			<point x="596" y="181"/>
			<point x="685" y="181" type="curve" smooth="yes"/>
			<point x="739" y="181"/>
			<point x="783" y="190"/>
			<point x="820" y="210" type="curve"/>
			<point x="808" y="87" type="line"/>
			<point x="806" y="87" type="line"/>
			<point x="776" y="72"/>
			<point x="720" y="62"/>
			<point x="663" y="62" type="curve" smooth="yes"/>
			<point x="493" y="62"/>
			<point x="442" y="108"/>
			<point x="442" y="250" type="curve" smooth="yes"/>
			<point x="442" y="390"/>
			<point x="488" y="436"/>
		</contour>
		<contour>
			<point x="1149" y="60" type="curve" smooth="yes"/>
			<point x="1102" y="60"/>
			<point x="1051" y="66"/>
			<point x="1014" y="77" type="curve"/>
			<point x="1016" y="191" type="line"/>
			<point x="1020" y="192" type="line"/>
			<point x="1043" y="186"/>
			<point x="1070" y="181"/>
			<point x="1106" y="181" type="curve" smooth="yes"/>
			<point x="1168" y="181"/>
			<point x="1182" y="198"/>
			<point x="1182" y="248" type="curve" smooth="yes"/>
			<point x="1182" y="298"/>
			<point x="1168" y="315"/>
			<point x="1079" y="315" type="curve" smooth="yes"/>
			<point x="1025" y="315"/>
			<point x="981" y="306"/>
			<point x="944" y="286" type="curve"/>
			<point x="956" y="409" type="line"/>
			<point x="958" y="409" type="line"/>
			<point x="988" y="424"/>
			<point x="1044" y="434"/>
			<point x="1101" y="434" type="curve" smooth="yes"/>
			<point x="1271" y="434"/>
			<point x="1322" y="388"/>
			<point x="1322" y="246" type="curve" smooth="yes"/>
			<point x="1322" y="106"/>
			<point x="1276" y="60"/>
		</contour>
		<component base="dvS"/>
	</outline>
	<anchor name="blwm.virama" x="808" y="-51"/>
	<anchor name="abvm.bindu" x="955" y="607"/>
	<anchor name="blwm.u" x="890" y="-81"/>
	<anchor name="abvm.e" x="956" y="607"/>
</glyph>
<glyph name="dvS_K_RA" format="2">
	<advance width="1310"/>
	<outline>
		<contour>
			<point x="34" y="191" type="line"/>
			<point x="86" y="230" type="line"/>
			<point x="148" y="199"/>
			<point x="224" y="205"/>
			<point x="232" y="284" type="curve"/>
			<point x="293" y="309"/>
			<point x="316" y="346"/>
			<point x="316" y="422" type="curve" smooth="yes"/>
			<point x="316" y="572" type="line"/>
			<point x="168" y="573" type="line"/>
			<point x="168" y="382" type="line" smooth="yes"/>
			<point x="168" y="335"/>
			<point x="154" y="307"/>
			<point x="86" y="307" type="curve"/>
			<point x="34" y="307" type="line"/>
		</contour>
		<contour>
			<point x="192" y="9" type="line"/>
			<point x="358" y="9" type="line"/>
			<point x="358" y="11" type="line"/>
			<point x="319" y="68"/>
			<point x="252" y="147"/>
			<point x="187" y="191" type="curve"/>
			<point x="187" y="195" type="line"/>
			<point x="167" y="212"/>
			<point x="153" y="223"/>
			<point x="133" y="236" type="curve"/>
			<point x="34" y="228" type="line"/>
			<point x="34" y="191" type="line"/>
		</contour>
		<contour>
			<point x="157" y="195" type="line"/>
			<point x="487" y="195" type="line"/>
			<point x="487" y="309" type="line"/>
			<point x="157" y="309" type="line"/>
		</contour>
		<contour>
			<point x="-25" y="500" type="line"/>
			<point x="487" y="500" type="line"/>
			<point x="487" y="607" type="line"/>
			<point x="-25" y="607" type="line"/>
		</contour>
		<contour>
			<point x="1149" y="60" type="curve" smooth="yes"/>
			<point x="1271" y="60"/>
			<point x="1317" y="106"/>
			<point x="1317" y="246" type="curve" smooth="yes"/>
			<point x="1317" y="388"/>
			<point x="1266" y="434"/>
			<point x="1101" y="434" type="curve" smooth="yes"/>
			<point x="1044" y="434"/>
			<point x="988" y="424"/>
			<point x="958" y="409" type="curve"/>
			<point x="956" y="409" type="line"/>
			<point x="944" y="286" type="line"/>
			<point x="981" y="306"/>
			<point x="1025" y="315"/>
			<point x="1079" y="315" type="curve" smooth="yes"/>
			<point x="1168" y="315"/>
			<point x="1182" y="298"/>
			<point x="1182" y="248" type="curve" smooth="yes"/>
			<point x="1182" y="198"/>
			<point x="1168" y="181"/>
			<point x="1106" y="181" type="curve" smooth="yes"/>
			<point x="1070" y="181"/>
			<point x="1043" y="186"/>
			<point x="1020" y="192" type="curve"/>
			<point x="1016" y="191" type="line"/>
			<point x="1014" y="77" type="line"/>
			<point x="1051" y="66"/>
			<point x="1102" y="60"/>
		</contour>
		<contour>
			<point x="572" y="-20" type="curve"/>
			<point x="572" y="-24" type="line"/>
			<point x="747" y="-24" type="line"/>
			<point x="806" y="113" type="line"/>
			<point x="672" y="108" type="line"/>
			<point x="663" y="87" type="line"/>
			<point x="663" y="84" type="line"/>
			<point x="632" y="60"/>
			<point x="599" y="18"/>
		</contour>
		<contour>
			<point x="663" y="86" type="curve" smooth="yes"/>
			<point x="720" y="86"/>
			<point x="776" y="96"/>
			<point x="806" y="111" type="curve"/>
			<point x="808" y="111" type="line"/>
			<point x="820" y="220" type="line"/>
			<point x="783" y="200"/>
			<point x="739" y="191"/>
			<point x="685" y="191" type="curve" smooth="yes"/>
			<point x="596" y="191"/>
			<point x="582" y="208"/>
			<point x="582" y="258" type="curve" smooth="yes"/>
			<point x="582" y="298"/>
			<point x="596" y="315"/>
			<point x="658" y="315" type="curve" smooth="yes"/>
			<point x="694" y="315"/>
			<point x="721" y="310"/>
			<point x="744" y="304" type="curve"/>
			<point x="748" y="305" type="line"/>
			<point x="750" y="419" type="line"/>
			<point x="713" y="430"/>
			<point x="662" y="436"/>
			<point x="615" y="436" type="curve" smooth="yes"/>
			<point x="493" y="436"/>
			<point x="447" y="390"/>
			<point x="447" y="260" type="curve" smooth="yes"/>
			<point x="447" y="132"/>
			<point x="498" y="86"/>
		</contour>
		<contour>
			<point x="808" y="9" type="line"/>
			<point x="956" y="9" type="line"/>
			<point x="956" y="501" type="line"/>
			<point x="808" y="501" type="line"/>
		</contour>
		<contour>
			<point x="377" y="500" type="line"/>
			<point x="1387" y="500" type="line"/>
			<point x="1387" y="607" type="line"/>
			<point x="377" y="607" type="line"/>
		</contour>
	</outline>
	<anchor name="blwm.virama" x="808" y="-51"/>
	<anchor name="abvm.bindu" x="955" y="607"/>
	<anchor name="blwm.u" x="890" y="-81"/>
	<anchor name="abvm.e" x="956" y="607"/>
</glyph>
<glyph name="dvS_RA" format="2">
	<advance width="687"/>
	<outline>
		<contour>
			<point x="56" y="270" type="curve"/>
			<point x="4" y="231" type="line"/>
			<point x="4" y="347" type="line"/>
			<point x="56" y="347" type="line"/>
			<point x="124" y="347"/>
			<point x="138" y="375"/>
			<point x="138" y="422" type="curve" smooth="yes"/>
			<point x="138" y="573" type="line"/>
			<point x="286" y="572" type="line"/>
			<point x="286" y="422" type="line" smooth="yes"/>
			<point x="286" y="376"/>
			<point x="263" y="349"/>
			<point x="202" y="324" type="curve"/>
			<point x="194" y="245"/>
			<point x="118" y="239"/>
		</contour>
		<contour>
			<point x="132" y="9" type="line"/>
			<point x="4" y="231" type="line"/>
			<point x="4" y="268" type="line"/>
			<point x="103" y="276" type="line"/>
			<point x="123" y="263"/>
			<point x="127" y="252"/>
			<point x="147" y="235" type="curve"/>
			<point x="147" y="231" type="line"/>
			<point x="194" y="177"/>
			<point x="262" y="78"/>
			<point x="304" y="11" type="curve"/>
			<point x="304" y="9" type="line"/>
		</contour>
		<contour>
			<point x="127" y="235" type="line"/>
			<point x="127" y="349" type="line"/>
			<point x="487" y="349" type="line"/>
			<point x="487" y="235" type="line"/>
		</contour>
		<contour>
			<point x="-55" y="500" type="line"/>
			<point x="-55" y="607" type="line"/>
			<point x="459" y="607" type="line"/>
			<point x="459" y="500" type="line"/>
		</contour>
		<contour>
			<point x="479" y="9" type="line"/>
			<point x="479" y="501" type="line"/>
			<point x="627" y="501" type="line"/>
			<point x="627" y="9" type="line"/>
		</contour>
		<contour>
			<point x="336" y="500" type="line"/>
			<point x="336" y="607" type="line"/>
			<point x="727" y="607" type="line"/>
			<point x="727" y="500" type="line"/>
		</contour>
		<contour>
			<point x="276" y="118" type="line"/>
			<point x="276" y="122" type="line"/>
			<point x="324" y="167"/>
			<point x="365" y="200"/>
			<point x="414" y="233" type="curve"/>
			<point x="414" y="235" type="line"/>
			<point x="432" y="253" type="line"/>
			<point x="529" y="255" type="line"/>
			<point x="484" y="165" type="line"/>
			<point x="477" y="165" type="line"/>
			<point x="397" y="78" type="line"/>
		</contour>
	</outline>
</glyph>
